<?xml version="1.0" encoding="UTF-8" standalone="no"?>
<!-- Created with Inkscape (http://www.inkscape.org/) -->

<svg
   xmlns:dc="http://purl.org/dc/elements/1.1/"
   xmlns:cc="http://creativecommons.org/ns#"
   xmlns:rdf="http://www.w3.org/1999/02/22-rdf-syntax-ns#"
   xmlns:svg="http://www.w3.org/2000/svg"
   xmlns="http://www.w3.org/2000/svg"
   xmlns:sodipodi="http://sodipodi.sourceforge.net/DTD/sodipodi-0.dtd"
   xmlns:inkscape="http://www.inkscape.org/namespaces/inkscape"
   width="210mm"
   height="297mm"
   viewBox="0 0 744.09448819 1052.3622047"
   id="svg2"
   version="1.1"
   inkscape:version="0.91 r13725"
   sodipodi:docname="dessin.svg">
  <defs
     id="defs4" />
  <sodipodi:namedview
     id="base"
     pagecolor="#ffffff"
     bordercolor="#666666"
     borderopacity="1.0"
     inkscape:pageopacity="0.0"
     inkscape:pageshadow="2"
     inkscape:zoom="0.35"
     inkscape:cx="375"
     inkscape:cy="520"
     inkscape:document-units="px"
     inkscape:current-layer="layer1"
     showgrid="false"
     inkscape:window-width="1366"
     inkscape:window-height="723"
     inkscape:window-x="0"
     inkscape:window-y="0"
     inkscape:window-maximized="1" />
  <metadata
     id="metadata7">
    <rdf:RDF>
      <cc:Work
         rdf:about="">
        <dc:format>image/svg+xml</dc:format>
        <dc:type
           rdf:resource="http://purl.org/dc/dcmitype/StillImage" />
        <dc:title></dc:title>
      </cc:Work>
    </rdf:RDF>
  </metadata>
  <g
     inkscape:label="Calque 1"
     inkscape:groupmode="layer"
     id="layer1">
    <path
       style="fill:none;fill-rule:evenodd;stroke:#000000;stroke-width:1px;stroke-linecap:butt;stroke-linejoin:miter;stroke-opacity:1"
       d="m 514.28571,332.3622 c 0,-4.7619 0,-9.5238 0,-14.28571 0,-0.95238 -0.67343,-2.18371 0,-2.85714 0.67344,-0.67344 2.18371,0.67343 2.85715,0 0.67343,-0.67344 -0.42592,-2.00531 0,-2.85715 1.20467,-2.40935 4.50961,-3.30493 5.71428,-5.71428 0.42592,-0.85184 -0.42591,-2.00531 0,-2.85714 5.94537,-11.89075 -0.19724,3.05438 5.71429,-2.85715 0.67343,-0.67343 -0.42592,-2.0053 0,-2.85714 0.60234,-1.20468 2.2548,-1.65247 2.85714,-2.85714 0.85184,-1.70367 -1.34687,-4.36742 0,-5.71429 0.67344,-0.67343 2.18371,0.67344 2.85714,0 0.0919,-0.0919 0,-7.87849 0,-8.57143 0,-14.28571 0,-28.57143 0,-42.85714 0,-7.61905 0,-15.23809 0,-22.85714 0,-0.95238 0.67344,-2.18371 0,-2.85715 -1.34687,-1.34687 -4.12942,1.05658 -5.71428,0 -2.1131,-1.40873 -9.07822,-10.25339 -11.42857,-11.42857 -0.85184,-0.42591 -2.00531,0.42592 -2.85715,0 -2.40935,-1.20467 -3.30493,-4.50961 -5.71428,-5.71428 -0.85184,-0.42592 -1.95364,0.30117 -2.85714,0 -2.02031,-0.67344 -3.80953,-1.90476 -5.71429,-2.85715 -1.90476,-0.95238 -3.94236,-1.67585 -5.71429,-2.85714 -1.12066,-0.74711 -1.65246,-2.2548 -2.85714,-2.85714 -0.85183,-0.42592 -1.95363,0.30117 -2.85714,0 -2.02031,-0.67344 -3.69398,-2.18371 -5.71429,-2.85714 -1.80701,-0.60234 -3.90727,0.60233 -5.71428,0 -2.02031,-0.67344 -3.69398,-2.18371 -5.71429,-2.85715 -0.90351,-0.30117 -2.00531,0.42592 -2.85714,0 -13.07602,-6.53801 12.12405,1.18421 -8.57143,-5.71428 -0.90351,-0.30117 -2.00531,0.42592 -2.85714,0 -1.20468,-0.60234 -1.65247,-2.25481 -2.85715,-2.85715 -0.85183,-0.42591 -2.0053,0.42592 -2.85714,0 -1.20468,-0.60233 -1.65246,-2.2548 -2.85714,-2.85714 -0.73872,-0.36936 -15.11771,0 -17.14286,0 -5.71428,0 -11.42857,0 -17.14286,0 -1.90476,0 -3.80952,0 -5.71428,0 -1.90476,0 -3.8664,-0.46197 -5.71429,0 -2.066,0.5165 -3.69398,2.18371 -5.71428,2.85714 -0.90351,0.30117 -2.00531,-0.42591 -2.85715,0 -1.20467,0.60234 -1.65246,2.25481 -2.85714,2.85715 -0.85183,0.42592 -2.00531,-0.42592 -2.85714,0 -1.20468,0.60234 -1.65247,2.2548 -2.85714,2.85714 -0.85184,0.42592 -2.00531,-0.42592 -2.85715,0 -2.40935,1.20468 -3.30493,4.50961 -5.71428,5.71429 -0.85184,0.42591 -2.00531,-0.42592 -2.85715,0 -6.3173,3.15865 -0.88663,1.77326 -2.85714,5.71428 -0.60234,1.20468 -2.43122,1.57939 -2.85714,2.85714 -0.60234,1.80702 1.05657,4.12943 0,5.71429 -1.18128,1.77193 -3.94236,1.67586 -5.71429,2.85714 -8.57143,5.71429 5.71429,0 -8.57143,8.57143 -5.16501,3.09901 -12.13109,2.37311 -17.14285,5.71429 -0.79243,0.52828 0.42591,2.00531 0,2.85714 -1.20468,2.40935 -4.50961,3.30493 -5.71429,5.71429 -0.43476,0.86952 0,7.28469 0,8.57142 0,7.61905 0,15.2381 0,22.85715 0,10.47619 0,20.95238 0,31.42857 0,3.80952 0,7.61905 0,11.42857 0,1.90476 -0.31314,3.83544 0,5.71429 0.64556,3.87334 2.08704,7.57806 2.85714,11.42857 0.52532,2.62657 -0.84383,6.03993 0,8.57143 1.34687,4.04061 4.36742,7.38796 5.71429,11.42857 0.30117,0.90351 -0.42592,2.00531 0,2.85714 5.94537,11.89074 -0.19724,-3.05439 5.71429,2.85714 0.67343,0.67344 -0.67344,2.18371 0,2.85715 0.67343,0.67343 1.90476,0 2.85714,0 0.95238,0 1.90476,0 2.85714,0 5.71429,0 11.42857,0 17.14286,0 1.28673,0 7.7019,-0.43477 8.57143,0 4.12349,2.06174 1.59079,3.65254 5.71428,5.71428 0.85184,0.42592 2.06472,-0.52828 2.85715,0 16.56599,11.044 2.11572,1.37431 5.71428,8.57143 0.60234,1.20468 2.25481,1.65247 2.85714,2.85714 0.42592,0.85184 -0.67343,2.18371 0,2.85715 1.34687,1.34687 4.36742,-1.34687 5.71429,0 0.67344,0.67343 0,1.90476 0,2.85714 0,7.61905 0,15.23809 0,22.85714 0,1.04925 0.11498,11.3136 0,11.42857 -0.67344,0.67344 -2.18371,-0.67343 -2.85714,0 0,7.61905 0.95238,-0.95238 -2.85715,2.85715 -5.91153,5.91153 9.03361,-0.23109 -2.85714,5.71428 -0.86952,0.43476 -7.28469,0 -8.57143,0 -6.66666,0 -13.33333,0 -20,0 -20.95238,0 -41.90476,0 -62.85714,0 -6.66667,0 -13.33333,0 -20,0 -1.28674,0 -7.7019,-0.43476 -8.57143,0 -1.20468,0.60234 -1.73648,2.11004 -2.85714,2.85714 -1.77193,1.18129 -3.94236,1.67586 -5.71429,2.85715 -2.24132,1.49422 -3.80952,3.80952 -5.71428,5.71428 -0.95238,0.95238 -1.90476,1.90477 -2.85715,2.85715 -0.95238,0.95238 -1.65246,2.2548 -2.85714,2.85714 -0.85183,0.42592 -2.18371,-0.67344 -2.85714,0 -0.67344,0.67343 0.52828,2.06471 0,2.85714 -1.49422,2.24133 -4.50961,3.30493 -5.71429,5.71429 -0.85183,1.70367 0.85184,4.01061 0,5.71428 -0.42591,0.85184 -1.90476,0 -2.85714,0 -2.85714,0 -5.71429,0 -8.57143,0 -8.57143,0 -17.14286,0 -25.71428,0 -3.11972,0 -12.43799,-0.61591 -14.28572,0 -2.0203,0.67344 -3.94236,1.67586 -5.71428,2.85715 -1.1738,0.78253 -7.7889,7.39763 -8.57143,8.57142 -1.18129,1.77193 -1.67586,3.94237 -2.85715,5.71429 -1.49421,2.24133 -4.22006,3.47296 -5.71428,5.71429 -1.18128,1.77192 -1.67586,3.94236 -2.85714,5.71428 -0.74711,1.12067 -2.25481,1.65247 -2.85715,2.85714 -0.85183,1.70368 0.60234,3.90727 0,5.71429 -0.67343,2.02031 -2.43949,3.62605 -2.85714,5.71429 -0.56033,2.80166 0.90351,5.8609 0,8.57142 -0.60234,1.80702 -4.36742,-1.34687 -5.71429,0 -0.67343,0.67344 0.95239,2.85715 0,2.85715 -0.95238,0 0,-3.80953 0,-2.85715 0,8.57143 0,17.14286 0,25.71429 0,7.61905 0,15.2381 0,22.85714 0,1.90477 0.60234,3.90727 0,5.71429 -0.42591,1.27775 -2.2548,1.65246 -2.85714,2.85714 -0.85183,1.70367 1.34687,4.36742 0,5.71429 -0.67343,0.67343 -2.18371,-0.67344 -2.85714,0 -0.67344,0.67343 0.95238,2.85714 0,2.85714 -0.95238,0 0,-1.90476 0,-2.85714 0,-3.80953 0,-7.61905 0,-11.42857 0,-7.61905 0,-15.2381 0,-22.85715 0,-1.28673 -0.43476,-7.7019 0,-8.57143 0.60234,-1.20467 2.11003,-1.73647 2.85714,-2.85714 1.73998,-2.60996 2.43881,-6.93369 5.71429,-8.57143 0.85183,-0.42591 2.0053,0.42592 2.85714,0 1.20468,-0.60234 1.65247,-2.2548 2.85714,-2.85714 0.86953,-0.43476 7.2847,0 8.57143,0 5.71429,0 11.42857,0 17.14286,0 16.19047,0 32.38095,0 48.57143,0 2,0 10.28571,0 14.28571,0 0.95238,0 2.18371,0.67344 2.85714,0 0.67344,-0.67343 0,-1.90476 0,-2.85714 0,-0.95238 0,-1.90476 0,-2.85715 0,-6.66666 0,-13.33333 0,-20 0,-0.95238 -0.67343,-2.1837 0,-2.85714 1.34687,-1.34687 4.36742,1.34687 5.71429,0 5.91153,-5.91153 -9.0336,0.23109 2.85714,-5.71428 0.85184,-0.42592 2.00531,0.42591 2.85715,0 1.20467,-0.60234 1.65246,-2.25481 2.85714,-2.85715 0.73871,-0.36935 15.11771,0 17.14286,0 2.85714,0 5.71428,0 8.57142,0 0.95239,0 1.90477,0 2.85715,0 0.95238,0 2.0053,0.42592 2.85714,0 1.20468,-0.60234 1.65247,-2.2548 2.85714,-2.85714 1.67393,-0.83696 12.18029,0.52636 14.28572,0 2.066,-0.5165 3.69398,-2.18371 5.71428,-2.85714 1.80702,-0.60234 3.80953,0 5.71429,0 4.7619,0 9.52381,0 14.28571,0 1.90476,0 4.36742,1.34687 5.71429,0 1.34687,-1.34687 0,-3.80953 0,-5.71429 0,-1.98726 -0.51662,-13.25247 0,-14.28571 0.60234,-1.20468 1.73648,-2.11004 2.85714,-2.85715 6.16162,-4.10774 10.28923,-2.85714 17.14286,-2.85714 0.95238,0 2.43122,-0.85183 2.85714,0 1.27775,2.55551 0,5.71429 0,8.57143 0,2.02515 0.36936,16.40414 0,17.14286 -0.60234,1.20467 -2.2548,1.65246 -2.85714,2.85714 -0.84289,1.68577 0.65508,6.60619 0,8.57143 -0.67344,2.0203 -2.18371,3.69398 -2.85714,5.71428 -0.60234,1.80702 1.34687,4.36742 0,5.71429 -0.67344,0.67344 -2.18371,-0.67343 -2.85715,0 -0.67343,0.67344 0.67344,2.18371 0,2.85714 -2.75852,2.75852 -4.22794,-4.57457 -5.71428,2.85715 -0.74711,3.73554 0.53875,7.65733 0,11.42857 -0.42592,2.98142 -2.02977,5.67561 -2.85715,8.57143 -1.07876,3.77568 -1.90476,7.61904 -2.85714,11.42857 -1.90476,7.61905 -4.17408,15.15612 -5.71428,22.85714 -2.64143,13.20715 -2.44765,26.93344 -5.71429,40 -1.2439,4.9756 -4.70846,9.25658 -5.71429,14.28571 -0.93388,4.66944 0,9.52381 0,14.28572 0,14.28571 0,28.57143 0,42.85714 0,6.66667 0,13.33334 0,20 0,0.95238 0,1.90476 0,2.85714 0,0.95239 0.67344,2.18371 0,2.85715 -0.67343,0.67343 -2.1837,-0.67344 -2.85714,0 -0.67343,0.67343 0.67344,2.18371 0,2.85714 -0.67343,0.67344 -2.18371,-0.67343 -2.85714,0 -1.34687,1.34687 0.60234,3.90727 0,5.71429 -0.67344,2.0203 -1.57939,4.01061 -2.85714,5.71428 -1.61625,2.15499 -4.09805,3.5593 -5.71429,5.71429 -1.27775,1.70367 -1.67586,3.94236 -2.85714,5.71428 -4.35868,6.53801 -2.26163,-1.78654 -5.71429,8.57143 -0.30117,0.90351 0,1.90476 0,2.85714 -0.95238,1.90477 -2.18371,3.69399 -2.85714,5.71429 -0.30117,0.90351 0.42592,2.00531 0,2.85714 -0.60234,1.20468 -2.25481,1.65247 -2.85714,2.85715 -0.42592,0.85183 0.23098,1.93319 0,2.85714 -0.73045,2.92177 -2.43123,5.59 -2.85715,8.57143 -0.53875,3.77123 0,7.61905 0,11.42857 0,4.7619 0,9.52381 0,14.28571 0,27.61905 0,55.2381 0,82.85715 0,18.09523 0,36.19047 0,54.28571 0,6.66667 0,13.33333 0,20 0,0.95238 0.67344,2.18371 0,2.85714 -0.67343,0.67344 -2.85714,0.95238 -2.85714,0 0,-0.95238 1.90476,0 2.85714,0 3.76471,0 1.94958,0 5.71429,0 7.68062,0 3.94856,-4.17333 8.57143,-5.71428 1.2323,-0.41077 18.88282,0 20,0 7.61904,0 15.23809,0 22.85714,0 0.95238,0 1.90476,0 2.85714,0 0.95238,0 2.18371,0.67343 2.85715,0 1.34687,-1.34687 -1.34687,-4.36742 0,-5.71429 1.50584,-1.50584 3.94236,-1.67586 5.71428,-2.85714 1.12067,-0.74711 1.65247,-2.25481 2.85714,-2.85714 0.85184,-0.42592 1.95364,0.30117 2.85715,0 9.84918,-3.28306 2.11646,-2.85715 8.57143,-2.85715 0.95238,0 3.80952,0 2.85714,0 -1.90476,0 -3.80953,0 -5.71429,0 -0.95238,0 -2.1837,0.67344 -2.85714,0 -0.67344,-0.67343 0,-1.90476 0,-2.85714 0,-1.90476 0,-3.80952 0,-5.71429 0,-7.61904 0,-15.23809 0,-22.85714 0,-37.14286 0,-74.28571 0,-111.42857 0,-7.61905 0,-15.23809 0,-22.85714 0,-5.71429 0,-11.42857 0,-17.14286 0,-0.95238 0,-3.80952 0,-2.85714 0,9.52381 -2.18133,19.30079 0,28.57143 1.75864,7.47422 7.4781,13.41587 11.42857,20 4.62261,7.70435 8.43852,16.03541 14.28572,22.85714 22.10133,25.78489 12.69579,10.36862 31.42857,22.85714 0.79243,0.52829 -2.43123,-0.85183 -2.85715,0 -0.85183,1.70367 0,3.80953 0,5.71429 0,9.52381 0,19.04762 0,28.57143 0,47.61904 0,95.23809 0,142.85714 0,74.74228 -9.57847,52.27158 17.14286,105.71428 0.42592,0.8518 0,-1.9048 0,-2.8571 0,-0.9524 0.42592,-2.0053 0,-2.8572 -3.53058,-7.0611 -2.85714,0.9862 -2.85714,-5.7143 0,-8.5714 0,-17.1428 0,-25.7143 0,-1.9047 0,-3.8095 0,-5.7142 0,-0.9524 -0.95238,-2.8572 0,-2.8572 0.95238,0 0,1.9048 0,2.8572 0,0.9523 0.95238,2.8571 0,2.8571 -1.34687,0 -1.65247,-2.2548 -2.85714,-2.8571 -0.85184,-0.426 -2.18371,0.6734 -2.85715,0 -0.67343,-0.6735 0,-1.9048 0,-2.8572 0,-0.9524 0,-1.9047 0,-2.8571 0,-11.4286 0,-22.8572 0,-34.2857 0,-1.9048 -0.85183,-4.0107 0,-5.7143 0.42592,-0.8519 2.00531,0.4259 2.85715,0 1.20467,-0.6024 1.65246,-2.2548 2.85714,-2.8572 0.85183,-0.4259 2.00531,0.426 2.85714,0 1.20468,-0.6023 1.90476,-1.90473 2.85714,-2.85711 4.7798,-4.77979 15.97153,-17.04902 22.85715,-20 2.62613,-1.12548 5.8609,0.90351 8.57143,0 0.9035,-0.30117 0,-1.90476 0,-2.85714 0,-0.95238 0,-1.90476 0,-2.85715 0,-5.71428 0,-11.42857 0,-17.14285 0,-1.90476 -0.46198,-3.8664 0,-5.71429 0.5165,-2.066 1.76147,-3.88818 2.85714,-5.71428 3.2201,-5.36685 10.20267,-13.8705 11.42857,-20 0.26414,-1.32072 -2.53048,-1.55049 -2.85714,-2.85715 -0.69296,-2.77183 0,-5.71428 0,-8.57143 0,-5.71428 0.47454,-11.44831 0,-17.14285 -0.48109,-5.7731 -2.4444,-11.36447 -2.85715,-17.14286 -0.54283,-7.59968 0,-15.23809 0,-22.85714 0,-15.2381 0,-30.47619 0,-45.71429 0,-10.47619 0,-20.95238 0,-31.42857 0,-4.54255 0.75011,-13.39234 0,-17.14286 -0.41764,-2.08823 -2.34064,-3.64828 -2.85714,-5.71428 -0.46197,-1.84789 0,-3.80953 0,-5.71429 0,-5.71428 0,-11.42857 0,-17.14286 0,-6.66666 0,-13.33333 0,-20 0,-1.90476 0,-3.80952 0,-5.71428 0,-1.90476 0.46197,-3.8664 0,-5.71429 -0.5165,-2.066 -2.18371,-3.69398 -2.85714,-5.71428 -0.30117,-0.90351 0,-1.90476 0,-2.85715 0,-3.2486 0.56752,-14.30523 0,-17.14285 -0.59064,-2.95321 -2.43123,-5.59001 -2.85714,-8.57143 -0.53875,-3.77124 0,-7.61905 0,-11.42857 0,-8.57143 0,-17.14286 0,-25.71429 0,-4.7619 0.33927,-9.53591 0,-14.28571 -0.61445,-8.60226 -2.40387,-17.10203 -2.85715,-25.71429 -0.50056,-9.51064 1.11278,-19.11285 0,-28.57143 -0.81011,-6.88594 -4.57443,-13.1609 -5.71428,-20 -2.14286,-12.85714 1.71428,-13.71428 0,-25.71428 -0.42592,-2.98143 -2.2665,-5.61822 -2.85715,-8.57143 -0.7471,-3.73555 0,-7.61905 0,-11.42857 0,-8.57143 0,-17.14286 0,-25.71429 0,-7.61905 0,-15.23809 0,-22.85714 0,-5.71429 0,-11.42857 0,-17.14286 0,-0.95238 -0.85183,-2.43122 0,-2.85714 6.50327,-3.25163 11.26517,5.55088 14.28572,8.57143 3.80952,3.80952 7.61905,7.61905 11.42857,11.42857 3.80952,3.80952 7.11859,8.19608 11.42857,11.42857 0.76191,0.57143 -0.67343,-2.18371 0,-2.85714 0.67344,-0.67344 1.95364,-0.30117 2.85714,0 2.02031,0.67343 3.88818,1.76148 5.71429,2.85714 2.94451,1.76671 5.31378,4.6284 8.57143,5.71429 2.71052,0.9035 6.19414,-1.58486 8.57143,0 1.58485,1.05657 0,3.80952 0,5.71428 0,2.85714 0,5.71429 0,8.57143 0,4.76191 0,9.52381 0,14.28571 0,4.76191 -0.59064,9.56059 0,14.28572 0.37355,2.98844 1.73863,5.77514 2.85714,8.57143 0.79091,1.97727 1.3513,4.20844 2.85714,5.71428 0.67344,0.67344 2.18371,-0.67343 2.85715,0 0.49309,0.4931 -0.62002,14.3528 0,17.14286 1.30665,5.87995 2.78907,11.87747 5.71428,17.14286 4.52704,8.14867 14.55651,12.21055 22.85714,14.28571 9.04081,2.2602 8.64827,-4.15124 14.28572,5.71429 4.08697,7.15219 12.87055,36.76534 14.28571,40 3.07763,7.03457 7.81524,13.22499 11.42857,20 4.00864,7.51619 7.20229,15.46114 11.42858,22.85714 0.47251,0.8269 0,-1.90476 0,-2.85714 0,-2.85715 0,-5.71429 0,-8.57143 0,-0.67894 -0.32019,-10.7882 0,-11.42857 0.60233,-1.20468 2.04902,-1.77965 2.85714,-2.85715 2.06031,-2.74708 3.51598,-5.93346 5.71428,-8.57142 2.58674,-3.10409 6.22288,-5.28345 8.57143,-8.57143 2.4756,-3.46584 2.7026,-8.41688 5.71429,-11.42857 6.20857,-6.20858 20,-4.61318 20,-17.14286 0,-0.95238 0.30117,-1.95364 0,-2.85714 -2.35516,-7.06547 -7.12887,-8.55278 -11.42857,-14.28572 -1.27776,-1.70367 -1.57939,-4.01061 -2.85715,-5.71428 -1.61624,-2.155 -3.80952,-3.80953 -5.71428,-5.71429 -1.90476,-1.90476 -3.5593,-4.09804 -5.71429,-5.71429 -1.70367,-1.27775 -4.01061,-1.57939 -5.71428,-2.85714 -4.30999,-3.23249 -7.11859,-8.19608 -11.42857,-11.42857 -1.70368,-1.27775 -4.20844,-1.3513 -5.71429,-2.85714 -1.50585,-1.50585 -1.3513,-4.20844 -2.85714,-5.71429 -1.50585,-1.50584 -4.53301,-1.08522 -5.71429,-2.85714 -1.05657,-1.58486 0.46197,-3.8664 0,-5.71429 -0.5165,-2.066 -2.18371,-3.69398 -2.85714,-5.71428 -0.30117,-0.90351 0,-1.90476 0,-2.85715 0,-2.39254 0.54319,-12.11295 0,-14.28571 -0.5165,-2.066 -1.90476,-3.80952 -2.85714,-5.71429 -4.221,-8.44198 -8.69254,-16.59415 -11.42858,-25.71428 -12.84365,-42.81219 7.34077,11.41418 -8.57142,-25.71429 -2.78782,-6.5049 -2.03549,-8.76751 -5.71429,-14.28571 -1.49422,-2.24133 -4.50961,-3.30493 -5.71429,-5.71429 -0.42591,-0.85183 0.42592,-2.0053 0,-2.85714 -0.60233,-1.20468 -2.2548,-1.65247 -2.85714,-2.85714 -0.42592,-0.85184 0,-1.90476 0,-2.85715 -0.95238,-0.95238 -2.2548,-1.65246 -2.85714,-2.85714 -0.42592,-0.85183 0.67343,-2.18371 0,-2.85714 -1.34687,-1.34687 -4.86245,1.70367 -5.71429,0 -0.87678,-1.75356 0.88558,-12.51457 0,-14.28572 -0.60234,-1.20467 -2.2548,-1.65246 -2.85714,-2.85714 -0.85184,-1.70367 1.34687,-4.36741 0,-5.71428 -0.67344,-0.67344 -2.18371,0.67343 -2.85714,0 -1.34687,-1.34687 0.85183,-4.01062 0,-5.71429 -0.60234,-1.20468 -2.25481,-1.65247 -2.85715,-2.85714 -0.42591,-0.85184 0,-1.90476 0,-2.85715 -0.95238,-0.95238 -2.2548,-1.65246 -2.85714,-2.85714 -0.42592,-0.85183 0.42592,-2.00531 0,-2.85714 -0.60234,-1.20468 -2.2548,-1.65247 -2.85714,-2.85714 -0.42592,-0.85184 0.67343,-2.18371 0,-2.85715 -0.67344,-0.67343 -2.18371,0.67344 -2.85714,0 -0.67344,-0.67343 0.67343,-2.1837 0,-2.85714 -5.91153,-5.91153 0.23108,9.0336 -5.71429,-2.85714 -0.42592,-0.85184 0.67344,-2.18371 0,-2.85715 -1.42857,-1.42857 -7.14286,1.42858 -8.57143,0 -0.67343,-0.67343 0.67344,-2.1837 0,-2.85714 -0.67343,-0.67343 -2.00531,0.42592 -2.85714,0 -6.8417,-3.42085 1.80055,-5.71428 -5.71429,-5.71428"
       id="path3336"
       inkscape:connector-curvature="0" />
    <path
       style="fill:none;fill-rule:evenodd;stroke:#000000;stroke-width:1px;stroke-linecap:butt;stroke-linejoin:miter;stroke-opacity:1"
       d="m 268.57143,95.219348 c 0,-3.809524 0.74711,-7.693026 0,-11.428572 -0.95722,-4.786077 -6.10194,-2.033979 -8.57143,-2.857143 -1.27775,-0.425917 -1.65247,-2.254804 -2.85714,-2.857143 -0.85184,-0.425917 -1.95364,0.30117 -2.85715,0 -2.0203,-0.673435 -3.69398,-2.183707 -5.71428,-2.857142 -0.90351,-0.30117 -2.18371,0.673435 -2.85714,0 -0.67344,-0.673435 0.67343,-2.183708 0,-2.857143 -0.22943,-0.229423 -12.03683,0 -14.28572,0 -1.28673,0 -7.7019,0.434763 -8.57143,0 C 221.65247,71.759866 221.20468,70.1074 220,69.505062 c -0.85184,-0.425918 -1.90476,0 -2.85714,0 -0.95238,0 -1.90476,0 -2.85715,0 -4.7619,0 -9.52381,0 -14.28571,0 -1.90476,0 -3.90727,0.602338 -5.71429,0 -1.90476,-0.952381 -3.80952,-1.904762 -5.71428,-2.857143 0,-0.952381 0.67343,-2.183708 0,-2.857143 -0.67344,-0.673435 -2.00531,0.425918 -2.85714,0 -1.20468,-0.602338 -1.65247,-2.254804 -2.85715,-2.857143 -0.75126,-0.37563 -9.93451,0 -11.42857,0 -2.45237,0 -15.4712,-0.557217 -17.14286,0 -1.93471,0.644905 -6.38889,7.480159 -8.57142,8.571429 -0.85184,0.425918 -2.00531,-0.425918 -2.85715,0 -1.20467,0.602338 -1.65246,2.254804 -2.85714,2.857143 -3.94102,1.97051 -2.55564,-3.460157 -5.71429,2.857143 -0.85183,1.70367 0.85184,4.010614 0,5.714285 -4.35651,8.713032 -2.26504,-5.225555 -5.71428,8.571429 -0.46197,1.84789 0,3.809524 0,5.714286 0,6.666662 0,13.333332 0,20.000002 0,17.14285 0,34.28571 0,51.42857 0,0.95238 -0.67344,-2.18371 0,-2.85714 0.67343,-0.67344 1.90476,0 2.85714,0 5.71429,0 11.42857,0 17.14286,0 1.87745,0 6.95943,-0.53734 8.57143,0 4.86554,1.62184 9.59902,3.63131 14.28571,5.71428 3.89209,1.72982 7.38796,4.36742 11.42857,5.71429 0.77941,0.2598 -5.90476,-4.19048 -2.85714,-5.71429 2.55551,-1.27775 5.71429,0 8.57143,0 9.52381,0 19.04762,0 28.57143,0 7.61904,0 15.23809,0 22.85714,0 0.95238,0 1.90476,0 2.85714,0 0.95238,0 2.43123,0.85184 2.85715,0 0.85183,-1.70367 0,-3.80952 0,-5.71428 0,-5.71429 0,-11.42858 0,-17.14286 0,-1.90476 0,-3.80952 0,-5.71429 0,-0.95238 -0.42592,-2.0053 0,-2.85714 0.60233,-1.20468 1.90476,-1.90476 2.85714,-2.85714 0.95238,-0.95238 1.65246,-2.25481 2.85714,-2.85715 0.85184,-0.42591 2.00531,0.42592 2.85714,0 1.20468,-0.60233 1.73648,-2.11003 2.85715,-2.85714 1.77192,-1.18128 4.20844,-1.35129 5.71428,-2.85714 0.67344,-0.67344 -0.85183,-2.43123 0,-2.85714 1.70367,-0.85184 4.01062,0.85183 5.71429,0 0.85183,-0.42592 -0.42592,-2.00531 0,-2.85715 0.60234,-1.20467 1.65246,-2.2548 2.85714,-2.85714 0.85184,-0.42592 2.18371,0.67344 2.85714,0 0.67344,-0.67343 -0.67343,-2.18371 0,-2.85714 0.67344,-0.67344 2.00531,0.42592 2.85715,0 0.7586,-0.3793 8.19212,-7.81283 8.57143,-8.57143 0.42591,-0.85184 -0.67344,-2.18371 0,-2.85714 1.34687,-1.34687 4.36741,1.34687 5.71428,0 0.67344,-0.67344 0,-1.90477 0,-2.85715 0,-1.286733 0.43476,-7.7019 0,-8.571425 -0.60234,-1.204677 -1.90476,-1.904762 -2.85714,-2.857143 -0.95238,-0.952381 -1.90476,-1.904762 -2.85714,-2.857143 -9.47595,-9.47595 1.34687,2.69374 -2.85715,-5.714286 C 282.2548,79.728956 280.95238,79.028871 280,78.07649 c -4.14799,-4.147991 -3.09297,-2.857142 -8.57143,-2.857142"
       id="path3338"
       inkscape:connector-curvature="0" />
    <path
       style="fill:none;fill-rule:evenodd;stroke:#000000;stroke-width:1px;stroke-linecap:butt;stroke-linejoin:miter;stroke-opacity:1"
       d="M 602.85714,258.07649 648.57143,89.505062 c 4.7619,0 9.52381,0 14.28571,0 0.95238,0 2.00531,-0.425918 2.85715,0 1.18214,0.591071 7.76407,7.360391 8.57142,8.571428 2.36257,3.54385 3.0536,8.10271 5.71429,11.42857 4.20692,5.25865 9.52381,9.52381 14.28571,14.28572 1.90477,1.90476 3.80953,3.80952 5.71429,5.71428 0.95238,0.95238 2.2548,1.65247 2.85714,2.85714 0.51026,1.02052 0,16.48152 0,17.14286 0,14.28572 0,28.57143 0,42.85714 0,4.76191 0,9.52381 0,14.28572 0,3.80952 -0.53875,7.65733 0,11.42857 2.78672,19.50706 2.03626,-0.4264 5.71429,14.28571 0.69296,2.77184 0,5.71429 0,8.57143 0,6.66667 0,13.33334 0,20 0,0.95238 0.67343,-2.1837 0,-2.85714 -0.67344,-0.67343 -1.90476,0 -2.85714,0 -7.61905,0 -15.2381,0 -22.85715,0 -17.14285,0 -34.28571,0 -51.42857,0"
       id="path3340"
       inkscape:connector-curvature="0" />
  </g>
</svg>
