<?xml version="1.0" encoding="UTF-8" standalone="no"?>
<!-- Created with Inkscape (http://www.inkscape.org/) -->

<svg
   xmlns:dc="http://purl.org/dc/elements/1.1/"
   xmlns:cc="http://creativecommons.org/ns#"
   xmlns:rdf="http://www.w3.org/1999/02/22-rdf-syntax-ns#"
   xmlns:svg="http://www.w3.org/2000/svg"
   xmlns="http://www.w3.org/2000/svg"
   xmlns:sodipodi="http://sodipodi.sourceforge.net/DTD/sodipodi-0.dtd"
   xmlns:inkscape="http://www.inkscape.org/namespaces/inkscape"
   width="210mm"
   height="297mm"
   viewBox="0 0 744.09448819 1052.3622047"
   id="svg2"
   version="1.1"
   inkscape:version="0.91 r13725"
   sodipodi:docname="monFichier.svg">
  <defs
     id="defs4" />
  <sodipodi:namedview
     id="base"
     pagecolor="#ffffff"
     bordercolor="#666666"
     borderopacity="1.0"
     inkscape:pageopacity="0.0"
     inkscape:pageshadow="2"
     inkscape:zoom="0.98994949"
     inkscape:cx="202.82824"
     inkscape:cy="757.79391"
     inkscape:document-units="px"
     inkscape:current-layer="layer1"
     showgrid="false"
     inkscape:window-width="1920"
     inkscape:window-height="1052"
     inkscape:window-x="1920"
     inkscape:window-y="0"
     inkscape:window-maximized="1" />
  <metadata
     id="metadata7">
    <rdf:RDF>
      <cc:Work
         rdf:about="">
        <dc:format>image/svg+xml</dc:format>
        <dc:type
           rdf:resource="http://purl.org/dc/dcmitype/StillImage" />
        <dc:title></dc:title>
      </cc:Work>
    </rdf:RDF>
  </metadata>
  <g
     inkscape:label="Calque 1"
     inkscape:groupmode="layer"
     id="layer1">
    <path
       style="color:#000000;font-style:normal;font-variant:normal;font-weight:normal;font-stretch:normal;font-size:medium;line-height:normal;font-family:sans-serif;text-indent:0;text-align:start;text-decoration:none;text-decoration-line:none;text-decoration-style:solid;text-decoration-color:#000000;letter-spacing:normal;word-spacing:normal;text-transform:none;direction:ltr;block-progression:tb;writing-mode:lr-tb;baseline-shift:baseline;text-anchor:start;white-space:normal;clip-rule:nonzero;display:inline;overflow:visible;visibility:visible;opacity:1;isolation:auto;mix-blend-mode:normal;color-interpolation:sRGB;color-interpolation-filters:linearRGB;solid-color:#000000;solid-opacity:1;fill-opacity:1;fill-rule:nonzero;stroke:none;stroke-width:1;stroke-linecap:butt;stroke-linejoin:miter;stroke-miterlimit:4;stroke-dasharray:none;stroke-dashoffset:0;stroke-opacity:1;color-rendering:auto;image-rendering:auto;shape-rendering:auto;text-rendering:auto;enable-background:accumulate"
       d="m 328.29883,132.62305 c -48.18922,0 -91.77302,30.4353 -123.27735,79.52343 -31.50432,49.08814 -50.96875,116.85305 -50.96875,191.69727 0,74.84422 19.46443,142.61108 50.96875,191.69922 31.50433,49.08814 75.08813,79.52148 123.27735,79.52148 48.18921,0 91.77497,-30.43334 123.27929,-79.52148 31.50433,-49.08814 50.9668,-116.855 50.9668,-191.69922 0,-74.84422 -19.46247,-142.60913 -50.9668,-191.69727 -31.50432,-49.08813 -75.09008,-79.52343 -123.27929,-79.52343 z m 0,1 c 47.76817,0 91.05806,30.16894 122.4375,79.0625 31.37944,48.89355 50.80859,116.4874 50.80859,191.1582 0,74.6708 -19.42915,142.26465 -50.80859,191.1582 -31.37944,48.89356 -74.66933,79.0625 -122.4375,79.0625 -47.76818,0 -91.05611,-30.16894 -122.43555,-79.0625 -31.37944,-48.89355 -50.81055,-116.4874 -50.81055,-191.1582 0,-74.6708 19.43111,-142.26465 50.81055,-191.1582 31.37944,-48.89356 74.66737,-79.0625 122.43555,-79.0625 z"
       id="path3336"
       inkscape:connector-curvature="0" />
  </g>
</svg>
