<?xml version="1.0" encoding="UTF-8" standalone="no"?>
<!-- Created with Inkscape (http://www.inkscape.org/) -->

<svg
   xmlns:dc="http://purl.org/dc/elements/1.1/"
   xmlns:cc="http://creativecommons.org/ns#"
   xmlns:rdf="http://www.w3.org/1999/02/22-rdf-syntax-ns#"
   xmlns:svg="http://www.w3.org/2000/svg"
   xmlns="http://www.w3.org/2000/svg"
   xmlns:sodipodi="http://sodipodi.sourceforge.net/DTD/sodipodi-0.dtd"
   xmlns:inkscape="http://www.inkscape.org/namespaces/inkscape"
   inkscape:version="0.91 r13725"
   version="1.1"
   id="svg2"
   viewBox="0 0 744.09448819 1052.3622047"
   height="297mm"
   width="210mm"
   sodipodi:docname="boxify.svg">
  <sodipodi:namedview
     showborder="false"
     inkscape:guide-bbox="true"
     showguides="true"
     inkscape:window-maximized="0"
     inkscape:window-y="0"
     inkscape:window-x="0"
     inkscape:window-height="1163"
     inkscape:window-width="1906"
     showgrid="false"
     inkscape:current-layer="layer1"
     inkscape:document-units="mm"
     inkscape:cy="77.388348"
     inkscape:cx="3537.0582"
     inkscape:zoom="0.35000001"
     inkscape:pageshadow="2"
     inkscape:pageopacity="0.0"
     borderopacity="1.0"
     bordercolor="#666666"
     pagecolor="#ffffff"
     id="base">
    <sodipodi:guide
       position="-1194.2857,645.7143"
       orientation="1,0"
       id="guide4154" />
    <sodipodi:guide
       position="-377.14286,580.00001"
       orientation="1,0"
       id="guide4156" />
    <sodipodi:guide
       position="-662.85715,868.57145"
       orientation="0,1"
       id="guide4158" />
    <sodipodi:guide
       position="-722.85715,185.71429"
       orientation="0,1"
       id="guide4160" />
    <sodipodi:guide
       position="-662.85715,868.57145"
       orientation="1,0"
       id="guide4162" />
    <sodipodi:guide
       position="-1194.2857,-183.84777"
       orientation="0,1"
       id="guide4176" />
    <sodipodi:guide
       position="-1194.2857,-262.63967"
       orientation="0,1"
       id="guide4178" />
    <sodipodi:guide
       position="-929.34034,1107.1272"
       orientation="1,0"
       id="guide5751" />
    <sodipodi:guide
       position="-810.14234,-545.48238"
       orientation="0,1"
       id="guide24758" />
    <sodipodi:guide
       id="guide42173"
       orientation="1,0"
       position="294.28571,362.85715" />
    <sodipodi:guide
       id="guide42175"
       orientation="1,0"
       position="1402.8571,348.57143" />
    <sodipodi:guide
       id="guide42177"
       orientation="1,0"
       position="1082.8571,397.14286" />
    <sodipodi:guide
       id="guide49831"
       orientation="1,0"
       position="1169.7566,1234.4064" />
    <sodipodi:guide
       id="guide76157"
       orientation="0,1"
       position="628.31488,593.9697" />
    <sodipodi:guide
       id="guide81394"
       orientation="0,1"
       position="-1042.4774,-418.20316" />
    <sodipodi:guide
       id="guide105420"
       orientation="1,0"
       position="1319.2592,539.42147" />
    <sodipodi:guide
       id="guide4166"
       orientation="1,0"
       position="2020.3051,1119.249" />
    <sodipodi:guide
       id="guide4168"
       orientation="1,0"
       position="3155.7165,1034.3962" />
    <sodipodi:guide
       id="guide4170"
       orientation="1,0"
       position="2331.432,1155.6145" />
    <sodipodi:guide
       id="guide5108"
       orientation="1,0"
       position="2331.432,868.57145" />
    <sodipodi:guide
       id="guide5110"
       orientation="1,0"
       position="2331.432,868.57145" />
    <sodipodi:guide
       id="guide5112"
       orientation="1,0"
       position="2246.5792,775.79715" />
    <sodipodi:guide
       id="guide5114"
       orientation="1,0"
       position="2424.3661,868.57145" />
  </sodipodi:namedview>
  <defs
     id="defs4" />
  <metadata
     id="metadata7">
    <rdf:RDF>
      <cc:Work
         rdf:about="">
        <dc:format>image/svg+xml</dc:format>
        <dc:type
           rdf:resource="http://purl.org/dc/dcmitype/StillImage" />
        <dc:title />
      </cc:Work>
    </rdf:RDF>
  </metadata>
  <g
     inkscape:label="Layer 1"
     inkscape:groupmode="layer"
     id="layer1">
    <ellipse
       ry="207.14285"
       rx="290"
       cy="2362.8728"
       cx="6186.8423"
       id="path42898"
       style="opacity:1;fill:none;fill-opacity:1;stroke:#ff007e;stroke-width:6.66850376;stroke-linecap:round;stroke-miterlimit:4;stroke-dasharray:none;stroke-opacity:1" />
    <ellipse
       ry="115.71429"
       rx="117.85715"
       cy="2130.9336"
       cx="-1312.1428"
       id="path77194"
       style="opacity:1;fill:none;fill-opacity:1;stroke:#ff007e;stroke-width:5.6692915;stroke-linecap:round;stroke-miterlimit:4;stroke-dasharray:none;stroke-opacity:1" />
    <g
       id="g81402">
      <path
         inkscape:connector-curvature="0"
         id="path24760"
         d="m -1194.2857,1236.2099 0,361.6347 817.14284,0 0,-361.6347 z"
         style="fill:none;fill-rule:evenodd;stroke:#000000;stroke-width:5.66928877;stroke-linecap:butt;stroke-linejoin:miter;stroke-miterlimit:4;stroke-dasharray:none;stroke-opacity:1" />
      <path
         style="fill:none;fill-rule:evenodd;stroke:#000000;stroke-width:5.66928877;stroke-linecap:butt;stroke-linejoin:miter;stroke-opacity:1;stroke-miterlimit:4;stroke-dasharray:none"
         d="m -1194.2857,1315.0018 817.14284,0"
         id="path81398"
         inkscape:connector-curvature="0" />
      <path
         style="fill:none;fill-rule:evenodd;stroke:#000000;stroke-width:5.66928877;stroke-linecap:butt;stroke-linejoin:miter;stroke-opacity:1;stroke-miterlimit:4;stroke-dasharray:none"
         d="m -377.14286,1470.5653 -817.14284,0"
         id="path81400"
         inkscape:connector-curvature="0" />
    </g>
    <g
       id="g89252">
      <path
         inkscape:connector-curvature="0"
         id="rect4191"
         d="m -1194.2856,183.79077 817.14278,0 0,682.85712 -817.14278,0 z"
         style="opacity:1;fill:none;fill-opacity:1;stroke:#000000;stroke-width:7.08661417;stroke-linecap:round;stroke-miterlimit:4;stroke-dasharray:none;stroke-opacity:1" />
      <path
         style="fill:none;fill-rule:evenodd;stroke:#000000;stroke-width:7.08661417;stroke-linecap:butt;stroke-linejoin:miter;stroke-opacity:1;stroke-miterlimit:4;stroke-dasharray:none"
         d="m -929.34033,183.79075 0,682.85715"
         id="path89248"
         inkscape:connector-curvature="0" />
      <path
         style="fill:none;fill-rule:evenodd;stroke:#000000;stroke-width:7.08661417;stroke-linecap:butt;stroke-linejoin:miter;stroke-opacity:1;stroke-miterlimit:4;stroke-dasharray:none"
         d="m -662.85714,866.6479 0,-682.85715"
         id="path89250"
         inkscape:connector-curvature="0" />
    </g>
    <g
       id="g105426">
      <path
         style="fill:none;fill-rule:evenodd;stroke:#000000;stroke-width:6.02362205;stroke-linecap:butt;stroke-linejoin:miter;stroke-miterlimit:4;stroke-dasharray:none;stroke-opacity:1"
         d="m 294.28571,183.79075 0,1052.41915 1108.57139,0 0,-1052.41915 z"
         id="path42179"
         inkscape:connector-curvature="0" />
      <path
         style="fill:none;fill-rule:evenodd;stroke:#000000;stroke-width:6.02362205;stroke-linecap:butt;stroke-linejoin:miter;stroke-miterlimit:4;stroke-dasharray:none;stroke-opacity:1"
         d="m 1082.8571,183.79075 0,1052.41915"
         id="path42181"
         inkscape:connector-curvature="0" />
      <path
         style="fill:none;fill-rule:evenodd;stroke:#000000;stroke-width:6.02362205;stroke-linecap:butt;stroke-linejoin:miter;stroke-miterlimit:4;stroke-dasharray:none;stroke-opacity:1"
         d="m 1082.8571,866.6479 320,0"
         id="path42183"
         inkscape:connector-curvature="0" />
      <path
         style="fill:none;fill-rule:evenodd;stroke:#000000;stroke-width:6.02362205;stroke-linecap:butt;stroke-linejoin:miter;stroke-miterlimit:4;stroke-dasharray:none;stroke-opacity:1"
         d="m 1082.8571,458.3925 -788.57139,0"
         id="path76159"
         inkscape:connector-curvature="0" />
      <path
         style="fill:none;fill-rule:evenodd;stroke:#000000;stroke-width:6.02362205;stroke-linecap:butt;stroke-linejoin:miter;stroke-opacity:1;stroke-miterlimit:4;stroke-dasharray:none"
         d="m 1169.7566,866.6479 0,369.562"
         id="path105422"
         inkscape:connector-curvature="0" />
      <path
         style="fill:none;fill-rule:evenodd;stroke:#000000;stroke-width:6.02362205;stroke-linecap:butt;stroke-linejoin:miter;stroke-opacity:1;stroke-miterlimit:4;stroke-dasharray:none"
         d="m 1319.2592,1236.2099 0,-369.562"
         id="path105424"
         inkscape:connector-curvature="0" />
    </g>
    <g
       id="g5586">
      <path
         style="fill:none;fill-rule:evenodd;stroke:#000000;stroke-width:7.08661417;stroke-linecap:butt;stroke-linejoin:miter;stroke-miterlimit:4;stroke-dasharray:none;stroke-opacity:1"
         d="m 2020.3051,183.79077 0,1052.41923 1135.4114,0 0,-1052.41923 z"
         id="path4172"
         inkscape:connector-curvature="0" />
      <path
         style="fill:none;fill-rule:evenodd;stroke:#000000;stroke-width:7.08661417;stroke-linecap:butt;stroke-linejoin:miter;stroke-miterlimit:4;stroke-dasharray:none;stroke-opacity:1"
         d="m 2331.432,183.79077 0,1052.41923"
         id="path4174"
         inkscape:connector-curvature="0" />
      <path
         style="fill:none;fill-rule:evenodd;stroke:#000000;stroke-width:7.08661417;stroke-linecap:butt;stroke-linejoin:miter;stroke-miterlimit:4;stroke-dasharray:none;stroke-opacity:1"
         d="m 2020.3051,458.39252 311.1269,0"
         id="path4186"
         inkscape:connector-curvature="0" />
      <path
         style="fill:none;fill-rule:evenodd;stroke:#000000;stroke-width:7.08661417;stroke-linecap:butt;stroke-linejoin:miter;stroke-miterlimit:4;stroke-dasharray:none;stroke-opacity:1"
         d="m 3155.7165,458.39252 -824.2845,0"
         id="path4188"
         inkscape:connector-curvature="0" />
      <path
         style="fill:none;fill-rule:evenodd;stroke:#000000;stroke-width:7.08661417;stroke-linecap:butt;stroke-linejoin:miter;stroke-miterlimit:4;stroke-dasharray:none;stroke-opacity:1"
         d="m 2246.5792,183.79075 0,274.60175"
         id="path5120"
         inkscape:connector-curvature="0" />
      <path
         style="fill:none;fill-rule:evenodd;stroke:#000000;stroke-width:7.08661417;stroke-linecap:butt;stroke-linejoin:miter;stroke-miterlimit:4;stroke-dasharray:none;stroke-opacity:1"
         d="m 2424.3661,183.79075 0,274.60175"
         id="path5134"
         inkscape:connector-curvature="0" />
      <path
         style="fill:none;fill-rule:evenodd;stroke:#000000;stroke-width:7.08661417;stroke-linecap:butt;stroke-linejoin:miter;stroke-opacity:1;stroke-miterlimit:4;stroke-dasharray:none"
         d="m 2424.3661,1236.2099 0,-777.8174"
         id="path5578"
         inkscape:connector-curvature="0" />
    </g>
    <g
       id="g5648"
       inkscape:label="Boxify1135.4114x212.598425196"
       transform="translate(2045.10824961,1211.40685039)"
       style="stroke:#ff0000;stroke-opacity:1;stroke-width:3.47952756;stroke-miterlimit:4;stroke-dasharray:none">
      <path
         id="path5650"
         style="stroke:#ff0000;stroke-width:3.47952756;fill:none;stroke-opacity:1;stroke-miterlimit:4;stroke-dasharray:none"
         d="M0.000,0.000L0.000,0.000L24.129,0.000L24.129,24.803L48.258,24.803L48.258,0.000L72.387,0.000L72.387,24.803L96.516,24.803L96.516,0.000L120.645,0.000L120.645,24.803L144.774,24.803L144.774,0.000L168.903,0.000L168.903,24.803L193.032,24.803L193.032,0.000L217.161,0.000L217.161,24.803L241.290,24.803L241.290,0.000L265.419,0.000L265.419,24.803L289.548,24.803L289.548,0.000L313.677,0.000L313.677,24.803L337.806,24.803L337.806,0.000L361.935,0.000L361.935,24.803L386.064,24.803L386.064,0.000L410.193,0.000L410.193,24.803L434.322,24.803L434.322,0.000L458.451,0.000L458.451,24.803L482.580,24.803L482.580,0.000L506.709,0.000L506.709,24.803L530.838,24.803L530.838,0.000L554.967,0.000L554.967,24.803L579.096,24.803L579.096,0.000L603.225,0.000L603.225,24.803L627.354,24.803L627.354,0.000L651.483,0.000L651.483,24.803L675.612,24.803L675.612,0.000L699.741,0.000L699.741,24.803L723.870,24.803L723.870,0.000L747.999,0.000L747.999,24.803L772.128,24.803L772.128,0.000L796.257,0.000L796.257,24.803L820.386,24.803L820.386,0.000L844.515,0.000L844.515,24.803L868.644,24.803L868.644,0.000L892.773,0.000L892.773,24.803L916.902,24.803L916.902,0.000L941.031,0.000L941.031,24.803L965.160,24.803L965.160,0.000L989.289,0.000L989.289,24.803L1013.418,24.803L1013.418,0.000L1037.547,0.000L1037.547,24.803L1061.676,24.803L1061.676,0.000L1085.805,0.000L1085.805,0.000L1085.805,-23.321L1110.608,-23.321L1110.608,-46.642L1085.805,-46.642L1085.805,-69.964L1110.608,-69.964L1110.608,-93.285L1085.805,-93.285L1085.805,-116.606L1110.608,-116.606L1110.608,-139.927L1085.805,-139.927L1085.805,-163.249L1110.608,-163.249L1110.608,-186.570L1085.805,-186.570L1085.805,-209.891L1110.608,-209.891L1110.608,-233.212L1085.805,-233.212L1085.805,-256.534L1110.608,-256.534L1110.608,-279.855L1085.805,-279.855L1085.805,-303.176L1110.608,-303.176L1110.608,-326.497L1085.805,-326.497L1085.805,-349.818L1110.608,-349.818L1110.608,-373.140L1085.805,-373.140L1085.805,-396.461L1110.608,-396.461L1110.608,-419.782L1085.805,-419.782L1085.805,-443.103L1110.608,-443.103L1110.608,-466.425L1085.805,-466.425L1085.805,-489.746L1110.608,-489.746L1110.608,-513.067L1085.805,-513.067L1085.805,-536.388L1110.608,-536.388L1110.608,-559.710L1085.805,-559.710L1085.805,-583.031L1110.608,-583.031L1110.608,-606.352L1085.805,-606.352L1085.805,-629.673L1110.608,-629.673L1110.608,-652.994L1085.805,-652.994L1085.805,-676.316L1110.608,-676.316L1110.608,-699.637L1085.805,-699.637L1085.805,-722.958L1110.608,-722.958L1110.608,-746.279L1085.805,-746.279L1085.805,-769.601L1110.608,-769.601L1110.608,-792.922L1085.805,-792.922L1085.805,-816.243L1110.608,-816.243L1110.608,-839.564L1085.805,-839.564L1085.805,-862.886L1110.608,-862.886L1110.608,-886.207L1085.805,-886.207L1085.805,-909.528L1110.608,-909.528L1110.608,-932.849L1085.805,-932.849L1085.805,-956.170L1110.608,-956.170L1110.608,-979.492L1085.805,-979.492L1085.805,-1002.813L1085.805,-1002.813L1061.676,-1002.813L1061.676,-1027.616L1037.547,-1027.616L1037.547,-1002.813L1013.418,-1002.813L1013.418,-1027.616L989.289,-1027.616L989.289,-1002.813L965.160,-1002.813L965.160,-1027.616L941.031,-1027.616L941.031,-1002.813L916.902,-1002.813L916.902,-1027.616L892.773,-1027.616L892.773,-1002.813L868.644,-1002.813L868.644,-1027.616L844.515,-1027.616L844.515,-1002.813L820.386,-1002.813L820.386,-1027.616L796.257,-1027.616L796.257,-1002.813L772.128,-1002.813L772.128,-1027.616L747.999,-1027.616L747.999,-1002.813L723.870,-1002.813L723.870,-1027.616L699.741,-1027.616L699.741,-1002.813L675.612,-1002.813L675.612,-1027.616L651.483,-1027.616L651.483,-1002.813L627.354,-1002.813L627.354,-1027.616L603.225,-1027.616L603.225,-1002.813L579.096,-1002.813L579.096,-1027.616L554.967,-1027.616L554.967,-1002.813L530.838,-1002.813L530.838,-1027.616L506.709,-1027.616L506.709,-1002.813L482.580,-1002.813L482.580,-1027.616L458.451,-1027.616L458.451,-1002.813L434.322,-1002.813L434.322,-1027.616L410.193,-1027.616L410.193,-1002.813L386.064,-1002.813L386.064,-1027.616L361.935,-1027.616L361.935,-1002.813L337.806,-1002.813L337.806,-1027.616L313.677,-1027.616L313.677,-1002.813L289.548,-1002.813L289.548,-1027.616L265.419,-1027.616L265.419,-1002.813L241.290,-1002.813L241.290,-1027.616L217.161,-1027.616L217.161,-1002.813L193.032,-1002.813L193.032,-1027.616L168.903,-1027.616L168.903,-1002.813L144.774,-1002.813L144.774,-1027.616L120.645,-1027.616L120.645,-1002.813L96.516,-1002.813L96.516,-1027.616L72.387,-1027.616L72.387,-1002.813L48.258,-1002.813L48.258,-1027.616L24.129,-1027.616L24.129,-1002.813L0.000,-1002.813L0.000,-1002.813L0.000,-979.492L-24.803,-979.492L-24.803,-956.170L0.000,-956.170L0.000,-932.849L-24.803,-932.849L-24.803,-909.528L0.000,-909.528L0.000,-886.207L-24.803,-886.207L-24.803,-862.886L0.000,-862.886L0.000,-839.564L-24.803,-839.564L-24.803,-816.243L0.000,-816.243L0.000,-792.922L-24.803,-792.922L-24.803,-769.601L0.000,-769.601L0.000,-746.279L-24.803,-746.279L-24.803,-722.958L0.000,-722.958L0.000,-699.637L-24.803,-699.637L-24.803,-676.316L0.000,-676.316L0.000,-652.994L-24.803,-652.994L-24.803,-629.673L0.000,-629.673L0.000,-606.352L-24.803,-606.352L-24.803,-583.031L0.000,-583.031L0.000,-559.710L-24.803,-559.710L-24.803,-536.388L0.000,-536.388L0.000,-513.067L-24.803,-513.067L-24.803,-489.746L0.000,-489.746L0.000,-466.425L-24.803,-466.425L-24.803,-443.103L0.000,-443.103L0.000,-419.782L-24.803,-419.782L-24.803,-396.461L0.000,-396.461L0.000,-373.140L-24.803,-373.140L-24.803,-349.818L0.000,-349.818L0.000,-326.497L-24.803,-326.497L-24.803,-303.176L0.000,-303.176L0.000,-279.855L-24.803,-279.855L-24.803,-256.534L0.000,-256.534L0.000,-233.212L-24.803,-233.212L-24.803,-209.891L0.000,-209.891L0.000,-186.570L-24.803,-186.570L-24.803,-163.249L0.000,-163.249L0.000,-139.927L-24.803,-139.927L-24.803,-116.606L0.000,-116.606L0.000,-93.285L-24.803,-93.285L-24.803,-69.964L0.000,-69.964L0.000,-46.642L-24.803,-46.642L-24.803,-23.321L0.000,-23.321L0.000,0.000" />
      <path
         id="path5652"
         style="stroke:#ff0000;stroke-width:3.47952756;fill:none;stroke-opacity:1;stroke-miterlimit:4;stroke-dasharray:none"
         d="M-24.803,-1002.813L-24.803,-1002.813L24.129,-1002.813L24.129,-1027.616L48.258,-1027.616L48.258,-1002.813L72.387,-1002.813L72.387,-1027.616L96.516,-1027.616L96.516,-1002.813L120.645,-1002.813L120.645,-1027.616L144.774,-1027.616L144.774,-1002.813L168.903,-1002.813L168.903,-1027.616L193.032,-1027.616L193.032,-1002.813L217.161,-1002.813L217.161,-1027.616L241.290,-1027.616L241.290,-1002.813L265.419,-1002.813L265.419,-1027.616L289.548,-1027.616L289.548,-1002.813L313.677,-1002.813L313.677,-1027.616L337.806,-1027.616L337.806,-1002.813L361.935,-1002.813L361.935,-1027.616L386.064,-1027.616L386.064,-1002.813L410.193,-1002.813L410.193,-1027.616L434.322,-1027.616L434.322,-1002.813L458.451,-1002.813L458.451,-1027.616L482.580,-1027.616L482.580,-1002.813L506.709,-1002.813L506.709,-1027.616L530.838,-1027.616L530.838,-1002.813L554.967,-1002.813L554.967,-1027.616L579.096,-1027.616L579.096,-1002.813L603.225,-1002.813L603.225,-1027.616L627.354,-1027.616L627.354,-1002.813L651.483,-1002.813L651.483,-1027.616L675.612,-1027.616L675.612,-1002.813L699.741,-1002.813L699.741,-1027.616L723.870,-1027.616L723.870,-1002.813L747.999,-1002.813L747.999,-1027.616L772.128,-1027.616L772.128,-1002.813L796.257,-1002.813L796.257,-1027.616L820.386,-1027.616L820.386,-1002.813L844.515,-1002.813L844.515,-1027.616L868.644,-1027.616L868.644,-1002.813L892.773,-1002.813L892.773,-1027.616L916.902,-1027.616L916.902,-1002.813L941.031,-1002.813L941.031,-1027.616L965.160,-1027.616L965.160,-1002.813L989.289,-1002.813L989.289,-1027.616L1013.418,-1027.616L1013.418,-1002.813L1037.547,-1002.813L1037.547,-1027.616L1061.676,-1027.616L1061.676,-1002.813L1085.805,-1002.813L1085.805,-1002.813L1085.805,-1054.444L1110.608,-1054.444L1110.608,-1081.272L1085.805,-1081.272L1085.805,-1108.100L1110.608,-1108.100L1110.608,-1134.928L1085.805,-1134.928L1085.805,-1161.756L1110.608,-1161.756L1110.608,-1188.583L1085.805,-1188.583L1085.805,-1215.411L1085.805,-1215.411L-24.803,-1215.411L-24.803,-1215.411L-24.803,-1188.583L-0.000,-1188.583L-0.000,-1161.756L-24.803,-1161.756L-24.803,-1134.928L-0.000,-1134.928L-0.000,-1108.100L-24.803,-1108.100L-24.803,-1081.272L-0.000,-1081.272L-0.000,-1054.444L-24.803,-1054.444L-24.803,-1002.813" />
      <path
         id="path5654"
         style="stroke:#ff0000;stroke-width:3.47952756;fill:none;stroke-opacity:1;stroke-miterlimit:4;stroke-dasharray:none"
         d="M0.000,212.598L0.000,212.598L1110.608,212.598L1110.608,212.598L1110.608,185.771L1085.805,185.771L1085.805,158.943L1110.608,158.943L1110.608,132.115L1085.805,132.115L1085.805,105.287L1110.608,105.287L1110.608,78.459L1085.805,78.459L1085.805,51.631L1110.608,51.631L1110.608,0.000L1110.608,0.000L1061.676,0.000L1061.676,24.803L1037.547,24.803L1037.547,0.000L1013.418,0.000L1013.418,24.803L989.289,24.803L989.289,0.000L965.160,0.000L965.160,24.803L941.031,24.803L941.031,0.000L916.902,0.000L916.902,24.803L892.773,24.803L892.773,0.000L868.644,0.000L868.644,24.803L844.515,24.803L844.515,0.000L820.386,0.000L820.386,24.803L796.257,24.803L796.257,0.000L772.128,0.000L772.128,24.803L747.999,24.803L747.999,0.000L723.870,0.000L723.870,24.803L699.741,24.803L699.741,0.000L675.612,0.000L675.612,24.803L651.483,24.803L651.483,0.000L627.354,0.000L627.354,24.803L603.225,24.803L603.225,0.000L579.096,0.000L579.096,24.803L554.967,24.803L554.967,0.000L530.838,0.000L530.838,24.803L506.709,24.803L506.709,0.000L482.580,0.000L482.580,24.803L458.451,24.803L458.451,0.000L434.322,0.000L434.322,24.803L410.193,24.803L410.193,0.000L386.064,0.000L386.064,24.803L361.935,24.803L361.935,0.000L337.806,0.000L337.806,24.803L313.677,24.803L313.677,0.000L289.548,0.000L289.548,24.803L265.419,24.803L265.419,0.000L241.290,0.000L241.290,24.803L217.161,24.803L217.161,0.000L193.032,0.000L193.032,24.803L168.903,24.803L168.903,0.000L144.774,0.000L144.774,24.803L120.645,24.803L120.645,0.000L96.516,0.000L96.516,24.803L72.387,24.803L72.387,0.000L48.258,0.000L48.258,24.803L24.129,24.803L24.129,0.000L0.000,0.000L0.000,0.000L0.000,51.631L-24.803,51.631L-24.803,78.459L0.000,78.459L0.000,105.287L-24.803,105.287L-24.803,132.115L0.000,132.115L0.000,158.943L-24.803,158.943L-24.803,185.771L0.000,185.771L0.000,212.598" />
      <path
         id="path5656"
         style="stroke:#ff0000;stroke-width:3.47952756;fill:none;stroke-opacity:1;stroke-miterlimit:4;stroke-dasharray:none"
         d="M-212.598,24.803L-212.598,24.803L-185.771,24.803L-185.771,0.000L-158.943,0.000L-158.943,24.803L-132.115,24.803L-132.115,0.000L-105.287,0.000L-105.287,24.803L-78.459,24.803L-78.459,0.000L-51.631,0.000L-51.631,24.803L0.000,24.803L0.000,24.803L0.000,-23.321L-24.803,-23.321L-24.803,-46.642L0.000,-46.642L0.000,-69.964L-24.803,-69.964L-24.803,-93.285L0.000,-93.285L0.000,-116.606L-24.803,-116.606L-24.803,-139.927L0.000,-139.927L0.000,-163.249L-24.803,-163.249L-24.803,-186.570L0.000,-186.570L0.000,-209.891L-24.803,-209.891L-24.803,-233.212L0.000,-233.212L0.000,-256.534L-24.803,-256.534L-24.803,-279.855L0.000,-279.855L0.000,-303.176L-24.803,-303.176L-24.803,-326.497L0.000,-326.497L0.000,-349.818L-24.803,-349.818L-24.803,-373.140L0.000,-373.140L0.000,-396.461L-24.803,-396.461L-24.803,-419.782L0.000,-419.782L0.000,-443.103L-24.803,-443.103L-24.803,-466.425L0.000,-466.425L0.000,-489.746L-24.803,-489.746L-24.803,-513.067L0.000,-513.067L0.000,-536.388L-24.803,-536.388L-24.803,-559.710L0.000,-559.710L0.000,-583.031L-24.803,-583.031L-24.803,-606.352L0.000,-606.352L0.000,-629.673L-24.803,-629.673L-24.803,-652.994L0.000,-652.994L0.000,-676.316L-24.803,-676.316L-24.803,-699.637L0.000,-699.637L0.000,-722.958L-24.803,-722.958L-24.803,-746.279L0.000,-746.279L0.000,-769.601L-24.803,-769.601L-24.803,-792.922L0.000,-792.922L0.000,-816.243L-24.803,-816.243L-24.803,-839.564L0.000,-839.564L0.000,-862.886L-24.803,-862.886L-24.803,-886.207L0.000,-886.207L0.000,-909.528L-24.803,-909.528L-24.803,-932.849L0.000,-932.849L0.000,-956.170L-24.803,-956.170L-24.803,-979.492L0.000,-979.492L0.000,-1002.813L0.000,-1002.813L-51.631,-1002.813L-51.631,-1027.616L-78.459,-1027.616L-78.459,-1002.813L-105.287,-1002.813L-105.287,-1027.616L-132.115,-1027.616L-132.115,-1002.813L-158.943,-1002.813L-158.943,-1027.616L-185.771,-1027.616L-185.771,-1002.813L-212.598,-1002.813L-212.598,-1002.813L-212.598,24.803" />
      <path
         id="path5658"
         style="stroke:#ff0000;stroke-width:3.47952756;fill:none;stroke-opacity:1;stroke-miterlimit:4;stroke-dasharray:none"
         d="M1085.805,0.000L1085.805,0.000L1137.436,0.000L1137.436,24.803L1164.264,24.803L1164.264,0.000L1191.092,0.000L1191.092,24.803L1217.920,24.803L1217.920,0.000L1244.748,0.000L1244.748,24.803L1271.576,24.803L1271.576,0.000L1298.404,0.000L1298.404,0.000L1298.404,-1027.616L1298.404,-1027.616L1271.576,-1027.616L1271.576,-1002.813L1244.748,-1002.813L1244.748,-1027.616L1217.920,-1027.616L1217.920,-1002.813L1191.092,-1002.813L1191.092,-1027.616L1164.264,-1027.616L1164.264,-1002.813L1137.436,-1002.813L1137.436,-1027.616L1085.805,-1027.616L1085.805,-1027.616L1085.805,-979.492L1110.608,-979.492L1110.608,-956.170L1085.805,-956.170L1085.805,-932.849L1110.608,-932.849L1110.608,-909.528L1085.805,-909.528L1085.805,-886.207L1110.608,-886.207L1110.608,-862.886L1085.805,-862.886L1085.805,-839.564L1110.608,-839.564L1110.608,-816.243L1085.805,-816.243L1085.805,-792.922L1110.608,-792.922L1110.608,-769.601L1085.805,-769.601L1085.805,-746.279L1110.608,-746.279L1110.608,-722.958L1085.805,-722.958L1085.805,-699.637L1110.608,-699.637L1110.608,-676.316L1085.805,-676.316L1085.805,-652.994L1110.608,-652.994L1110.608,-629.673L1085.805,-629.673L1085.805,-606.352L1110.608,-606.352L1110.608,-583.031L1085.805,-583.031L1085.805,-559.710L1110.608,-559.710L1110.608,-536.388L1085.805,-536.388L1085.805,-513.067L1110.608,-513.067L1110.608,-489.746L1085.805,-489.746L1085.805,-466.425L1110.608,-466.425L1110.608,-443.103L1085.805,-443.103L1085.805,-419.782L1110.608,-419.782L1110.608,-396.461L1085.805,-396.461L1085.805,-373.140L1110.608,-373.140L1110.608,-349.818L1085.805,-349.818L1085.805,-326.497L1110.608,-326.497L1110.608,-303.176L1085.805,-303.176L1085.805,-279.855L1110.608,-279.855L1110.608,-256.534L1085.805,-256.534L1085.805,-233.212L1110.608,-233.212L1110.608,-209.891L1085.805,-209.891L1085.805,-186.570L1110.608,-186.570L1110.608,-163.249L1085.805,-163.249L1085.805,-139.927L1110.608,-139.927L1110.608,-116.606L1085.805,-116.606L1085.805,-93.285L1110.608,-93.285L1110.608,-69.964L1085.805,-69.964L1085.805,-46.642L1110.608,-46.642L1110.608,-23.321L1085.805,-23.321L1085.805,0.000" />
      <path
         id="path5660"
         style="stroke:#ff0000;stroke-width:3.47952756;fill:none;stroke-opacity:1;stroke-miterlimit:4;stroke-dasharray:none"
         d="M273.922,-1002.813L273.922,-1002.813L298.725,-1002.813L298.725,-978.354L273.922,-978.354L273.922,-1002.813" />
      <path
         id="path5662"
         style="stroke:#ff0000;stroke-width:3.47952756;fill:none;stroke-opacity:1;stroke-miterlimit:4;stroke-dasharray:none"
         d="M273.922,-953.895L273.922,-953.895L298.725,-953.895L298.725,-929.436L273.922,-929.436L273.922,-953.895" />
      <path
         id="path5664"
         style="stroke:#ff0000;stroke-width:3.47952756;fill:none;stroke-opacity:1;stroke-miterlimit:4;stroke-dasharray:none"
         d="M273.922,-904.978L273.922,-904.978L298.725,-904.978L298.725,-880.519L273.922,-880.519L273.922,-904.978" />
      <path
         id="path5666"
         style="stroke:#ff0000;stroke-width:3.47952756;fill:none;stroke-opacity:1;stroke-miterlimit:4;stroke-dasharray:none"
         d="M273.922,-856.060L273.922,-856.060L298.725,-856.060L298.725,-831.601L273.922,-831.601L273.922,-856.060" />
      <path
         id="path5668"
         style="stroke:#ff0000;stroke-width:3.47952756;fill:none;stroke-opacity:1;stroke-miterlimit:4;stroke-dasharray:none"
         d="M273.922,-807.142L273.922,-807.142L298.725,-807.142L298.725,-782.683L273.922,-782.683L273.922,-807.142" />
      <path
         id="path5670"
         style="stroke:#ff0000;stroke-width:3.47952756;fill:none;stroke-opacity:1;stroke-miterlimit:4;stroke-dasharray:none"
         d="M273.922,-758.224L273.922,-758.224L298.725,-758.224L298.725,-733.766L273.922,-733.766L273.922,-758.224" />
      <path
         id="path5672"
         style="stroke:#ff0000;stroke-width:3.47952756;fill:none;stroke-opacity:1;stroke-miterlimit:4;stroke-dasharray:none"
         d="M273.922,-709.307L273.922,-709.307L298.725,-709.307L298.725,-684.848L273.922,-684.848L273.922,-709.307" />
      <path
         id="path5674"
         style="stroke:#ff0000;stroke-width:3.47952756;fill:none;stroke-opacity:1;stroke-miterlimit:4;stroke-dasharray:none"
         d="M273.922,-660.389L273.922,-660.389L298.725,-660.389L298.725,-635.930L273.922,-635.930L273.922,-660.389" />
      <path
         id="path5676"
         style="stroke:#ff0000;stroke-width:3.47952756;fill:none;stroke-opacity:1;stroke-miterlimit:4;stroke-dasharray:none"
         d="M273.922,-611.471L273.922,-611.471L298.725,-611.471L298.725,-587.012L273.922,-587.012L273.922,-611.471" />
      <path
         id="path5678"
         style="stroke:#ff0000;stroke-width:3.47952756;fill:none;stroke-opacity:1;stroke-miterlimit:4;stroke-dasharray:none"
         d="M273.922,-562.554L273.922,-562.554L298.725,-562.554L298.725,-538.095L273.922,-538.095L273.922,-562.554" />
      <path
         id="path5680"
         style="stroke:#ff0000;stroke-width:3.47952756;fill:none;stroke-opacity:1;stroke-miterlimit:4;stroke-dasharray:none"
         d="M273.922,-513.636L273.922,-513.636L298.725,-513.636L298.725,-489.177L273.922,-489.177L273.922,-513.636" />
      <path
         id="path5682"
         style="stroke:#ff0000;stroke-width:3.47952756;fill:none;stroke-opacity:1;stroke-miterlimit:4;stroke-dasharray:none"
         d="M273.922,-464.718L273.922,-464.718L298.725,-464.718L298.725,-440.259L273.922,-440.259L273.922,-464.718" />
      <path
         id="path5684"
         style="stroke:#ff0000;stroke-width:3.47952756;fill:none;stroke-opacity:1;stroke-miterlimit:4;stroke-dasharray:none"
         d="M273.922,-415.800L273.922,-415.800L298.725,-415.800L298.725,-391.342L273.922,-391.342L273.922,-415.800" />
      <path
         id="path5686"
         style="stroke:#ff0000;stroke-width:3.47952756;fill:none;stroke-opacity:1;stroke-miterlimit:4;stroke-dasharray:none"
         d="M273.922,-366.883L273.922,-366.883L298.725,-366.883L298.725,-342.424L273.922,-342.424L273.922,-366.883" />
      <path
         id="path5688"
         style="stroke:#ff0000;stroke-width:3.47952756;fill:none;stroke-opacity:1;stroke-miterlimit:4;stroke-dasharray:none"
         d="M273.922,-317.965L273.922,-317.965L298.725,-317.965L298.725,-293.506L273.922,-293.506L273.922,-317.965" />
      <path
         id="path5690"
         style="stroke:#ff0000;stroke-width:3.47952756;fill:none;stroke-opacity:1;stroke-miterlimit:4;stroke-dasharray:none"
         d="M273.922,-269.047L273.922,-269.047L298.725,-269.047L298.725,-244.589L273.922,-244.589L273.922,-269.047" />
      <path
         id="path5692"
         style="stroke:#ff0000;stroke-width:3.47952756;fill:none;stroke-opacity:1;stroke-miterlimit:4;stroke-dasharray:none"
         d="M273.922,-220.130L273.922,-220.130L298.725,-220.130L298.725,-195.671L273.922,-195.671L273.922,-220.130" />
      <path
         id="path5694"
         style="stroke:#ff0000;stroke-width:3.47952756;fill:none;stroke-opacity:1;stroke-miterlimit:4;stroke-dasharray:none"
         d="M273.922,-171.212L273.922,-171.212L298.725,-171.212L298.725,-146.753L273.922,-146.753L273.922,-171.212" />
      <path
         id="path5696"
         style="stroke:#ff0000;stroke-width:3.47952756;fill:none;stroke-opacity:1;stroke-miterlimit:4;stroke-dasharray:none"
         d="M273.922,-122.294L273.922,-122.294L298.725,-122.294L298.725,-97.835L273.922,-97.835L273.922,-122.294" />
      <path
         id="path5698"
         style="stroke:#ff0000;stroke-width:3.47952756;fill:none;stroke-opacity:1;stroke-miterlimit:4;stroke-dasharray:none"
         d="M273.922,-73.377L273.922,-73.377L298.725,-73.377L298.725,-48.918L273.922,-48.918L273.922,-73.377" />
      <path
         id="path5700"
         style="stroke:#ff0000;stroke-width:3.47952756;fill:none;stroke-opacity:1;stroke-miterlimit:4;stroke-dasharray:none"
         d="M273.922,-24.459L273.922,-24.459L298.725,-24.459L298.725,0.000L273.922,0.000L273.922,-24.459" />
      <path
         id="path5702"
         style="stroke:#ff0000;stroke-width:3.47952756;fill:none;stroke-opacity:1;stroke-miterlimit:4;stroke-dasharray:none"
         d="M1298.404,0.000L1298.404,0.000L1323.713,0.000L1323.713,24.803L1349.022,24.803L1349.022,0.000L1374.332,0.000L1374.332,24.803L1399.641,24.803L1399.641,0.000L1424.950,0.000L1424.950,24.803L1450.260,24.803L1450.260,0.000L1500.372,0.000L1500.372,0.000L1500.372,-24.459L1475.569,-24.459L1475.569,-48.918L1500.372,-48.918L1500.372,-73.377L1475.569,-73.377L1475.569,-97.835L1500.372,-97.835L1500.372,-122.294L1475.569,-122.294L1475.569,-146.753L1500.372,-146.753L1500.372,-171.212L1475.569,-171.212L1475.569,-195.671L1500.372,-195.671L1500.372,-220.130L1475.569,-220.130L1475.569,-244.589L1500.372,-244.589L1500.372,-269.047L1475.569,-269.047L1475.569,-293.506L1500.372,-293.506L1500.372,-317.965L1475.569,-317.965L1475.569,-342.424L1500.372,-342.424L1500.372,-366.883L1475.569,-366.883L1475.569,-391.342L1500.372,-391.342L1500.372,-415.800L1475.569,-415.800L1475.569,-440.259L1500.372,-440.259L1500.372,-464.718L1475.569,-464.718L1475.569,-489.177L1500.372,-489.177L1500.372,-513.636L1475.569,-513.636L1475.569,-538.095L1500.372,-538.095L1500.372,-562.554L1475.569,-562.554L1475.569,-587.012L1500.372,-587.012L1500.372,-611.471L1475.569,-611.471L1475.569,-635.930L1500.372,-635.930L1500.372,-660.389L1475.569,-660.389L1475.569,-684.848L1500.372,-684.848L1500.372,-709.307L1475.569,-709.307L1475.569,-733.766L1500.372,-733.766L1500.372,-758.224L1475.569,-758.224L1475.569,-782.683L1500.372,-782.683L1500.372,-807.142L1475.569,-807.142L1475.569,-831.601L1500.372,-831.601L1500.372,-856.060L1475.569,-856.060L1475.569,-880.519L1500.372,-880.519L1500.372,-904.978L1475.569,-904.978L1475.569,-929.436L1500.372,-929.436L1500.372,-953.895L1475.569,-953.895L1475.569,-978.354L1500.372,-978.354L1500.372,-1002.813L1500.372,-1002.813L1450.260,-1002.813L1450.260,-1027.616L1424.950,-1027.616L1424.950,-1002.813L1399.641,-1002.813L1399.641,-1027.616L1374.332,-1027.616L1374.332,-1002.813L1349.022,-1002.813L1349.022,-1027.616L1323.713,-1027.616L1323.713,-1002.813L1298.404,-1002.813L1298.404,-1002.813L1298.404,0.000" />
      <path
         id="path5704"
         style="stroke:#ff0000;stroke-width:3.47952756;fill:none;stroke-opacity:1;stroke-miterlimit:4;stroke-dasharray:none"
         d="M273.922,50.112L273.922,50.112L298.725,50.112L298.725,75.422L273.922,75.422L273.922,50.112" />
      <path
         id="path5706"
         style="stroke:#ff0000;stroke-width:3.47952756;fill:none;stroke-opacity:1;stroke-miterlimit:4;stroke-dasharray:none"
         d="M273.922,100.731L273.922,100.731L298.725,100.731L298.725,126.040L273.922,126.040L273.922,100.731" />
      <path
         id="path5708"
         style="stroke:#ff0000;stroke-width:3.47952756;fill:none;stroke-opacity:1;stroke-miterlimit:4;stroke-dasharray:none"
         d="M273.922,151.350L273.922,151.350L298.725,151.350L298.725,176.659L273.922,176.659L273.922,151.350" />
      <path
         id="path5710"
         style="stroke:#ff0000;stroke-width:3.47952756;fill:none;stroke-opacity:1;stroke-miterlimit:4;stroke-dasharray:none"
         d="M273.922,-1078.235L273.922,-1078.235L298.725,-1078.235L298.725,-1052.925L273.922,-1052.925L273.922,-1078.235" />
      <path
         id="path5712"
         style="stroke:#ff0000;stroke-width:3.47952756;fill:none;stroke-opacity:1;stroke-miterlimit:4;stroke-dasharray:none"
         d="M273.922,-1128.853L273.922,-1128.853L298.725,-1128.853L298.725,-1103.544L273.922,-1103.544L273.922,-1128.853" />
      <path
         id="path5714"
         style="stroke:#ff0000;stroke-width:3.47952756;fill:none;stroke-opacity:1;stroke-miterlimit:4;stroke-dasharray:none"
         d="M273.922,-1179.472L273.922,-1179.472L298.725,-1179.472L298.725,-1154.163L273.922,-1154.163L273.922,-1179.472" />
      <path
         id="path5716"
         style="stroke:#ff0000;stroke-width:3.47952756;fill:none;stroke-opacity:1;stroke-miterlimit:4;stroke-dasharray:none"
         d="M0.000,-765.416L0.000,-765.416L24.902,-765.416L24.902,-740.613L0.000,-740.613L0.000,-765.416" />
      <path
         id="path5718"
         style="stroke:#ff0000;stroke-width:3.47952756;fill:none;stroke-opacity:1;stroke-miterlimit:4;stroke-dasharray:none"
         d="M49.804,-765.416L49.804,-765.416L74.706,-765.416L74.706,-740.613L49.804,-740.613L49.804,-765.416" />
      <path
         id="path5720"
         style="stroke:#ff0000;stroke-width:3.47952756;fill:none;stroke-opacity:1;stroke-miterlimit:4;stroke-dasharray:none"
         d="M99.608,-765.416L99.608,-765.416L124.510,-765.416L124.510,-740.613L99.608,-740.613L99.608,-765.416" />
      <path
         id="path5722"
         style="stroke:#ff0000;stroke-width:3.47952756;fill:none;stroke-opacity:1;stroke-miterlimit:4;stroke-dasharray:none"
         d="M149.412,-765.416L149.412,-765.416L174.314,-765.416L174.314,-740.613L149.412,-740.613L149.412,-765.416" />
      <path
         id="path5724"
         style="stroke:#ff0000;stroke-width:3.47952756;fill:none;stroke-opacity:1;stroke-miterlimit:4;stroke-dasharray:none"
         d="M199.216,-765.416L199.216,-765.416L224.118,-765.416L224.118,-740.613L199.216,-740.613L199.216,-765.416" />
      <path
         id="path5726"
         style="stroke:#ff0000;stroke-width:3.47952756;fill:none;stroke-opacity:1;stroke-miterlimit:4;stroke-dasharray:none"
         d="M249.020,-765.416L249.020,-765.416L273.922,-765.416L273.922,-740.613L249.020,-740.613L249.020,-765.416" />
      <path
         id="path5728"
         style="stroke:#ff0000;stroke-width:3.47952756;fill:none;stroke-opacity:1;stroke-miterlimit:4;stroke-dasharray:none"
         d="M1500.372,0.000L1500.372,0.000L1525.681,0.000L1525.681,24.803L1550.991,24.803L1550.991,0.000L1576.300,0.000L1576.300,0.000L1601.609,0.000L1601.609,0.000L1626.919,0.000L1626.919,24.803L1652.228,24.803L1652.228,0.000L1702.341,0.000L1702.341,0.000L1702.341,-24.902L1677.537,-24.902L1677.537,-49.804L1702.341,-49.804L1702.341,-74.706L1677.537,-74.706L1677.537,-99.608L1702.341,-99.608L1702.341,-124.510L1677.537,-124.510L1677.537,-149.412L1702.341,-149.412L1702.341,-174.314L1677.537,-174.314L1677.537,-199.216L1702.341,-199.216L1702.341,-224.118L1677.537,-224.118L1677.537,-249.020L1702.341,-249.020L1702.341,-273.922L1702.341,-273.922L1652.228,-273.922L1652.228,-298.725L1626.919,-298.725L1626.919,-273.922L1601.609,-273.922L1601.609,-298.725L1576.300,-298.725L1576.300,-273.922L1550.991,-273.922L1550.991,-298.725L1525.681,-298.725L1525.681,-273.922L1500.372,-273.922L1500.372,-273.922L1500.372,0.000" />
      <path
         id="path5730"
         style="stroke:#ff0000;stroke-width:3.47952756;fill:none;stroke-opacity:1;stroke-miterlimit:4;stroke-dasharray:none"
         d="M-75.422,-765.416L-75.422,-765.416L-50.112,-765.416L-50.112,-740.613L-75.422,-740.613L-75.422,-765.416" />
      <path
         id="path5732"
         style="stroke:#ff0000;stroke-width:3.47952756;fill:none;stroke-opacity:1;stroke-miterlimit:4;stroke-dasharray:none"
         d="M-126.040,-765.416L-126.040,-765.416L-100.731,-765.416L-100.731,-740.613L-126.040,-740.613L-126.040,-765.416" />
      <path
         id="path5734"
         style="stroke:#ff0000;stroke-width:3.47952756;fill:none;stroke-opacity:1;stroke-miterlimit:4;stroke-dasharray:none"
         d="M-176.659,-765.416L-176.659,-765.416L-151.350,-765.416L-151.350,-740.613L-176.659,-740.613L-176.659,-765.416" />
      <path
         id="path5736"
         style="stroke:#ff0000;stroke-width:3.47952756;fill:none;stroke-opacity:1;stroke-miterlimit:4;stroke-dasharray:none"
         d="M1424.950,-765.416L1424.950,-765.416L1450.260,-765.416L1450.260,-740.613L1424.950,-740.613L1424.950,-765.416" />
      <path
         id="path5738"
         style="stroke:#ff0000;stroke-width:3.47952756;fill:none;stroke-opacity:1;stroke-miterlimit:4;stroke-dasharray:none"
         d="M1374.332,-765.416L1374.332,-765.416L1399.641,-765.416L1399.641,-740.613L1374.332,-740.613L1374.332,-765.416" />
      <path
         id="path5740"
         style="stroke:#ff0000;stroke-width:3.47952756;fill:none;stroke-opacity:1;stroke-miterlimit:4;stroke-dasharray:none"
         d="M1323.713,-765.416L1323.713,-765.416L1349.022,-765.416L1349.022,-740.613L1323.713,-740.613L1323.713,-765.416" />
      <path
         id="path5742"
         style="stroke:#ff0000;stroke-width:3.47952756;fill:none;stroke-opacity:1;stroke-miterlimit:4;stroke-dasharray:none"
         d="M1060.415,-765.416L1060.415,-765.416L1085.805,-765.416L1085.805,-740.613L1060.415,-740.613L1060.415,-765.416" />
      <path
         id="path5744"
         style="stroke:#ff0000;stroke-width:3.47952756;fill:none;stroke-opacity:1;stroke-miterlimit:4;stroke-dasharray:none"
         d="M1009.636,-765.416L1009.636,-765.416L1035.026,-765.416L1035.026,-740.613L1009.636,-740.613L1009.636,-765.416" />
      <path
         id="path5746"
         style="stroke:#ff0000;stroke-width:3.47952756;fill:none;stroke-opacity:1;stroke-miterlimit:4;stroke-dasharray:none"
         d="M958.857,-765.416L958.857,-765.416L984.246,-765.416L984.246,-740.613L958.857,-740.613L958.857,-765.416" />
      <path
         id="path5748"
         style="stroke:#ff0000;stroke-width:3.47952756;fill:none;stroke-opacity:1;stroke-miterlimit:4;stroke-dasharray:none"
         d="M908.077,-765.416L908.077,-765.416L933.467,-765.416L933.467,-740.613L908.077,-740.613L908.077,-765.416" />
      <path
         id="path5750"
         style="stroke:#ff0000;stroke-width:3.47952756;fill:none;stroke-opacity:1;stroke-miterlimit:4;stroke-dasharray:none"
         d="M857.298,-765.416L857.298,-765.416L882.688,-765.416L882.688,-740.613L857.298,-740.613L857.298,-765.416" />
      <path
         id="path5752"
         style="stroke:#ff0000;stroke-width:3.47952756;fill:none;stroke-opacity:1;stroke-miterlimit:4;stroke-dasharray:none"
         d="M806.519,-765.416L806.519,-765.416L831.908,-765.416L831.908,-740.613L806.519,-740.613L806.519,-765.416" />
      <path
         id="path5754"
         style="stroke:#ff0000;stroke-width:3.47952756;fill:none;stroke-opacity:1;stroke-miterlimit:4;stroke-dasharray:none"
         d="M755.739,-765.416L755.739,-765.416L781.129,-765.416L781.129,-740.613L755.739,-740.613L755.739,-765.416" />
      <path
         id="path5756"
         style="stroke:#ff0000;stroke-width:3.47952756;fill:none;stroke-opacity:1;stroke-miterlimit:4;stroke-dasharray:none"
         d="M704.960,-765.416L704.960,-765.416L730.350,-765.416L730.350,-740.613L704.960,-740.613L704.960,-765.416" />
      <path
         id="path5758"
         style="stroke:#ff0000;stroke-width:3.47952756;fill:none;stroke-opacity:1;stroke-miterlimit:4;stroke-dasharray:none"
         d="M654.181,-765.416L654.181,-765.416L679.570,-765.416L679.570,-740.613L654.181,-740.613L654.181,-765.416" />
      <path
         id="path5760"
         style="stroke:#ff0000;stroke-width:3.47952756;fill:none;stroke-opacity:1;stroke-miterlimit:4;stroke-dasharray:none"
         d="M603.401,-765.416L603.401,-765.416L628.791,-765.416L628.791,-740.613L603.401,-740.613L603.401,-765.416" />
      <path
         id="path5762"
         style="stroke:#ff0000;stroke-width:3.47952756;fill:none;stroke-opacity:1;stroke-miterlimit:4;stroke-dasharray:none"
         d="M552.622,-765.416L552.622,-765.416L578.012,-765.416L578.012,-740.613L552.622,-740.613L552.622,-765.416" />
      <path
         id="path5764"
         style="stroke:#ff0000;stroke-width:3.47952756;fill:none;stroke-opacity:1;stroke-miterlimit:4;stroke-dasharray:none"
         d="M501.843,-765.416L501.843,-765.416L527.232,-765.416L527.232,-740.613L501.843,-740.613L501.843,-765.416" />
      <path
         id="path5766"
         style="stroke:#ff0000;stroke-width:3.47952756;fill:none;stroke-opacity:1;stroke-miterlimit:4;stroke-dasharray:none"
         d="M451.063,-765.416L451.063,-765.416L476.453,-765.416L476.453,-740.613L451.063,-740.613L451.063,-765.416" />
      <path
         id="path5768"
         style="stroke:#ff0000;stroke-width:3.47952756;fill:none;stroke-opacity:1;stroke-miterlimit:4;stroke-dasharray:none"
         d="M400.284,-765.416L400.284,-765.416L425.674,-765.416L425.674,-740.613L400.284,-740.613L400.284,-765.416" />
      <path
         id="path5770"
         style="stroke:#ff0000;stroke-width:3.47952756;fill:none;stroke-opacity:1;stroke-miterlimit:4;stroke-dasharray:none"
         d="M349.505,-765.416L349.505,-765.416L374.894,-765.416L374.894,-740.613L349.505,-740.613L349.505,-765.416" />
      <path
         id="path5772"
         style="stroke:#ff0000;stroke-width:3.47952756;fill:none;stroke-opacity:1;stroke-miterlimit:4;stroke-dasharray:none"
         d="M298.725,-765.416L298.725,-765.416L324.115,-765.416L324.115,-740.613L298.725,-740.613L298.725,-765.416" />
      <path
         id="path5774"
         style="stroke:#ff0000;stroke-width:3.47952756;fill:none;stroke-opacity:1;stroke-miterlimit:4;stroke-dasharray:none"
         d="M1702.341,0.000L1702.341,0.000L1727.650,0.000L1727.650,0.000L1752.959,0.000L1752.959,0.000L1778.269,0.000L1778.269,24.803L1803.578,24.803L1803.578,0.000L1828.887,0.000L1828.887,0.000L1854.197,0.000L1854.197,0.000L1904.309,0.000L1904.309,0.000L1904.309,-25.390L1879.506,-25.390L1879.506,-50.779L1904.309,-50.779L1904.309,-76.169L1879.506,-76.169L1879.506,-101.559L1904.309,-101.559L1904.309,-126.948L1879.506,-126.948L1879.506,-152.338L1904.309,-152.338L1904.309,-177.728L1879.506,-177.728L1879.506,-203.117L1904.309,-203.117L1904.309,-228.507L1879.506,-228.507L1879.506,-253.897L1904.309,-253.897L1904.309,-279.286L1879.506,-279.286L1879.506,-304.676L1904.309,-304.676L1904.309,-330.066L1879.506,-330.066L1879.506,-355.455L1904.309,-355.455L1904.309,-380.845L1879.506,-380.845L1879.506,-406.235L1904.309,-406.235L1904.309,-431.624L1879.506,-431.624L1879.506,-457.014L1904.309,-457.014L1904.309,-482.404L1879.506,-482.404L1879.506,-507.793L1904.309,-507.793L1904.309,-533.183L1879.506,-533.183L1879.506,-558.573L1904.309,-558.573L1904.309,-583.962L1879.506,-583.962L1879.506,-609.352L1904.309,-609.352L1904.309,-634.742L1879.506,-634.742L1879.506,-660.131L1904.309,-660.131L1904.309,-685.521L1879.506,-685.521L1879.506,-710.911L1904.309,-710.911L1904.309,-736.300L1879.506,-736.300L1879.506,-761.690L1904.309,-761.690L1904.309,-787.080L1904.309,-787.080L1854.197,-787.080L1854.197,-811.883L1828.887,-811.883L1828.887,-787.080L1803.578,-787.080L1803.578,-811.883L1778.269,-811.883L1778.269,-787.080L1752.959,-787.080L1752.959,-811.883L1727.650,-811.883L1727.650,-787.080L1702.341,-787.080L1702.341,-787.080L1702.341,-0.000" />
      <path
         id="path5776"
         style="stroke:#ff0000;stroke-width:3.47952756;fill:none;stroke-opacity:1;stroke-miterlimit:4;stroke-dasharray:none"
         d="M1135.918,-765.416L1135.918,-765.416L1161.227,-765.416L1161.227,-740.613L1135.918,-740.613L1135.918,-765.416" />
      <path
         id="path5778"
         style="stroke:#ff0000;stroke-width:3.47952756;fill:none;stroke-opacity:1;stroke-miterlimit:4;stroke-dasharray:none"
         d="M1186.536,-765.416L1186.536,-765.416L1211.846,-765.416L1211.846,-740.613L1186.536,-740.613L1186.536,-765.416" />
      <path
         id="path5780"
         style="stroke:#ff0000;stroke-width:3.47952756;fill:none;stroke-opacity:1;stroke-miterlimit:4;stroke-dasharray:none"
         d="M1237.155,-765.416L1237.155,-765.416L1262.464,-765.416L1262.464,-740.613L1237.155,-740.613L1237.155,-765.416" />
      <path
         id="path5782"
         style="stroke:#ff0000;stroke-width:3.47952756;fill:none;stroke-opacity:1;stroke-miterlimit:4;stroke-dasharray:none"
         d="M1424.950,-765.416L1424.950,-765.416L1450.260,-765.416L1450.260,-740.613L1424.950,-740.613L1424.950,-765.416" />
      <path
         id="path5784"
         style="stroke:#ff0000;stroke-width:3.47952756;fill:none;stroke-opacity:1;stroke-miterlimit:4;stroke-dasharray:none"
         d="M1374.332,-765.416L1374.332,-765.416L1399.641,-765.416L1399.641,-740.613L1374.332,-740.613L1374.332,-765.416" />
      <path
         id="path5786"
         style="stroke:#ff0000;stroke-width:3.47952756;fill:none;stroke-opacity:1;stroke-miterlimit:4;stroke-dasharray:none"
         d="M1323.713,-765.416L1323.713,-765.416L1349.022,-765.416L1349.022,-740.613L1323.713,-740.613L1323.713,-765.416" />
      <path
         id="path5788"
         style="stroke:#ff0000;stroke-width:3.47952756;fill:none;stroke-opacity:1;stroke-miterlimit:4;stroke-dasharray:none"
         d="M189.069,-1002.813L189.069,-1002.813L213.873,-1002.813L213.873,-976.436L189.069,-976.436L189.069,-1002.813" />
      <path
         id="path5790"
         style="stroke:#ff0000;stroke-width:3.47952756;fill:none;stroke-opacity:1;stroke-miterlimit:4;stroke-dasharray:none"
         d="M189.069,-950.058L189.069,-950.058L213.873,-950.058L213.873,-923.681L189.069,-923.681L189.069,-950.058" />
      <path
         id="path5792"
         style="stroke:#ff0000;stroke-width:3.47952756;fill:none;stroke-opacity:1;stroke-miterlimit:4;stroke-dasharray:none"
         d="M189.069,-897.303L189.069,-897.303L213.873,-897.303L213.873,-870.926L189.069,-870.926L189.069,-897.303" />
      <path
         id="path5794"
         style="stroke:#ff0000;stroke-width:3.47952756;fill:none;stroke-opacity:1;stroke-miterlimit:4;stroke-dasharray:none"
         d="M189.069,-844.548L189.069,-844.548L213.873,-844.548L213.873,-818.171L189.069,-818.171L189.069,-844.548" />
      <path
         id="path5796"
         style="stroke:#ff0000;stroke-width:3.47952756;fill:none;stroke-opacity:1;stroke-miterlimit:4;stroke-dasharray:none"
         d="M189.069,-791.793L189.069,-791.793L213.873,-791.793L213.873,-765.416L189.069,-765.416L189.069,-791.793" />
      <path
         id="path5798"
         style="stroke:#ff0000;stroke-width:3.47952756;fill:none;stroke-opacity:1;stroke-miterlimit:4;stroke-dasharray:none"
         d="M1904.309,0.000L1904.309,0.000L1929.618,0.000L1929.618,24.803L1954.928,24.803L1954.928,0.000L1980.237,0.000L1980.237,24.803L2005.546,24.803L2005.546,0.000L2030.856,0.000L2030.856,24.803L2056.165,24.803L2056.165,0.000L2106.278,0.000L2106.278,0.000L2106.278,-26.377L2081.474,-26.377L2081.474,-52.755L2106.278,-52.755L2106.278,-79.132L2081.474,-79.132L2081.474,-105.510L2106.278,-105.510L2106.278,-131.887L2081.474,-131.887L2081.474,-158.265L2106.278,-158.265L2106.278,-184.642L2081.474,-184.642L2081.474,-211.020L2106.278,-211.020L2106.278,-237.397L2106.278,-237.397L2056.165,-237.397L2056.165,-262.200L2030.856,-262.200L2030.856,-237.397L2005.546,-237.397L2005.546,-262.200L1980.237,-262.200L1980.237,-237.397L1954.928,-237.397L1954.928,-262.200L1929.618,-262.200L1929.618,-237.397L1904.309,-237.397L1904.309,-237.397L1904.309,0.000" />
      <path
         id="path5800"
         style="stroke:#ff0000;stroke-width:3.47952756;fill:none;stroke-opacity:1;stroke-miterlimit:4;stroke-dasharray:none"
         d="M189.069,-1078.235L189.069,-1078.235L213.873,-1078.235L213.873,-1052.925L189.069,-1052.925L189.069,-1078.235" />
      <path
         id="path5802"
         style="stroke:#ff0000;stroke-width:3.47952756;fill:none;stroke-opacity:1;stroke-miterlimit:4;stroke-dasharray:none"
         d="M189.069,-1128.853L189.069,-1128.853L213.873,-1128.853L213.873,-1103.544L189.069,-1103.544L189.069,-1128.853" />
      <path
         id="path5804"
         style="stroke:#ff0000;stroke-width:3.47952756;fill:none;stroke-opacity:1;stroke-miterlimit:4;stroke-dasharray:none"
         d="M189.069,-1179.472L189.069,-1179.472L213.873,-1179.472L213.873,-1154.163L189.069,-1154.163L189.069,-1179.472" />
      <path
         id="path5806"
         style="stroke:#ff0000;stroke-width:3.47952756;fill:none;stroke-opacity:1;stroke-miterlimit:4;stroke-dasharray:none"
         d="M1626.919,-72.451L1626.919,-72.451L1652.228,-72.451L1652.228,-47.648L1626.919,-47.648L1626.919,-72.451" />
      <path
         id="path5808"
         style="stroke:#ff0000;stroke-width:3.47952756;fill:none;stroke-opacity:1;stroke-miterlimit:4;stroke-dasharray:none"
         d="M1576.300,-72.451L1576.300,-72.451L1601.609,-72.451L1601.609,-47.648L1576.300,-47.648L1576.300,-72.451" />
      <path
         id="path5810"
         style="stroke:#ff0000;stroke-width:3.47952756;fill:none;stroke-opacity:1;stroke-miterlimit:4;stroke-dasharray:none"
         d="M1525.681,-72.451L1525.681,-72.451L1550.991,-72.451L1550.991,-47.648L1525.681,-47.648L1525.681,-72.451" />
      <path
         id="path5812"
         style="stroke:#ff0000;stroke-width:3.47952756;fill:none;stroke-opacity:1;stroke-miterlimit:4;stroke-dasharray:none"
         d="M366.856,-1002.813L366.856,-1002.813L391.659,-1002.813L391.659,-976.436L366.856,-976.436L366.856,-1002.813" />
      <path
         id="path5814"
         style="stroke:#ff0000;stroke-width:3.47952756;fill:none;stroke-opacity:1;stroke-miterlimit:4;stroke-dasharray:none"
         d="M366.856,-950.058L366.856,-950.058L391.659,-950.058L391.659,-923.681L366.856,-923.681L366.856,-950.058" />
      <path
         id="path5816"
         style="stroke:#ff0000;stroke-width:3.47952756;fill:none;stroke-opacity:1;stroke-miterlimit:4;stroke-dasharray:none"
         d="M366.856,-897.303L366.856,-897.303L391.659,-897.303L391.659,-870.926L366.856,-870.926L366.856,-897.303" />
      <path
         id="path5818"
         style="stroke:#ff0000;stroke-width:3.47952756;fill:none;stroke-opacity:1;stroke-miterlimit:4;stroke-dasharray:none"
         d="M366.856,-844.548L366.856,-844.548L391.659,-844.548L391.659,-818.171L366.856,-818.171L366.856,-844.548" />
      <path
         id="path5820"
         style="stroke:#ff0000;stroke-width:3.47952756;fill:none;stroke-opacity:1;stroke-miterlimit:4;stroke-dasharray:none"
         d="M366.856,-791.793L366.856,-791.793L391.659,-791.793L391.659,-765.416L366.856,-765.416L366.856,-791.793" />
      <path
         id="path5822"
         style="stroke:#ff0000;stroke-width:3.47952756;fill:none;stroke-opacity:1;stroke-miterlimit:4;stroke-dasharray:none"
         d="M2106.278,0.000L2106.278,0.000L2131.587,0.000L2131.587,0.000L2156.896,0.000L2156.896,0.000L2182.206,0.000L2182.206,24.803L2207.515,24.803L2207.515,0.000L2232.824,0.000L2232.824,0.000L2258.134,0.000L2258.134,0.000L2308.246,0.000L2308.246,0.000L2308.246,-26.377L2283.443,-26.377L2283.443,-52.755L2308.246,-52.755L2308.246,-79.132L2283.443,-79.132L2283.443,-105.510L2308.246,-105.510L2308.246,-131.887L2283.443,-131.887L2283.443,-158.265L2308.246,-158.265L2308.246,-184.642L2283.443,-184.642L2283.443,-211.020L2308.246,-211.020L2308.246,-237.397L2308.246,-237.397L2258.134,-237.397L2258.134,-262.200L2232.824,-262.200L2232.824,-237.397L2207.515,-237.397L2207.515,-262.200L2182.206,-262.200L2182.206,-237.397L2156.896,-237.397L2156.896,-262.200L2131.587,-262.200L2131.587,-237.397L2106.278,-237.397L2106.278,-237.397L2106.278,0.000" />
      <path
         id="path5824"
         style="stroke:#ff0000;stroke-width:3.47952756;fill:none;stroke-opacity:1;stroke-miterlimit:4;stroke-dasharray:none"
         d="M366.856,-1078.235L366.856,-1078.235L391.659,-1078.235L391.659,-1052.925L366.856,-1052.925L366.856,-1078.235" />
      <path
         id="path5826"
         style="stroke:#ff0000;stroke-width:3.47952756;fill:none;stroke-opacity:1;stroke-miterlimit:4;stroke-dasharray:none"
         d="M366.856,-1128.853L366.856,-1128.853L391.659,-1128.853L391.659,-1103.544L366.856,-1103.544L366.856,-1128.853" />
      <path
         id="path5828"
         style="stroke:#ff0000;stroke-width:3.47952756;fill:none;stroke-opacity:1;stroke-miterlimit:4;stroke-dasharray:none"
         d="M366.856,-1179.472L366.856,-1179.472L391.659,-1179.472L391.659,-1154.163L366.856,-1154.163L366.856,-1179.472" />
      <path
         id="path5830"
         style="stroke:#ff0000;stroke-width:3.47952756;fill:none;stroke-opacity:1;stroke-miterlimit:4;stroke-dasharray:none"
         d="M1828.887,-80.533L1828.887,-80.533L1854.197,-80.533L1854.197,-55.729L1828.887,-55.729L1828.887,-80.533" />
      <path
         id="path5832"
         style="stroke:#ff0000;stroke-width:3.47952756;fill:none;stroke-opacity:1;stroke-miterlimit:4;stroke-dasharray:none"
         d="M1778.269,-80.533L1778.269,-80.533L1803.578,-80.533L1803.578,-55.729L1778.269,-55.729L1778.269,-80.533" />
      <path
         id="path5834"
         style="stroke:#ff0000;stroke-width:3.47952756;fill:none;stroke-opacity:1;stroke-miterlimit:4;stroke-dasharray:none"
         d="M1727.650,-80.533L1727.650,-80.533L1752.959,-80.533L1752.959,-55.729L1727.650,-55.729L1727.650,-80.533" />
      <path
         id="path5836"
         style="stroke:#ff0000;stroke-width:3.47952756;fill:none;stroke-opacity:1;stroke-miterlimit:4;stroke-dasharray:none"
         d="M366.856,-25.538L366.856,-25.538L391.659,-25.538L391.659,-0.000L366.856,-0.000L366.856,-25.538" />
      <path
         id="path5838"
         style="stroke:#ff0000;stroke-width:3.47952756;fill:none;stroke-opacity:1;stroke-miterlimit:4;stroke-dasharray:none"
         d="M366.856,-76.615L366.856,-76.615L391.659,-76.615L391.659,-51.077L366.856,-51.077L366.856,-76.615" />
      <path
         id="path5840"
         style="stroke:#ff0000;stroke-width:3.47952756;fill:none;stroke-opacity:1;stroke-miterlimit:4;stroke-dasharray:none"
         d="M366.856,-127.692L366.856,-127.692L391.659,-127.692L391.659,-102.154L366.856,-102.154L366.856,-127.692" />
      <path
         id="path5842"
         style="stroke:#ff0000;stroke-width:3.47952756;fill:none;stroke-opacity:1;stroke-miterlimit:4;stroke-dasharray:none"
         d="M366.856,-178.769L366.856,-178.769L391.659,-178.769L391.659,-153.230L366.856,-153.230L366.856,-178.769" />
      <path
         id="path5844"
         style="stroke:#ff0000;stroke-width:3.47952756;fill:none;stroke-opacity:1;stroke-miterlimit:4;stroke-dasharray:none"
         d="M366.856,-229.845L366.856,-229.845L391.659,-229.845L391.659,-204.307L366.856,-204.307L366.856,-229.845" />
      <path
         id="path5846"
         style="stroke:#ff0000;stroke-width:3.47952756;fill:none;stroke-opacity:1;stroke-miterlimit:4;stroke-dasharray:none"
         d="M366.856,-280.922L366.856,-280.922L391.659,-280.922L391.659,-255.384L366.856,-255.384L366.856,-280.922" />
      <path
         id="path5848"
         style="stroke:#ff0000;stroke-width:3.47952756;fill:none;stroke-opacity:1;stroke-miterlimit:4;stroke-dasharray:none"
         d="M366.856,-331.999L366.856,-331.999L391.659,-331.999L391.659,-306.461L366.856,-306.461L366.856,-331.999" />
      <path
         id="path5850"
         style="stroke:#ff0000;stroke-width:3.47952756;fill:none;stroke-opacity:1;stroke-miterlimit:4;stroke-dasharray:none"
         d="M366.856,-383.076L366.856,-383.076L391.659,-383.076L391.659,-357.537L366.856,-357.537L366.856,-383.076" />
      <path
         id="path5852"
         style="stroke:#ff0000;stroke-width:3.47952756;fill:none;stroke-opacity:1;stroke-miterlimit:4;stroke-dasharray:none"
         d="M366.856,-434.152L366.856,-434.152L391.659,-434.152L391.659,-408.614L366.856,-408.614L366.856,-434.152" />
      <path
         id="path5854"
         style="stroke:#ff0000;stroke-width:3.47952756;fill:none;stroke-opacity:1;stroke-miterlimit:4;stroke-dasharray:none"
         d="M366.856,-485.229L366.856,-485.229L391.659,-485.229L391.659,-459.691L366.856,-459.691L366.856,-485.229" />
      <path
         id="path5856"
         style="stroke:#ff0000;stroke-width:3.47952756;fill:none;stroke-opacity:1;stroke-miterlimit:4;stroke-dasharray:none"
         d="M366.856,-536.306L366.856,-536.306L391.659,-536.306L391.659,-510.767L366.856,-510.767L366.856,-536.306" />
      <path
         id="path5858"
         style="stroke:#ff0000;stroke-width:3.47952756;fill:none;stroke-opacity:1;stroke-miterlimit:4;stroke-dasharray:none"
         d="M366.856,-587.383L366.856,-587.383L391.659,-587.383L391.659,-561.844L366.856,-561.844L366.856,-587.383" />
      <path
         id="path5860"
         style="stroke:#ff0000;stroke-width:3.47952756;fill:none;stroke-opacity:1;stroke-miterlimit:4;stroke-dasharray:none"
         d="M366.856,-638.459L366.856,-638.459L391.659,-638.459L391.659,-612.921L366.856,-612.921L366.856,-638.459" />
      <path
         id="path5862"
         style="stroke:#ff0000;stroke-width:3.47952756;fill:none;stroke-opacity:1;stroke-miterlimit:4;stroke-dasharray:none"
         d="M366.856,-689.536L366.856,-689.536L391.659,-689.536L391.659,-663.998L366.856,-663.998L366.856,-689.536" />
      <path
         id="path5864"
         style="stroke:#ff0000;stroke-width:3.47952756;fill:none;stroke-opacity:1;stroke-miterlimit:4;stroke-dasharray:none"
         d="M366.856,-740.613L366.856,-740.613L391.659,-740.613L391.659,-715.074L366.856,-715.074L366.856,-740.613" />
      <path
         id="path5866"
         style="stroke:#ff0000;stroke-width:3.47952756;fill:none;stroke-opacity:1;stroke-miterlimit:4;stroke-dasharray:none"
         d="M2308.246,0.000L2308.246,0.000L2333.555,0.000L2333.555,24.803L2358.865,24.803L2358.865,0.000L2384.174,0.000L2384.174,0.000L2409.483,0.000L2409.483,0.000L2434.793,0.000L2434.793,24.803L2460.102,24.803L2460.102,0.000L2510.215,0.000L2510.215,0.000L2510.215,-25.538L2485.411,-25.538L2485.411,-51.077L2510.215,-51.077L2510.215,-76.615L2485.411,-76.615L2485.411,-102.153L2510.215,-102.153L2510.215,-127.692L2485.411,-127.692L2485.411,-153.230L2510.215,-153.230L2510.215,-178.769L2485.411,-178.769L2485.411,-204.307L2510.215,-204.307L2510.215,-229.845L2485.411,-229.845L2485.411,-255.384L2510.215,-255.384L2510.215,-280.922L2485.411,-280.922L2485.411,-306.460L2510.215,-306.460L2510.215,-331.999L2485.411,-331.999L2485.411,-357.537L2510.215,-357.537L2510.215,-383.076L2485.411,-383.076L2485.411,-408.614L2510.215,-408.614L2510.215,-434.152L2485.411,-434.152L2485.411,-459.691L2510.215,-459.691L2510.215,-485.229L2485.411,-485.229L2485.411,-510.767L2510.215,-510.767L2510.215,-536.306L2485.411,-536.306L2485.411,-561.844L2510.215,-561.844L2510.215,-587.382L2485.411,-587.382L2485.411,-612.921L2510.215,-612.921L2510.215,-638.459L2485.411,-638.459L2485.411,-663.998L2510.215,-663.998L2510.215,-689.536L2485.411,-689.536L2485.411,-715.074L2510.215,-715.074L2510.215,-740.613L2510.215,-740.613L2460.102,-740.613L2460.102,-765.416L2434.793,-765.416L2434.793,-740.613L2409.483,-740.613L2409.483,-765.416L2384.174,-765.416L2384.174,-740.613L2358.865,-740.613L2358.865,-765.416L2333.555,-765.416L2333.555,-740.613L2308.246,-740.613L2308.246,-740.613L2308.246,0.000" />
      <path
         id="path5868"
         style="stroke:#ff0000;stroke-width:3.47952756;fill:none;stroke-opacity:1;stroke-miterlimit:4;stroke-dasharray:none"
         d="M1828.887,-80.533L1828.887,-80.533L1854.197,-80.533L1854.197,-55.729L1828.887,-55.729L1828.887,-80.533" />
      <path
         id="path5870"
         style="stroke:#ff0000;stroke-width:3.47952756;fill:none;stroke-opacity:1;stroke-miterlimit:4;stroke-dasharray:none"
         d="M1778.269,-80.533L1778.269,-80.533L1803.578,-80.533L1803.578,-55.729L1778.269,-55.729L1778.269,-80.533" />
      <path
         id="path5872"
         style="stroke:#ff0000;stroke-width:3.47952756;fill:none;stroke-opacity:1;stroke-miterlimit:4;stroke-dasharray:none"
         d="M1727.650,-80.533L1727.650,-80.533L1752.959,-80.533L1752.959,-55.729L1727.650,-55.729L1727.650,-80.533" />
    </g>
  </g>
</svg>
