<?xml version="1.0" encoding="UTF-8" standalone="no"?>
<svg
   xmlns:dc="http://purl.org/dc/elements/1.1/"
   xmlns:cc="http://creativecommons.org/ns#"
   xmlns:rdf="http://www.w3.org/1999/02/22-rdf-syntax-ns#"
   xmlns:svg="http://www.w3.org/2000/svg"
   xmlns="http://www.w3.org/2000/svg"
   xmlns:sodipodi="http://sodipodi.sourceforge.net/DTD/sodipodi-0.dtd"
   xmlns:inkscape="http://www.inkscape.org/namespaces/inkscape"
   version="1.1"
   width="1843.2"
   height="1843.2"
   id="svg2"
   inkscape:version="0.92.0 r"
   viewBox="0 0 1843.2 1843.2"
   sodipodi:docname="intersects.svg">
  <metadata
     id="metadata36">
    <rdf:RDF>
      <cc:Work
         rdf:about="">
        <dc:format>image/svg+xml</dc:format>
        <dc:type
           rdf:resource="http://purl.org/dc/dcmitype/StillImage" />
        <dc:title />
      </cc:Work>
    </rdf:RDF>
  </metadata>
  <defs
     id="defs34" />
  <sodipodi:namedview
     pagecolor="#ffffff"
     bordercolor="#666666"
     borderopacity="1"
     objecttolerance="10"
     gridtolerance="10"
     guidetolerance="10"
     inkscape:pageopacity="0"
     inkscape:pageshadow="2"
     inkscape:window-width="960"
     inkscape:window-height="1018"
     id="namedview32"
     showgrid="false"
     inkscape:zoom="0.08"
     inkscape:cx="1498.7853"
     inkscape:cy="632.02129"
     inkscape:window-x="960"
     inkscape:window-y="34"
     inkscape:window-maximized="0"
     inkscape:current-layer="svg2" />
  <path
     style="fill:#b7b7c8;stroke-width:0.9375"
     d="M 387.83899,276.17792 A 137.28813,144.15254 0 0 1 250.55086,420.33046 137.28813,144.15254 0 0 1 113.26273,276.17792 137.28813,144.15254 0 0 1 250.55086,132.02538 137.28813,144.15254 0 0 1 387.83899,276.17792 Z"
     id="path21"
     inkscape:connector-curvature="0" />
  <path
     style="fill:#b7b7c8;stroke-width:0.93749994"
     d="M 837.45761,307.06778 A 137.28812,144.15253 0 0 1 700.16949,451.22031 137.28812,144.15253 0 0 1 562.88138,307.06778 137.28812,144.15253 0 0 1 700.16949,162.91525 137.28812,144.15253 0 0 1 837.45761,307.06778 Z"
     id="path21-3"
     inkscape:connector-curvature="0" />
  <path
     style="fill:#b7b7c8;stroke-width:0.93749994"
     d="M 1256.1864,578.21185 A 137.28812,144.15253 0 0 1 1118.8983,722.36438 137.28812,144.15253 0 0 1 981.6102,578.21185 137.28812,144.15253 0 0 1 1118.8983,434.05933 137.28812,144.15253 0 0 1 1256.1864,578.21185 Z"
     id="path21-6"
     inkscape:connector-curvature="0" />
  <path
     style="fill:#b7b7c8;stroke-width:0.93749994"
     d="M 1115.4661,1020.9661 A 137.28812,144.15253 0 0 1 978.17798,1165.1187 137.28812,144.15253 0 0 1 840.88986,1020.9661 137.28812,144.15253 0 0 1 978.17798,876.8136 137.28812,144.15253 0 0 1 1115.4661,1020.9661 Z"
     id="path21-7"
     inkscape:connector-curvature="0" />
  <path
     style="fill:#b7b7c8;stroke-width:0.93749994"
     d="M 387.83897,993.50848 A 137.28812,144.15253 0 0 1 250.55086,1137.661 137.28812,144.15253 0 0 1 113.26274,993.50848 137.28812,144.15253 0 0 1 250.55086,849.35596 137.28812,144.15253 0 0 1 387.83897,993.50848 Z"
     id="path21-5"
     inkscape:connector-curvature="0" />
  <path
     style="fill:#b7b7c8;stroke-width:0.93749994"
     d="M 212.79659,-1.8305426 A 137.28812,144.15253 0 0 1 75.508476,142.32198 137.28812,144.15253 0 0 1 -61.77964,-1.8305426 137.28812,144.15253 0 0 1 75.508476,-145.98307 137.28812,144.15253 0 0 1 212.79659,-1.8305426 Z"
     id="path21-35"
     inkscape:connector-curvature="0" />
  <path
     style="fill:#b7b7c8;stroke-width:0.93749994"
     d="m 1674.9153,-283.27124 a 137.28812,144.15253 0 0 1 -137.2881,144.15253 137.28812,144.15253 0 0 1 -137.2881,-144.15253 137.28812,144.15253 0 0 1 137.2881,-144.15253 137.28812,144.15253 0 0 1 137.2881,144.15253 z"
     id="path21-62"
     inkscape:connector-curvature="0" />
  <path
     style="fill:#b7b7c8;stroke-width:0.93749994"
     d="m 2004.4068,1360.7543 a 137.28812,144.15253 0 0 1 -137.2881,144.1525 137.28812,144.15253 0 0 1 -137.2882,-144.1525 137.28812,144.15253 0 0 1 137.2882,-144.1526 137.28812,144.15253 0 0 1 137.2881,144.1526 z"
     id="path21-9"
     inkscape:connector-curvature="0" />
  <path
     style="fill:#b7b7c8;stroke-width:0.93749994"
     d="M 360.38135,1601.0084 A 137.28812,144.15253 0 0 1 223.09323,1745.1609 137.28812,144.15253 0 0 1 85.805115,1601.0084 137.28812,144.15253 0 0 1 223.09323,1456.8559 137.28812,144.15253 0 0 1 360.38135,1601.0084 Z"
     id="path21-1"
     inkscape:connector-curvature="0" />
  <path
     style="fill:#b7b7c8;stroke-width:0.93749994"
     d="M 696.73727,180.07625 A 137.28812,144.15253 0 0 1 559.44916,324.22878 137.28812,144.15253 0 0 1 422.16104,180.07625 137.28812,144.15253 0 0 1 559.44916,35.923721 137.28812,144.15253 0 0 1 696.73727,180.07625 Z"
     id="path21-2"
     inkscape:connector-curvature="0" />
  <path
     style="fill:#b7b7c8;stroke-width:0.93749994"
     d="M 2014.7034,739.52539 A 137.28812,144.15253 0 0 1 1877.4153,883.67792 137.28812,144.15253 0 0 1 1740.1272,739.52539 137.28812,144.15253 0 0 1 1877.4153,595.37286 137.28812,144.15253 0 0 1 2014.7034,739.52539 Z"
     id="path21-70"
     inkscape:connector-curvature="0" />
  <path
     style="fill:#b7b7c8;stroke-width:0.93749994"
     d="M 315.7627,1480.8813 A 137.28812,144.15253 0 0 1 178.47458,1625.0339 137.28812,144.15253 0 0 1 41.186462,1480.8813 137.28812,144.15253 0 0 1 178.47458,1336.7288 137.28812,144.15253 0 0 1 315.7627,1480.8813 Z"
     id="path21-93"
     inkscape:connector-curvature="0" />
  <path
     style="fill:#b7b7c8;stroke-width:0.93749994"
     d="M 707.03391,183.50844 A 137.28812,144.15253 0 0 1 569.74579,327.66096 137.28812,144.15253 0 0 1 432.45767,183.50844 137.28812,144.15253 0 0 1 569.74579,39.355911 137.28812,144.15253 0 0 1 707.03391,183.50844 Z"
     id="path21-60"
     inkscape:connector-curvature="0" />
  <path
     style="fill:#b7b7c8;stroke-width:0.93749994"
     d="m 1836.2288,1192.5763 a 137.28812,144.15253 0 0 1 -137.2881,144.1525 137.28812,144.15253 0 0 1 -137.2881,-144.1525 137.28812,144.15253 0 0 1 137.2881,-144.1525 137.28812,144.15253 0 0 1 137.2881,144.1525 z"
     id="path21-626"
     inkscape:connector-curvature="0" />
  <path
     style="fill:#b7b7c8;stroke-width:0.93749994"
     d="M 72.076248,1522.0677 A 137.28812,144.15253 0 0 1 -65.211868,1666.2203 137.28812,144.15253 0 0 1 -202.49998,1522.0677 137.28812,144.15253 0 0 1 -65.211868,1377.9152 137.28812,144.15253 0 0 1 72.076248,1522.0677 Z"
     id="path21-18"
     inkscape:connector-curvature="0" />
  <path
     style="fill:#b7b7c8;stroke-width:0.93749994"
     d="M 501.10168,56.516914 A 137.28812,144.15253 0 0 1 363.81357,200.66944 137.28812,144.15253 0 0 1 226.52545,56.516914 137.28812,144.15253 0 0 1 363.81357,-87.635612 137.28812,144.15253 0 0 1 501.10168,56.516914 Z"
     id="path21-79"
     inkscape:connector-curvature="0" />
  <path
     style="fill:#b7b7c8;stroke-width:0.93749994"
     d="M 1990.678,475.24573 A 137.28812,144.15253 0 0 1 1853.3899,619.39825 137.28812,144.15253 0 0 1 1716.1018,475.24573 137.28812,144.15253 0 0 1 1853.3899,331.0932 137.28812,144.15253 0 0 1 1990.678,475.24573 Z"
     id="path21-20"
     inkscape:connector-curvature="0" />
  <path
     style="fill:#b7b7c8;stroke-width:0.93749994"
     d="M 830.59323,1645.6271 A 137.28812,144.15253 0 0 1 693.30511,1789.7796 137.28812,144.15253 0 0 1 556.017,1645.6271 137.28812,144.15253 0 0 1 693.30511,1501.4745 137.28812,144.15253 0 0 1 830.59323,1645.6271 Z"
     id="path21-23"
     inkscape:connector-curvature="0" />
  <path
     style="fill:#b7b7c8;stroke-width:0.93749994"
     d="M 405,238.42371 A 137.28812,144.15253 0 0 1 267.71188,382.57623 137.28812,144.15253 0 0 1 130.42377,238.42371 137.28812,144.15253 0 0 1 267.71188,94.271179 137.28812,144.15253 0 0 1 405,238.42371 Z"
     id="path21-75"
     inkscape:connector-curvature="0" />
  <path
     style="fill:#b7b7c8;stroke-width:0.93749994"
     d="M 1860.2543,149.18642 A 137.28812,144.15253 0 0 1 1722.9662,293.33894 137.28812,144.15253 0 0 1 1585.6781,149.18642 137.28812,144.15253 0 0 1 1722.9662,5.0338898 137.28812,144.15253 0 0 1 1860.2543,149.18642 Z"
     id="path21-92"
     inkscape:connector-curvature="0" />
  <path
     style="fill:#b7b7c8;stroke-width:0.93749994"
     d="m 1678.3474,1419.1017 a 137.28812,144.15253 0 0 1 -137.2881,144.1525 137.28812,144.15253 0 0 1 -137.2881,-144.1525 137.28812,144.15253 0 0 1 137.2881,-144.1525 137.28812,144.15253 0 0 1 137.2881,144.1525 z"
     id="path21-28"
     inkscape:connector-curvature="0" />
  <path
     style="fill:#b7b7c8;stroke-width:0.93749994"
     d="M 188.77117,1391.644 A 137.28812,144.15253 0 0 1 51.483051,1535.7966 137.28812,144.15253 0 0 1 -85.805065,1391.644 137.28812,144.15253 0 0 1 51.483051,1247.4915 137.28812,144.15253 0 0 1 188.77117,1391.644 Z"
     id="path21-97"
     inkscape:connector-curvature="0" />
  <path
     style="fill:#b7b7c8;stroke-width:0.93749994"
     d="M 178.47456,-12.127153 A 137.28812,144.15253 0 0 1 41.186443,132.02537 137.28812,144.15253 0 0 1 -96.101673,-12.127153 137.28812,144.15253 0 0 1 41.186443,-156.27968 137.28812,144.15253 0 0 1 178.47456,-12.127153 Z"
     id="path21-36"
     inkscape:connector-curvature="0" />
  <path
     style="fill:#b7b7c8;stroke-width:0.93749994"
     d="M 1791.6101,653.72034 A 137.28812,144.15253 0 0 1 1654.322,797.87286 137.28812,144.15253 0 0 1 1517.0339,653.72034 137.28812,144.15253 0 0 1 1654.322,509.56781 137.28812,144.15253 0 0 1 1791.6101,653.72034 Z"
     id="path21-12"
     inkscape:connector-curvature="0" />
  <path
     style="fill:#b7b7c8;stroke-width:0.93749994"
     d="M 775.67795,1944.2288 A 137.28812,144.15253 0 0 1 638.38983,2088.3813 137.28812,144.15253 0 0 1 501.10172,1944.2288 137.28812,144.15253 0 0 1 638.38983,1800.0762 137.28812,144.15253 0 0 1 775.67795,1944.2288 Z"
     id="path21-931"
     inkscape:connector-curvature="0" />
  <path
     style="fill:#b7b7c8;stroke-width:0.93749994"
     d="M 1922.034,598.80505 A 137.28812,144.15253 0 0 1 1784.7458,742.95758 137.28812,144.15253 0 0 1 1647.4577,598.80505 137.28812,144.15253 0 0 1 1784.7458,454.65253 137.28812,144.15253 0 0 1 1922.034,598.80505 Z"
     id="path21-94"
     inkscape:connector-curvature="0" />
  <path
     style="fill:#b7b7c8;stroke-width:0.93749994"
     d="M 2375.0847,207.53387 A 137.28812,144.15253 0 0 1 2237.7966,351.6864 137.28812,144.15253 0 0 1 2100.5085,207.53387 137.28812,144.15253 0 0 1 2237.7966,63.381348 137.28812,144.15253 0 0 1 2375.0847,207.53387 Z"
     id="path21-78"
     inkscape:connector-curvature="0" />
  <path
     style="fill:#b7b7c8;stroke-width:0.93749994"
     d="M 703.60172,629.69489 A 137.28812,144.15253 0 0 1 566.3136,773.84741 137.28812,144.15253 0 0 1 429.02548,629.69489 137.28812,144.15253 0 0 1 566.3136,485.54236 137.28812,144.15253 0 0 1 703.60172,629.69489 Z"
     id="path21-4"
     inkscape:connector-curvature="0" />
  <path
     style="fill:#b7b7c8;stroke-width:0.93749994"
     d="M 809.99997,1738.2966 A 137.28812,144.15253 0 0 1 672.71185,1882.4492 137.28812,144.15253 0 0 1 535.42374,1738.2966 137.28812,144.15253 0 0 1 672.71185,1594.1441 137.28812,144.15253 0 0 1 809.99997,1738.2966 Z"
     id="path21-50"
     inkscape:connector-curvature="0" />
  <path
     style="fill:#b7b7c8;stroke-width:0.93749994"
     d="M 2117.6695,650.28809 A 137.28812,144.15253 0 0 1 1980.3813,794.44061 137.28812,144.15253 0 0 1 1843.0932,650.28809 137.28812,144.15253 0 0 1 1980.3813,506.13556 137.28812,144.15253 0 0 1 2117.6695,650.28809 Z"
     id="path21-361"
     inkscape:connector-curvature="0" />
  <path
     style="fill:#b7b7c8;stroke-width:0.93749994"
     d="M 1118.8983,248.72031 A 137.28812,144.15253 0 0 1 981.61017,392.87283 137.28812,144.15253 0 0 1 844.32205,248.72031 137.28812,144.15253 0 0 1 981.61017,104.56778 137.28812,144.15253 0 0 1 1118.8983,248.72031 Z"
     id="path21-0"
     inkscape:connector-curvature="0" />
  <path
     style="fill:#b7b7c8;stroke-width:0.93749994"
     d="M 1129.1949,1034.6949 A 137.28812,144.15253 0 0 1 991.9068,1178.8475 137.28812,144.15253 0 0 1 854.61868,1034.6949 137.28812,144.15253 0 0 1 991.9068,890.54242 137.28812,144.15253 0 0 1 1129.1949,1034.6949 Z"
     id="path21-63"
     inkscape:connector-curvature="0" />
  <path
     style="fill:#b7b7c8;stroke-width:0.93749994"
     d="M 2440.2967,650.28809 A 137.28812,144.15253 0 0 1 2303.0085,794.44061 137.28812,144.15253 0 0 1 2165.7204,650.28809 137.28812,144.15253 0 0 1 2303.0085,506.13556 137.28812,144.15253 0 0 1 2440.2967,650.28809 Z"
     id="path21-206"
     inkscape:connector-curvature="0" />
  <path
     style="fill:#b7b7c8;stroke-width:0.93749994"
     d="m 2292.7119,1614.7373 a 137.28812,144.15253 0 0 1 -137.2881,144.1525 137.28812,144.15253 0 0 1 -137.2881,-144.1525 137.28812,144.15253 0 0 1 137.2881,-144.1525 137.28812,144.15253 0 0 1 137.2881,144.1525 z"
     id="path21-15"
     inkscape:connector-curvature="0" />
  <path
     style="fill:#b7b7c8;stroke-width:0.93749994"
     d="M 429.02542,646.8559 A 137.28812,144.15253 0 0 1 291.7373,791.00842 137.28812,144.15253 0 0 1 154.44919,646.8559 137.28812,144.15253 0 0 1 291.7373,502.70337 137.28812,144.15253 0 0 1 429.02542,646.8559 Z"
     id="path21-54"
     inkscape:connector-curvature="0" />
  <path
     style="fill:#b7b7c8;stroke-width:0.93749994"
     d="M 2457.4576,533.5932 A 137.28812,144.15253 0 0 1 2320.1694,677.74573 137.28812,144.15253 0 0 1 2182.8813,533.5932 137.28812,144.15253 0 0 1 2320.1694,389.44067 137.28812,144.15253 0 0 1 2457.4576,533.5932 Z"
     id="path21-76"
     inkscape:connector-curvature="0" />
  <path
     style="fill:#b7b7c8;stroke-width:0.93749994"
     d="M 1620,1549.5254 A 137.28812,144.15253 0 0 1 1482.7119,1693.6779 137.28812,144.15253 0 0 1 1345.4238,1549.5254 137.28812,144.15253 0 0 1 1482.7119,1405.3729 137.28812,144.15253 0 0 1 1620,1549.5254 Z"
     id="path21-56"
     inkscape:connector-curvature="0" />
  <path
     style="fill:#b7b7c8;stroke-width:0.93749994"
     d="M 895.80508,537.02539 A 137.28812,144.15253 0 0 1 758.51697,681.17792 137.28812,144.15253 0 0 1 621.22885,537.02539 137.28812,144.15253 0 0 1 758.51697,392.87286 137.28812,144.15253 0 0 1 895.80508,537.02539 Z"
     id="path21-937"
     inkscape:connector-curvature="0" />
  <path
     style="fill:#b7b7c8;stroke-width:0.93749994"
     d="M 2416.2713,972.91522 A 137.28812,144.15253 0 0 1 2278.9832,1117.0677 137.28812,144.15253 0 0 1 2141.695,972.91522 137.28812,144.15253 0 0 1 2278.9832,828.7627 137.28812,144.15253 0 0 1 2416.2713,972.91522 Z"
     id="path21-45"
     inkscape:connector-curvature="0" />
</svg>
