<?xml version="1.0" encoding="UTF-8" standalone="no"?>
<!-- Created with Inkscape (http://www.inkscape.org/) -->

<svg
   xmlns:dc="http://purl.org/dc/elements/1.1/"
   xmlns:cc="http://creativecommons.org/ns#"
   xmlns:rdf="http://www.w3.org/1999/02/22-rdf-syntax-ns#"
   xmlns:svg="http://www.w3.org/2000/svg"
   xmlns="http://www.w3.org/2000/svg"
   xmlns:sodipodi="http://sodipodi.sourceforge.net/DTD/sodipodi-0.dtd"
   xmlns:inkscape="http://www.inkscape.org/namespaces/inkscape"
   sodipodi:docname="lots_less.svg"
   inkscape:version="0.91 r13725"
   version="1.1"
   id="svg20000"
   viewBox="0 0 793.09449 1122.3622"
   height="297mm"
   width="210mm">
  <sodipodi:namedview
     inkscape:window-maximized="1"
     inkscape:window-y="28"
     inkscape:window-x="0"
     inkscape:window-height="800"
     inkscape:window-width="1600"
     showgrid="false"
     inkscape:current-layer="layer10000"
     inkscape:document-units="px"
     inkscape:cy="486.7842"
     inkscape:cx="408.70658"
     inkscape:zoom="0.45254834"
     inkscape:pageshadow="2"
     inkscape:pageopacity="0.0"
     borderopacity="1.0"
     bordercolor="#666666"
     pagecolor="#ffffff"
     id="base0000" />
  <defs
     id="defs40000" />
  <metadata
     id="metadata70000">
    <rdf:RDF>
      <cc:Work
         rdf:about="">
        <dc:format>image/svg+xml</dc:format>
        <dc:type
           rdf:resource="http://purl.org/dc/dcmitype/StillImage" />
        <dc:title />
      </cc:Work>
    </rdf:RDF>
  </metadata>
  <g
     id="layer10000"
     inkscape:groupmode="layer"
     inkscape:label="Calque 1">
    <rect
       y="936.99988"
       x="155.82817"
       height="98.994949"
       width="107.07617"
       id="rect36350000"
       style="fill:#ffd42a"
       transform="matrix(1, 5.55112e-16, -5.55112e-16, 1, 7.1e-05, -0.00025) matrix(1, -0, 0, 1, -254.109, 910.666) matrix(1, -0, 0, 1, 6.9e-05, -5388.09) matrix(1, 6.66134e-16, -6.66134e-16, 1, 219.499, 4562.21)" />
  </g>
  <rect
     y="515.8725"
     x="579.72583"
     height="80.812202"
     width="105.05586"
     id="rect42890000"
     style="fill:#800000"
     transform="matrix(1, -0, 0, 1, 2.72848e-12, -1.81899e-12) matrix(1, -0, 0, 1, 0.00017, 0.00435) matrix(1, -0, 0, 1, -238.396, -6157.8) matrix(1, 4.77396e-15, -4.77396e-15, 1, -341.33, 6671.79)" />
  <rect
     y="361.21286"
     x="48.755062"
     height="123.23861"
     width="105.05586"
     id="rect35180000"
     style="fill:#000080"
     transform="matrix(1, -0, 0, 1, 0, -4.54747e-13) matrix(1, -0, 0, 1, -5.25802e-13, -0.00062) matrix(1, -0, 0, 1, 3.8e-05, -5511.33) matrix(1, -1.44329e-15, 1.44329e-15, 1, -48.7551, 5818.35)" />
  <rect
     y="464.6196"
     x="109.69888"
     height="123.23861"
     width="105.05586"
     id="rect42920000"
     style="fill:#000080"
     transform="matrix(1, -0, 0, 1, 0, -2.27374e-13) matrix(1, -0, 0, 1, -6.6791e-13, 0.00125) matrix(1, -0, 0, 1, 0.00012, -5264.86) matrix(1, -1.44329e-15, 1.44329e-15, 1, -109.699, 5591.71)" />
  <rect
     y="484.45151"
     x="48.755058"
     height="115.15739"
     width="121.21831"
     id="rect35280000"
     style="fill:#c8b7b7"
     transform="matrix(1, -0, 0, 1, -6.82121e-13, 0.00049) matrix(1, -0, 0, 1, -3.8e-05, -400.942) matrix(1, -0, 0, 1, 27.8348, -5778.62) matrix(1, -1.44329e-15, 1.44329e-15, 1, 56.3008, 5695.11)" />
  <rect
     y="703.01562"
     x="109.69888"
     height="115.15739"
     width="121.21831"
     id="rect43220000"
     style="fill:#c8b7b7"
     transform="matrix(1, -1.11022e-16, 1.11022e-16, 1, 2.17426e-12, 0.00023) matrix(1, -1.11022e-16, 1.11022e-16, 1, -27.8348, 791.475) matrix(1, -0, 0, 1, 27.8348, -6056.33) matrix(1, 2.55351e-15, -2.55351e-15, 1, -4.64302, 5353.31)" />
  <rect
     y="599.60889"
     x="48.755058"
     height="115.15739"
     width="121.21831"
     id="rect37100000"
     style="fill:#c8b7b7"
     transform="matrix(1, -0, 0, 1, -9.37916e-13, -0.00046) matrix(1, -0, 0, 1, -2.8e-05, -133.649) matrix(1, -0, 0, 1, 11.6723, -5760.13) matrix(1, -1.44329e-15, 1.44329e-15, 1, 72.4633, 5695.11)" />
  <rect
     y="587.85828"
     x="109.69888"
     height="115.15739"
     width="121.21831"
     id="rect43250000"
     style="fill:#c8b7b7"
     transform="matrix(1, -5.55112e-16, 5.55112e-16, 1, 0.000381, 0.00018) matrix(1, -0, 0, 1, -132.891, 781.061) matrix(1, -0, 0, 1, 3.9e-05, -5388.09) matrix(1, 2.55351e-15, -2.55351e-15, 1, 23.1917, 4933.88)" />
  <rect
     y="891.36292"
     x="138.5504"
     height="111.11678"
     width="121.21831"
     id="rect4265-30000"
     style="fill:#0000ff"
     transform="matrix(1, 1.11022e-16, -1.11022e-16, 1, 3e-05, -5e-05) matrix(1, -0, 0, 1, -93.3836, -400.939) matrix(1, 1.11022e-16, -1.11022e-16, 1, -16.1622, -5610.33) matrix(1, 3.10862e-15, -3.10862e-15, 1, 103.886, 5368.71)" />
  <rect
     y="446.52463"
     x="77.60656"
     height="115.15739"
     width="121.21831"
     id="rect3528-90000"
     style="fill:#c8b7b7"
     transform="matrix(1, -0, 0, 1, -11.6724, 372.043) matrix(1, -0, 0, 1, 132.891, -380.119) matrix(1, -0, 0, 1, -132.891, -4473.39) matrix(1, -1.44329e-15, 1.44329e-15, 1, 55.2841, 4941.57)" />
  <rect
     y="665.08875"
     x="138.5504"
     height="115.15739"
     width="121.21831"
     id="rect4322-80000"
     style="fill:#c8b7b7"
     transform="matrix(1, -0, 0, 1, -1e-05, 400.939) matrix(1, -0, 0, 1, 27.8348, -657.822) matrix(1, 1.11022e-16, -1.11022e-16, 1, -27.8348, -4997.57) matrix(1, -1.44329e-15, 1.44329e-15, 1, -5.65977, 5123.95)" />
  <rect
     y="561.68201"
     x="77.60656"
     height="115.15739"
     width="121.21831"
     id="rect3710-70000"
     style="fill:#c8b7b7"
     transform="matrix(1, -0, 0, 1, 11.6724, -772.982) matrix(1, -0, 0, 1, 16.1624, 238.396) matrix(1, -0, 0, 1, -27.8348, -5254.45) matrix(1, -1.44329e-15, 1.44329e-15, 1, 55.2841, 5361)" />
  <rect
     y="549.9314"
     x="138.5504"
     height="115.15739"
     width="121.21831"
     id="rect4325-00000"
     style="fill:#c8b7b7"
     transform="matrix(1, -0, 0, 1, -4e-05, -0.00016) matrix(1, -0, 0, 1, -16.1625, -238.399) matrix(1, -0, 0, 1, 121.218, -5396.17) matrix(1, 2.55351e-15, -2.55351e-15, 1, -138.55, 5752.87)" />
</svg>
