<?xml version="1.0" encoding="UTF-8" standalone="no"?>
<svg
   xmlns:dc="http://purl.org/dc/elements/1.1/"
   xmlns:cc="http://creativecommons.org/ns#"
   xmlns:rdf="http://www.w3.org/1999/02/22-rdf-syntax-ns#"
   xmlns:svg="http://www.w3.org/2000/svg"
   xmlns="http://www.w3.org/2000/svg"
   xmlns:sodipodi="http://sodipodi.sourceforge.net/DTD/sodipodi-0.dtd"
   xmlns:inkscape="http://www.inkscape.org/namespaces/inkscape"
   version="1.1"
   width="1843.2"
   height="1843.2"
   id="svg2"
   inkscape:version="0.92.0 r"
   viewBox="0 0 1728 1728"
   sodipodi:docname="intersects.svg">
  <metadata
     id="metadata36">
    <rdf:RDF>
      <cc:Work
         rdf:about="">
        <dc:format>image/svg+xml</dc:format>
        <dc:type
           rdf:resource="http://purl.org/dc/dcmitype/StillImage" />
        <dc:title></dc:title>
      </cc:Work>
    </rdf:RDF>
  </metadata>
  <defs
     id="defs34" />
  <sodipodi:namedview
     pagecolor="#ffffff"
     bordercolor="#666666"
     borderopacity="1"
     objecttolerance="10"
     gridtolerance="10"
     guidetolerance="10"
     inkscape:pageopacity="0"
     inkscape:pageshadow="2"
     inkscape:window-width="1920"
     inkscape:window-height="1052"
     id="namedview32"
     showgrid="false"
     inkscape:zoom="0.22627417"
     inkscape:cx="-156.02081"
     inkscape:cy="686.88214"
     inkscape:window-x="1920"
     inkscape:window-y="0"
     inkscape:window-maximized="1"
     inkscape:current-layer="svg2" />
  <path
     style="fill:none;fill-rule:evenodd;stroke:#000000;stroke-width:0.9375px;stroke-linecap:butt;stroke-linejoin:miter;stroke-opacity:1"
     d="m 178.15777,528.54246 c 0,0 -25.89503,-129.47512 114.97391,-120.15291 140.86893,9.32221 128.43932,223.73301 73.54187,243.41323 -54.89746,19.68021 -189.55159,-12.42961 -188.51578,-123.26032 z"
     id="path47"
     inkscape:connector-curvature="0" />
  <path
     style="fill:none;fill-rule:evenodd;stroke:#000000;stroke-width:0.93749994px;stroke-linecap:butt;stroke-linejoin:miter;stroke-opacity:1"
     d="m 666.35765,592.8681 c 0,0 -25.89503,-129.47512 114.97391,-120.15291 140.86892,9.32221 128.43931,223.733 73.54186,243.41322 C 799.97597,735.80862 665.32184,703.6988 666.35765,592.8681 Z"
     id="path47-3"
     inkscape:connector-curvature="0" />
  <path
     style="fill:none;fill-rule:evenodd;stroke:#000000;stroke-width:0.93749994px;stroke-linecap:butt;stroke-linejoin:miter;stroke-opacity:1"
     d="m 666.35765,592.8681 c 0,0 -25.89503,-129.47512 114.97391,-120.15291 140.86892,9.32221 128.43931,223.733 73.54186,243.41322 C 799.97597,735.80862 665.32184,703.6988 666.35765,592.8681 Z"
     id="path47-6"
     inkscape:connector-curvature="0" />
  <path
     style="fill:none;fill-rule:evenodd;stroke:#000000;stroke-width:0.93749994px;stroke-linecap:butt;stroke-linejoin:miter;stroke-opacity:1"
     d="m 666.35765,592.8681 c 0,0 -25.89503,-129.47512 114.97391,-120.15291 140.86892,9.32221 128.43931,223.733 73.54186,243.41322 C 799.97597,735.80862 665.32184,703.6988 666.35765,592.8681 Z"
     id="path47-7"
     inkscape:connector-curvature="0" />
  <path
     style="fill:none;fill-rule:evenodd;stroke:#000000;stroke-width:0.93749994px;stroke-linecap:butt;stroke-linejoin:miter;stroke-opacity:1"
     d="m 61.449877,916.038 c 0,0 -25.895029,-129.47512 114.973913,-120.15291 140.86892,9.32221 128.43931,223.73301 73.54186,243.41321 C 195.0682,1058.9785 60.414067,1026.8687 61.449877,916.038 Z"
     id="path47-5"
     inkscape:connector-curvature="0" />
  <path
     style="fill:none;fill-rule:evenodd;stroke:#000000;stroke-width:0.93749994px;stroke-linecap:butt;stroke-linejoin:miter;stroke-opacity:1"
     d="m -555.88751,360.84868 c 0,0 -25.89503,-129.47512 114.97391,-120.15291 140.86892,9.32221 128.43931,223.733 73.54186,243.41322 -54.89745,19.68021 -189.55158,-12.42961 -188.51577,-123.26031 z"
     id="path47-35"
     inkscape:connector-curvature="0" />
  <path
     style="fill:none;fill-rule:evenodd;stroke:#000000;stroke-width:0.93749994px;stroke-linecap:butt;stroke-linejoin:miter;stroke-opacity:1"
     d="m 753.36493,25.249161 c 0,0 -25.89503,-129.475121 114.97391,-120.152909 C 1009.2078,-85.581539 996.77815,128.82925 941.8807,148.50947 886.98325,168.18968 752.32912,136.07986 753.36493,25.249161 Z"
     id="path47-62"
     inkscape:connector-curvature="0" />
  <path
     style="fill:none;fill-rule:evenodd;stroke:#000000;stroke-width:0.93749994px;stroke-linecap:butt;stroke-linejoin:miter;stroke-opacity:1"
     d="m 1155.2557,982.32927 c 0,0 -25.895,-129.47512 114.9739,-120.15291 140.8689,9.32221 128.4393,223.73304 73.5419,243.41324 -54.8975,19.6802 -189.5516,-12.4296 -188.5158,-123.26033 z"
     id="path47-9"
     inkscape:connector-curvature="0" />
  <path
     style="fill:none;fill-rule:evenodd;stroke:#000000;stroke-width:0.93749994px;stroke-linecap:butt;stroke-linejoin:miter;stroke-opacity:1"
     d="m -87.705464,998.90208 c 0,0 -25.895026,-129.47512 114.973911,-120.15291 140.868923,9.32221 128.439313,223.73303 73.541863,243.41323 -54.897453,19.6802 -189.551584,-12.4296 -188.515774,-123.26032 z"
     id="path47-1"
     inkscape:connector-curvature="0" />
  <path
     style="fill:none;fill-rule:evenodd;stroke:#000000;stroke-width:0.93749994px;stroke-linecap:butt;stroke-linejoin:miter;stroke-opacity:1"
     d="m 649.78483,211.69334 c 0,0 -25.89503,-129.475122 114.97391,-120.152912 C 905.62766,100.86264 893.19805,315.27343 838.3006,334.95365 783.40315,354.63386 648.74902,322.52404 649.78483,211.69334 Z"
     id="path47-2"
     inkscape:connector-curvature="0" />
  <path
     style="fill:none;fill-rule:evenodd;stroke:#000000;stroke-width:0.93749994px;stroke-linecap:butt;stroke-linejoin:miter;stroke-opacity:1"
     d="m 1018.53,1168.7734 c 0,0 -25.89505,-129.4751 114.9739,-120.1529 140.8689,9.3222 128.4393,223.733 73.5419,243.4133 -54.8975,19.6802 -189.5516,-12.4297 -188.5158,-123.2604 z"
     id="path47-70"
     inkscape:connector-curvature="0" />
  <path
     style="fill:none;fill-rule:evenodd;stroke:#000000;stroke-width:0.93749994px;stroke-linecap:butt;stroke-linejoin:miter;stroke-opacity:1"
     d="m -394.30255,969.89965 c 0,0 -25.89503,-129.47512 114.97391,-120.15291 140.86892,9.32221 128.43931,223.73296 73.54186,243.41326 -54.89745,19.6802 -189.55158,-12.4296 -188.51577,-123.26035 z"
     id="path47-93"
     inkscape:connector-curvature="0" />
  <path
     style="fill:none;fill-rule:evenodd;stroke:#000000;stroke-width:0.93749994px;stroke-linecap:butt;stroke-linejoin:miter;stroke-opacity:1"
     d="m 981.24115,153.68848 c 0,0 -25.89503,-129.475116 114.97395,-120.152907 140.8689,9.32221 128.4393,223.732997 73.5418,243.413217 C 1114.8595,296.629 980.20534,264.51918 981.24115,153.68848 Z"
     id="path47-60"
     inkscape:connector-curvature="0" />
  <path
     style="fill:none;fill-rule:evenodd;stroke:#000000;stroke-width:0.93749994px;stroke-linecap:butt;stroke-linejoin:miter;stroke-opacity:1"
     d="m 620.78241,1483.6569 c 0,0 -25.89503,-129.4751 114.97391,-120.1529 140.86892,9.3222 128.43931,223.733 73.54186,243.4132 -54.89745,19.6803 -189.55158,-12.4296 -188.51577,-123.2603 z"
     id="path47-626"
     inkscape:connector-curvature="0" />
  <path
     style="fill:none;fill-rule:evenodd;stroke:#000000;stroke-width:0.93749994px;stroke-linecap:butt;stroke-linejoin:miter;stroke-opacity:1"
     d="m -361.15692,568.00887 c 0,0 -25.89503,-129.47511 114.97391,-120.15291 140.86892,9.32221 128.43931,223.733 73.54186,243.41322 -54.89745,19.68021 -189.55158,-12.42961 -188.51577,-123.26031 z"
     id="path47-18"
     inkscape:connector-curvature="0" />
  <path
     style="fill:none;fill-rule:evenodd;stroke:#000000;stroke-width:0.93749994px;stroke-linecap:butt;stroke-linejoin:miter;stroke-opacity:1"
     d="m 1130.3965,791.74189 c 0,0 -25.895,-129.47512 114.9739,-120.15291 140.8689,9.32221 128.4393,223.733 73.5419,243.41322 -54.8975,19.68021 -189.5516,-12.42961 -188.5158,-123.26031 z"
     id="path47-79"
     inkscape:connector-curvature="0" />
  <path
     style="fill:none;fill-rule:evenodd;stroke:#000000;stroke-width:0.93749994px;stroke-linecap:butt;stroke-linejoin:miter;stroke-opacity:1"
     d="m -278.29284,1085.9094 c 0,0 -25.89503,-129.47516 114.97391,-120.15295 140.868917,9.32221 128.439307,223.73305 73.541857,243.41325 -54.897447,19.6802 -189.551577,-12.4296 -188.515767,-123.2603 z"
     id="path47-20"
     inkscape:connector-curvature="0" />
  <path
     style="fill:none;fill-rule:evenodd;stroke:#000000;stroke-width:0.93749994px;stroke-linecap:butt;stroke-linejoin:miter;stroke-opacity:1"
     d="m 604.20959,50.108385 c 0,0 -25.89503,-129.475119 114.97391,-120.15291 140.86892,9.32221 128.43931,223.732995 73.54186,243.413215 C 737.82791,193.0489 603.17378,160.93908 604.20959,50.108385 Z"
     id="path47-23"
     inkscape:connector-curvature="0" />
  <path
     style="fill:none;fill-rule:evenodd;stroke:#000000;stroke-width:0.93749994px;stroke-linecap:butt;stroke-linejoin:miter;stroke-opacity:1"
     d="m 359.76056,1392.5065 c 0,0 -25.89503,-129.4752 114.97391,-120.153 140.86892,9.3223 128.43931,223.733 73.54186,243.4133 -54.89745,19.6802 -189.55158,-12.4296 -188.51577,-123.2603 z"
     id="path47-75"
     inkscape:connector-curvature="0" />
  <path
     style="fill:none;fill-rule:evenodd;stroke:#000000;stroke-width:0.93749994px;stroke-linecap:butt;stroke-linejoin:miter;stroke-opacity:1"
     d="m -908.05984,1061.0501 c 0,0 -25.89503,-129.47508 114.97391,-120.15287 140.86892,9.32221 128.43931,223.73297 73.54186,243.41327 -54.89745,19.6802 -189.55158,-12.4297 -188.51577,-123.2604 z"
     id="path47-92"
     inkscape:connector-curvature="0" />
  <path
     style="fill:none;fill-rule:evenodd;stroke:#000000;stroke-width:0.93749994px;stroke-linecap:butt;stroke-linejoin:miter;stroke-opacity:1"
     d="m 223.03483,655.01616 c 0,0 -25.89503,-129.47512 114.97391,-120.15291 140.86892,9.32221 128.43931,223.733 73.54186,243.41322 -54.89745,19.68021 -189.55158,-12.42961 -188.51577,-123.26031 z"
     id="path47-28"
     inkscape:connector-curvature="0" />
  <path
     style="fill:none;fill-rule:evenodd;stroke:#000000;stroke-width:0.93749994px;stroke-linecap:butt;stroke-linejoin:miter;stroke-opacity:1"
     d="m -133.28071,1400.7929 c 0,0 -25.89503,-129.4752 114.973914,-120.1529 140.868916,9.3222 128.439306,223.733 73.54186,243.4132 -54.8974502,19.6802 -189.551584,-12.4296 -188.515774,-123.2603 z"
     id="path47-97"
     inkscape:connector-curvature="0" />
  <path
     style="fill:none;fill-rule:evenodd;stroke:#000000;stroke-width:0.93749994px;stroke-linecap:butt;stroke-linejoin:miter;stroke-opacity:1"
     d="m -124.9943,493.4312 c 0,0 -25.89503,-129.47512 114.973912,-120.15291 140.868918,9.32221 128.439308,223.733 73.54186,243.41322 C 8.6240216,636.37172 -126.03011,604.2619 -124.9943,493.4312 Z"
     id="path47-36"
     inkscape:connector-curvature="0" />
  <path
     style="fill:none;fill-rule:evenodd;stroke:#000000;stroke-width:0.93749994px;stroke-linecap:butt;stroke-linejoin:miter;stroke-opacity:1"
     d="m 533.77512,1048.6205 c 0,0 -25.89503,-129.47509 114.97391,-120.15288 140.86892,9.32221 128.43931,223.73298 73.54186,243.41318 -54.89745,19.6802 -189.55158,-12.4296 -188.51577,-123.2603 z"
     id="path47-12"
     inkscape:connector-curvature="0" />
  <path
     style="fill:none;fill-rule:evenodd;stroke:#000000;stroke-width:0.93749994px;stroke-linecap:butt;stroke-linejoin:miter;stroke-opacity:1"
     d="m 57.306673,588.72489 c 0,0 -25.895029,-129.47512 114.973907,-120.15291 140.86892,9.32221 128.43931,223.733 73.54186,243.41322 C 190.92499,731.66541 56.270863,699.55559 57.306673,588.72489 Z"
     id="path47-931"
     inkscape:connector-curvature="0" />
  <path
     style="fill:none;fill-rule:evenodd;stroke:#000000;stroke-width:0.93749994px;stroke-linecap:butt;stroke-linejoin:miter;stroke-opacity:1"
     d="m 1482.5688,290.41421 c 0,0 -25.895,-129.47512 114.9739,-120.15291 140.869,9.32221 128.4393,223.733 73.5419,243.41322 -54.8975,19.68021 -189.5516,-12.42961 -188.5158,-123.26031 z"
     id="path47-94"
     inkscape:connector-curvature="0" />
</svg>
