<?xml version="1.0" encoding="UTF-8" standalone="no"?>
<!-- Created with Inkscape (http://www.inkscape.org/) -->

<svg
   xmlns:dc="http://purl.org/dc/elements/1.1/"
   xmlns:cc="http://creativecommons.org/ns#"
   xmlns:rdf="http://www.w3.org/1999/02/22-rdf-syntax-ns#"
   xmlns:svg="http://www.w3.org/2000/svg"
   xmlns="http://www.w3.org/2000/svg"
   xmlns:sodipodi="http://sodipodi.sourceforge.net/DTD/sodipodi-0.dtd"
   xmlns:inkscape="http://www.inkscape.org/namespaces/inkscape"
   sodipodi:docname="rectangles.svg"
   width="210mm"
   height="297mm"
   viewBox="0 0 744.09448819 1052.3622047"
   id="svg20111100"
   version="1.1"
   inkscape:version="0.91 r13725">
  <sodipodi:namedview
     id="base0111100"
     pagecolor="#ffffff"
     bordercolor="#666666"
     borderopacity="1.0"
     inkscape:pageopacity="0.0"
     inkscape:pageshadow="2"
     inkscape:zoom="0.49497475"
     inkscape:cx="1205.2283"
     inkscape:cy="365.2976"
     inkscape:document-units="px"
     inkscape:current-layer="svg20111100"
     showgrid="false"
     inkscape:window-width="1920"
     inkscape:window-height="1052"
     inkscape:window-x="1920"
     inkscape:window-y="0"
     inkscape:window-maximized="1" />
  <defs
     id="defs40111100" />
  <metadata
     id="metadata70111100">
    <rdf:RDF>
      <cc:Work
         rdf:about="">
        <dc:format>image/svg+xml</dc:format>
        <dc:type
           rdf:resource="http://purl.org/dc/dcmitype/StillImage" />
        <dc:title></dc:title>
      </cc:Work>
    </rdf:RDF>
  </metadata>
  <g
     id="layer10111100"
     inkscape:groupmode="layer"
     inkscape:label="Calque 1">
    <rect
       y="642.39783"
       x="131.31982"
       height="105.05586"
       width="143.44167"
       id="rect33380110000"
       style="fill:#d40000" />
    <rect
       y="-18.241955"
       x="254.55846"
       height="105.05586"
       width="143.44167"
       id="rect33380100000"
       style="fill:#d40000" />
    <rect
       y="612.09302"
       x="274.76151"
       height="105.05586"
       width="143.44167"
       id="rect33380000000"
       style="fill:#d40000" />
    <rect
       y="653.53912"
       x="280.82254"
       height="125.25892"
       width="127.27922"
       id="rect33400110100"
       style="fill:#ffff00" />
    <rect
       y="653.53534"
       x="153.54352"
       height="125.25892"
       width="127.27922"
       id="rect33400110000"
       style="fill:#ffff00" />
    <rect
       y="403.02133"
       x="414.16254"
       height="125.25892"
       width="127.27922"
       id="rect33400101100"
       style="fill:#ffff00" />
    <rect
       y="152.50334"
       x="414.16232"
       height="125.25892"
       width="127.27922"
       id="rect33400101000"
       style="fill:#ffff00" />
    <rect
       y="653.53937"
       x="408.10162"
       height="125.25892"
       width="127.27922"
       id="rect33400011100"
       style="fill:#ffff00" />
    <rect
       y="152.50334"
       x="541.44147"
       height="125.25892"
       width="127.27922"
       id="rect33400010000"
       style="fill:#ffff00" />
    <rect
       y="27.244345"
       x="420.22333"
       height="125.25892"
       width="127.27922"
       id="rect33400001100"
       style="fill:#ffff00" />
    <rect
       y="528.28015"
       x="414.16245"
       height="125.25892"
       width="127.27922"
       id="rect33400000000"
       style="fill:#ffff00" />
    <rect
       y="-23.783274"
       x="339.41125"
       height="119.198"
       width="123.23861"
       id="rect33420110100"
       style="fill:#ff9955" />
    <rect
       y="653.53943"
       x="668.72089"
       height="121.21831"
       width="121.21831"
       id="rect33440111100"
       style="fill:#d40000" />
    <rect
       y="-23.782686"
       x="218.19279"
       height="121.21831"
       width="121.21831"
       id="rect33440100100"
       style="fill:#d40000" />
    <rect
       y="152.50444"
       x="668.72107"
       height="121.21831"
       width="121.21831"
       id="rect33440100000"
       style="fill:#d40000" />
    <rect
       y="-23.78297"
       x="96.974648"
       height="121.21831"
       width="121.21831"
       id="rect33440010100"
       style="fill:#d40000" />
    <rect
       y="277.76343"
       x="553.56335"
       height="121.21831"
       width="121.21831"
       id="rect33440001100"
       style="fill:#d40000" />
    <rect
       y="273.72177"
       x="674.78186"
       height="121.21831"
       width="121.21831"
       id="rect33440000000"
       style="fill:#d40000" />
    <rect
       y="587.85004"
       x="418.20319"
       height="101.01525"
       width="109.09647"
       id="rect33460111000"
       style="fill:#008080" />
    <rect
       y="284.80383"
       x="418.20316"
       height="101.01525"
       width="109.09647"
       id="rect33460110100"
       style="fill:#008080" />
    <rect
       y="183.78865"
       x="398.00015"
       height="101.01525"
       width="109.09647"
       id="rect33460110000"
       style="fill:#008080" />
    <rect
       y="385.81906"
       x="418.20316"
       height="101.01525"
       width="109.09647"
       id="rect33460100100"
       style="fill:#008080" />
    <rect
       y="486.83405"
       x="418.20288"
       height="101.01525"
       width="109.09647"
       id="rect33460010000"
       style="fill:#008080" />
    <rect
       y="-18.241928"
       x="398.00012"
       height="101.01525"
       width="109.09647"
       id="rect33460001000"
       style="fill:#008080" />
    <rect
       y="82.773323"
       x="398.00012"
       height="101.01525"
       width="109.09647"
       id="rect33460000100"
       style="fill:#008080" />
    <rect
       y="-18.241684"
       x="131.32022"
       height="115.15739"
       width="123.23861"
       id="rect33480110000"
       style="fill:#00ff00" />
    <rect
       y="672.70233"
       x="8.0812206"
       height="115.15739"
       width="123.23861"
       id="rect33480011100"
       style="fill:#00ff00" />
    <rect
       y="-18.241684"
       x="8.0812206"
       height="115.15739"
       width="123.23861"
       id="rect33480010100"
       style="fill:#00ff00" />
    <rect
       y="673.22028"
       x="579.82745"
       height="115.15739"
       width="123.23861"
       id="rect33480001100"
       style="fill:#00ff00" />
    <rect
       y="442.90729"
       x="579.82758"
       height="115.15739"
       width="123.23861"
       id="rect33480001000"
       style="fill:#00ff00" />
    <rect
       y="558.06531"
       x="579.82745"
       height="115.15739"
       width="123.23861"
       id="rect33480000100"
       style="fill:#00ff00" />
    <rect
       y="327.75031"
       x="577.80731"
       height="115.15739"
       width="123.23861"
       id="rect33480000000"
       style="fill:#00ff00" />
    <rect
       y="571.22675"
       x="-48.487324"
       height="139.40105"
       width="125.25892"
       id="rect33500110000"
       style="fill:#ff00ff" />
    <rect
       y="555.36713"
       x="12.121831"
       height="139.40105"
       width="125.25892"
       id="rect33500101000"
       style="fill:#ff00ff"
       transform="matrix(1, -0, 0, 1, 561.645, -1904.63) matrix(1, -0, 0, 1, -270.721, 194.2) matrix(1, -0, 0, 1, 270.721, -157.588) matrix(1, -0, 0, 1, -3.1e-05, 1564.97) matrix(1, -0, 0, 1, -12.1218, -252.321)" />
    <rect
       y="555.36713"
       x="12.121831"
       height="139.40105"
       width="125.25892"
       id="rect33500011100"
       style="fill:#ff00ff"
       transform="matrix(1, -0, 0, 1, 125.259, -315.168) matrix(1, -0, 0, 1, 541.442, -552.794) matrix(1, -0, 0, 1, -3.1e-05, 1122.52) matrix(1, -0, 0, 1, -12.1218, -252.321)" />
    <rect
       y="555.36713"
       x="12.121831"
       height="139.40105"
       width="125.25892"
       id="rect33500001100"
       style="fill:#ff00ff"
       transform="matrix(1, -0, 0, 1, 561.645, -1347.02) matrix(1, -0, 0, 1, 0, -242.186) matrix(1, -0, 0, 1, 0, 303.045) matrix(1, -0, 0, 1, -3.1e-05, 1122.52) matrix(1, -0, 0, 1, -12.1218, -252.321)" />
    <rect
       y="555.36713"
       x="12.121831"
       height="139.40105"
       width="125.25892"
       id="rect33500001000"
       style="fill:#ff00ff"
       transform="matrix(1, -0, 0, 1, -0.00032, -697.005) matrix(1, 2.22045e-16, -2.22045e-16, 1, 270.721, -425.515) matrix(1, 2.22045e-16, -2.22045e-16, 1, 395.98, -327.289) matrix(1, -0, 0, 1, 0, 303.045) matrix(1, -0, 0, 1, -3.1e-05, 1122.52) matrix(1, -0, 0, 1, -12.1218, -252.321)" />
    <rect
       y="555.36713"
       x="12.121831"
       height="139.40105"
       width="125.25892"
       id="rect33500000000"
       style="fill:#ff00ff"
       transform="matrix(1, -0, 0, 1, 666.701, -928.82) matrix(1, -0, 0, 1, -290.924, 224.503) matrix(1, -1.11022e-16, 1.11022e-16, 1, 145.462, -139.401) matrix(1, 1.11022e-16, -1.11022e-16, 1, 145.462, -466.69) matrix(1, -0, 0, 1, 0, 303.045) matrix(1, -0, 0, 1, -3.1e-05, 1122.52) matrix(1, -0, 0, 1, -12.1218, -252.321)" />
    <rect
       y="403.02161"
       x="541.44128"
       height="125.25892"
       width="133.34013"
       id="rect33520111100"
       style="fill:#d40000" />
    <rect
       y="277.7626"
       x="420.22345"
       height="125.25892"
       width="133.34013"
       id="rect33520011100"
       style="fill:#d40000" />
    <rect
       y="528.28058"
       x="541.44147"
       height="125.25892"
       width="133.34013"
       id="rect33520011000"
       style="fill:#d40000" />
    <rect
       y="27.244095"
       x="547.50269"
       height="125.25892"
       width="133.34013"
       id="rect33520001100"
       style="fill:#d40000" />
    <rect
       y="653.53912"
       x="535.38043"
       height="125.25892"
       width="133.34013"
       id="rect33520000100"
       style="fill:#d40000" />
    <rect
       y="395.45999"
       x="602.0509"
       height="127.27922"
       width="137.38075"
       id="rect33540111100"
       style="fill:#ff6600" />
    <rect
       y="522.73901"
       x="602.0509"
       height="127.27922"
       width="137.38075"
       id="rect33540111000"
       style="fill:#ff6600" />
    <rect
       y="268.18512"
       x="602.05066"
       height="127.27922"
       width="137.38075"
       id="rect33540110000"
       style="fill:#ff6600" />
    <rect
       y="13.626006"
       x="602.05109"
       height="127.27922"
       width="137.38075"
       id="rect33540100100"
       style="fill:#ff6600" />
    <rect
       y="140.903"
       x="602.05066"
       height="127.27922"
       width="137.38075"
       id="rect33540011000"
       style="fill:#ff6600" />
    <rect
       y="650.01831"
       x="602.0509"
       height="127.27922"
       width="137.38075"
       id="rect33540010100"
       style="fill:#ff6600" />
    <rect
       y="663.63928"
       x="16.162445"
       height="127.27922"
       width="137.38075"
       id="rect33540000000"
       style="fill:#ff6600" />
    <rect
       y="27.244293"
       x="680.84277"
       height="121.21831"
       width="121.21831"
       id="rect33580100000"
       style="fill:#ccff00" />
    <rect
       y="516.15826"
       x="674.78174"
       height="121.21831"
       width="121.21831"
       id="rect33580011100"
       style="fill:#ccff00" />
    <rect
       y="394.94028"
       x="674.78186"
       height="121.21831"
       width="121.21831"
       id="rect33580010100"
       style="fill:#ccff00" />
    <rect
       y="-23.782827"
       x="-24.243742"
       height="121.21831"
       width="121.21831"
       id="rect33580000100"
       style="fill:#ccff00" />
    <rect
       y="331.11328"
       x="28.284271"
       height="157.5838"
       width="145.46196"
       id="rect33600111000"
       style="fill:#c87137"
       transform="matrix(1, -0, 0, 1, 0, 157.584) matrix(1, -0, 0, 1, 1.06581e-14, -649.769) matrix(1, -0, 0, 1, 2.9e-05, 1122.52) matrix(1, -0, 0, 1, -28.2843, -331.113)" />
    <rect
       y="331.11328"
       x="28.284271"
       height="157.5838"
       width="145.46196"
       id="rect33600010000"
       style="fill:#c87137"
       transform="matrix(1, 1.11022e-16, -1.11022e-16, 1, -4e-05, 157.584) matrix(1, -1.11022e-16, 1.11022e-16, 1, 145.462, -1122.52) matrix(1, -0, 0, 1, 0, -0.000194961) matrix(1, -0, 0, 1, 1.06581e-14, 472.751) matrix(1, -0, 0, 1, 2.9e-05, 1122.52) matrix(1, -0, 0, 1, -28.2843, -331.113)" />
    <rect
       y="13.622119"
       x="468.71033"
       height="131.31982"
       width="133.34013"
       id="rect33620110100"
       style="fill:#784421" />
    <rect
       y="144.94212"
       x="468.71033"
       height="131.31982"
       width="133.34013"
       id="rect33620110000"
       style="fill:#784421" />
    <rect
       y="276.26172"
       x="468.71033"
       height="131.31982"
       width="133.34013"
       id="rect33620101000"
       style="fill:#784421" />
    <rect
       y="407.58133"
       x="468.71078"
       height="131.31982"
       width="133.34013"
       id="rect33620011000"
       style="fill:#784421" />
    <rect
       y="538.90155"
       x="468.71078"
       height="131.31982"
       width="133.34013"
       id="rect33620010000"
       style="fill:#784421" />
    <rect
       y="670.22137"
       x="468.71069"
       height="131.31982"
       width="133.34013"
       id="rect33620001100"
       style="fill:#784421" />
    <rect
       y="670.22113"
       x="335.3707"
       height="131.31982"
       width="133.34013"
       id="rect33620000000"
       style="fill:#784421" />
    <rect
       y="76.554848"
       x="2.0203052"
       height="145.46196"
       width="125.25892"
       id="rect33640111000"
       style="fill:#ff2a2a"
       transform="matrix(1, -0, 0, 1, 20.2029, -169.702) matrix(1, -3.33067e-16, 3.33067e-16, 1, 145.462, -1110.4) matrix(1, -1.11022e-16, 1.11022e-16, 1, 270.721, 1267.98) matrix(1, -0, 0, 1, -2.02031, 81.029)" />
    <rect
       y="76.554848"
       x="2.0203052"
       height="145.46196"
       width="125.25892"
       id="rect33640110100"
       style="fill:#ff2a2a"
       transform="matrix(1, -2.22045e-16, 2.22045e-16, 1, 145.462, -897.016) matrix(1, 1.11022e-16, -1.11022e-16, 1, 165.665, -855.838) matrix(1, 1.11022e-16, -1.11022e-16, 1, 125.259, 1595.27) matrix(1, -0, 0, 1, -2.02031, 81.029)" />
    <rect
       y="76.554848"
       x="2.0203052"
       height="145.46196"
       width="125.25892"
       id="rect33640101100"
       style="fill:#ff2a2a"
       transform="matrix(1, -2.22045e-16, 2.22045e-16, 1, 250.518, -24.244) matrix(1, -2.22045e-16, 2.22045e-16, 1, 290.924, -977.062) matrix(1, 1.11022e-16, -1.11022e-16, 1, 4.8e-06, 1425.57) matrix(1, -0, 0, 1, -2.02031, 81.029)" />
    <rect
       y="76.554848"
       x="2.0203052"
       height="145.46196"
       width="125.25892"
       id="rect33640101000"
       style="fill:#ff2a2a"
       transform="matrix(1, -2.22045e-16, 2.22045e-16, 1, 125.259, 145.464) matrix(1, -0, 0, 1, 145.462, -1110.4) matrix(1, -1.11022e-16, 1.11022e-16, 1, 145.462, -12.1264) matrix(1, 1.11022e-16, -1.11022e-16, 1, 4.8e-06, 1425.57) matrix(1, -0, 0, 1, -2.02031, 81.029)" />
    <rect
       y="76.554848"
       x="2.0203052"
       height="145.46196"
       width="125.25892"
       id="rect33640100100"
       style="fill:#ff2a2a"
       transform="matrix(1, -0, 0, 1, 125.259, -0.001248) matrix(1, 1.11022e-16, -1.11022e-16, 1, 290.924, -1728.61) matrix(1, 4.44089e-16, -4.44089e-16, 1, 7.40809e-13, 460.625) matrix(1, 1.11022e-16, -1.11022e-16, 1, 4.8e-06, 1425.57) matrix(1, -0, 0, 1, -2.02031, 81.029)" />
    <rect
       y="76.554848"
       x="2.0203052"
       height="145.46196"
       width="125.25892"
       id="rect33640011100"
       style="fill:#ff2a2a"
       transform="matrix(1, -0, 0, 1, 125.259, -24.244) matrix(1, -1.11022e-16, 1.11022e-16, 1, 416.183, -819.474) matrix(1, -0, 0, 1, 4.8e-06, 1122.52) matrix(1, -0, 0, 1, -2.02031, 81.029)" />
    <rect
       y="76.554848"
       x="2.0203052"
       height="145.46196"
       width="125.25892"
       id="rect33640010100"
       style="fill:#ff2a2a"
       transform="matrix(1, -0, 0, 1, -20.2032, 315.163) matrix(1, 2.22045e-16, -2.22045e-16, 1, 436.386, -1752.85) matrix(1, -0, 0, 1, 3.9968e-15, 618.213) matrix(1, -0, 0, 1, 4.8e-06, 1122.52) matrix(1, -0, 0, 1, -2.02031, 81.029)" />
    <rect
       y="76.554848"
       x="2.0203052"
       height="145.46196"
       width="125.25892"
       id="rect33640001100"
       style="fill:#ff2a2a"
       transform="matrix(1, -2.22045e-16, 2.22045e-16, 1, 250.518, -460.63) matrix(1, -1.11022e-16, 1.11022e-16, 1, 290.924, -686.133) matrix(1, -0, 0, 1, 3.9968e-15, 157.583) matrix(1, -0, 0, 1, 4.8e-06, 1122.52) matrix(1, -0, 0, 1, -2.02031, 81.029)" />
    <rect
       y="76.554848"
       x="2.0203052"
       height="145.46196"
       width="125.25892"
       id="rect33640001000"
       style="fill:#ff2a2a"
       transform="matrix(1, -0, 0, 1, -250.518, 315.169) matrix(1, -1.11022e-16, 1.11022e-16, 1, 395.98, -1716.49) matrix(1, 4.44089e-16, -4.44089e-16, 1, 145.462, 569.726) matrix(1, -0, 0, 1, 3.9968e-15, 157.583) matrix(1, -0, 0, 1, 4.8e-06, 1122.52) matrix(1, -0, 0, 1, -2.02031, 81.029)" />
    <rect
       y="646.43835"
       x="527.30011"
       height="94.954338"
       width="131.31982"
       id="rect33660111100"
       style="fill:#916f6f" />
    <rect
       y="76.712334"
       x="507.09634"
       height="94.954338"
       width="131.31982"
       id="rect33660111000"
       style="fill:#916f6f" />
    <rect
       y="-18.241928"
       x="507.09683"
       height="94.954338"
       width="131.31982"
       id="rect33660110100"
       style="fill:#916f6f" />
    <rect
       y="266.62112"
       x="527.29962"
       height="94.954338"
       width="131.31982"
       id="rect33660110000"
       style="fill:#916f6f" />
    <rect
       y="171.66634"
       x="507.09653"
       height="94.954338"
       width="131.31982"
       id="rect33660101100"
       style="fill:#916f6f" />
    <rect
       y="361.57535"
       x="527.29962"
       height="94.954338"
       width="131.31982"
       id="rect33660100100"
       style="fill:#916f6f" />
    <rect
       y="551.48431"
       x="527.30011"
       height="94.954338"
       width="131.31982"
       id="rect33660100000"
       style="fill:#916f6f" />
    <rect
       y="-18.241667"
       x="638.41687"
       height="94.954338"
       width="131.31982"
       id="rect33660010100"
       style="fill:#916f6f" />
    <rect
       y="76.712433"
       x="638.41687"
       height="94.954338"
       width="131.31982"
       id="rect33660010000"
       style="fill:#916f6f" />
    <rect
       y="456.52994"
       x="527.29962"
       height="94.954338"
       width="131.31982"
       id="rect33660001100"
       style="fill:#916f6f" />
    <rect
       y="171.66673"
       x="638.41595"
       height="94.954338"
       width="131.31982"
       id="rect33660001000"
       style="fill:#916f6f" />
    <rect
       y="266.62094"
       x="658.6192"
       height="94.954338"
       width="131.31982"
       id="rect33660000100"
       style="fill:#916f6f" />
    <rect
       y="361.57544"
       x="658.6192"
       height="94.954338"
       width="131.31982"
       id="rect33660000000"
       style="fill:#916f6f" />
    <rect
       y="93.394592"
       x="462.64987"
       height="117.1777"
       width="115.15739"
       id="rect33680111000"
       style="fill:#decd87" />
    <rect
       y="93.394592"
       x="577.80725"
       height="117.1777"
       width="115.15739"
       id="rect33680110100"
       style="fill:#decd87" />
    <rect
       y="679.28357"
       x="464.6705"
       height="117.1777"
       width="115.15739"
       id="rect33680110000"
       style="fill:#decd87" />
    <rect
       y="444.92758"
       x="464.6705"
       height="117.1777"
       width="115.15739"
       id="rect33680101100"
       style="fill:#decd87" />
    <rect
       y="-23.783411"
       x="462.64941"
       height="117.1777"
       width="115.15739"
       id="rect33680100100"
       style="fill:#decd87" />
    <rect
       y="210.57259"
       x="577.8075"
       height="117.1777"
       width="115.15739"
       id="rect33680100000"
       style="fill:#decd87" />
    <rect
       y="327.75012"
       x="462.64987"
       height="117.1777"
       width="115.15739"
       id="rect33680010000"
       style="fill:#decd87" />
    <rect
       y="210.57259"
       x="462.65027"
       height="117.1777"
       width="115.15739"
       id="rect33680001000"
       style="fill:#decd87" />
    <rect
       y="562.10559"
       x="464.6702"
       height="117.1777"
       width="115.15739"
       id="rect33680000100"
       style="fill:#decd87" />
    <rect
       y="-23.783411"
       x="577.80725"
       height="117.1777"
       width="115.15739"
       id="rect33680000000"
       style="fill:#decd87" />
  </g>
</svg>
