<?xml version="1.0" encoding="UTF-8" standalone="no"?>
<!-- Created with Inkscape (http://www.inkscape.org/) -->

<svg
   xmlns:dc="http://purl.org/dc/elements/1.1/"
   xmlns:cc="http://creativecommons.org/ns#"
   xmlns:rdf="http://www.w3.org/1999/02/22-rdf-syntax-ns#"
   xmlns:svg="http://www.w3.org/2000/svg"
   xmlns="http://www.w3.org/2000/svg"
   xmlns:sodipodi="http://sodipodi.sourceforge.net/DTD/sodipodi-0.dtd"
   xmlns:inkscape="http://www.inkscape.org/namespaces/inkscape"
   sodipodi:docname="rectangles.svg"
   width="210mm"
   height="297mm"
   viewBox="0 0 744.09448819 1052.3622047"
   id="svg20111100"
   version="1.1"
   inkscape:version="0.91 r13725">
  <sodipodi:namedview
     id="base0111100"
     pagecolor="#ffffff"
     bordercolor="#666666"
     borderopacity="1.0"
     inkscape:pageopacity="0.0"
     inkscape:pageshadow="2"
     inkscape:zoom="0.49497475"
     inkscape:cx="1203.208"
     inkscape:cy="365.2976"
     inkscape:document-units="px"
     inkscape:current-layer="layer10111100"
     showgrid="false"
     inkscape:window-width="1920"
     inkscape:window-height="1052"
     inkscape:window-x="1920"
     inkscape:window-y="0"
     inkscape:window-maximized="1" />
  <defs
     id="defs40111100" />
  <metadata
     id="metadata70111100">
    <rdf:RDF>
      <cc:Work
         rdf:about="">
        <dc:format>image/svg+xml</dc:format>
        <dc:type
           rdf:resource="http://purl.org/dc/dcmitype/StillImage" />
        <dc:title />
      </cc:Work>
    </rdf:RDF>
  </metadata>
  <g
     id="layer10111100"
     inkscape:groupmode="layer"
     inkscape:label="Calque 1">
    <rect
       y="642.39783"
       x="131.31982"
       height="105.05586"
       width="143.44167"
       id="rect33380110000"
       style="fill:#d40000" />
    <rect
       y="-18.241955"
       x="254.55846"
       height="105.05586"
       width="143.44167"
       id="rect33380100000"
       style="fill:#d40000" />
    <rect
       y="612.09302"
       x="274.76151"
       height="105.05586"
       width="143.44167"
       id="rect33380000000"
       style="fill:#d40000" />
    <rect
       y="653.53912"
       x="280.82254"
       height="125.25892"
       width="127.27922"
       id="rect33400110100"
       style="fill:#ffff00" />
    <rect
       y="653.53534"
       x="153.54352"
       height="125.25892"
       width="127.27922"
       id="rect33400110000"
       style="fill:#ffff00" />
    <rect
       y="403.02133"
       x="414.16254"
       height="125.25892"
       width="127.27922"
       id="rect33400101100"
       style="fill:#ffff00" />
    <rect
       y="178.7673"
       x="452.54813"
       height="125.25892"
       width="127.27922"
       id="rect33400101000"
       style="fill:#ffff00" />
    <rect
       y="653.53937"
       x="408.10162"
       height="125.25892"
       width="127.27922"
       id="rect33400011100"
       style="fill:#ffff00" />
    <rect
       y="176.74701"
       x="535.38055"
       height="125.25892"
       width="127.27922"
       id="rect33400010000"
       style="fill:#ffff00" />
    <rect
       y="27.244345"
       x="420.22333"
       height="125.25892"
       width="127.27922"
       id="rect33400001100"
       style="fill:#ffff00" />
    <rect
       y="528.28015"
       x="414.16245"
       height="125.25892"
       width="127.27922"
       id="rect33400000000"
       style="fill:#ffff00" />
    <rect
       y="-23.783274"
       x="339.41125"
       height="119.198"
       width="123.23861"
       id="rect33420110100"
       style="fill:#ff9955" />
    <rect
       y="653.53943"
       x="668.72089"
       height="121.21831"
       width="121.21831"
       id="rect33440111100"
       style="fill:#d40000" />
    <rect
       y="-21.762381"
       x="48.487167"
       height="121.21831"
       width="121.21831"
       id="rect33440100100"
       style="fill:#d40000" />
    <rect
       y="122.19987"
       x="662.66016"
       height="121.21831"
       width="121.21831"
       id="rect33440100000"
       style="fill:#d40000" />
    <rect
       y="216.63333"
       x="-34.345184"
       height="121.21831"
       width="121.21831"
       id="rect33440010100"
       style="fill:#d40000" />
    <rect
       y="277.76343"
       x="553.56335"
       height="121.21831"
       width="121.21831"
       id="rect33440001100"
       style="fill:#d40000" />
    <rect
       y="237.35628"
       x="709.12708"
       height="121.21831"
       width="121.21831"
       id="rect33440000000"
       style="fill:#d40000" />
    <rect
       y="587.85004"
       x="418.20319"
       height="101.01525"
       width="109.09647"
       id="rect33460111000"
       style="fill:#008080" />
    <rect
       y="272.68201"
       x="418.20316"
       height="101.01525"
       width="109.09647"
       id="rect33460110100"
       style="fill:#008080" />
    <rect
       y="496.93594"
       x="872.77185"
       height="101.01525"
       width="109.09647"
       id="rect33460110000"
       style="fill:#008080" />
    <rect
       y="385.81906"
       x="418.20316"
       height="101.01525"
       width="109.09647"
       id="rect33460100100"
       style="fill:#008080" />
    <rect
       y="327.22995"
       x="270.72061"
       height="101.01525"
       width="109.09647"
       id="rect33460010000"
       style="fill:#008080" />
    <rect
       y="74.692108"
       x="721.24896"
       height="101.01525"
       width="109.09647"
       id="rect33460001000"
       style="fill:#008080" />
    <rect
       y="422.18457"
       x="729.33014"
       height="101.01525"
       width="109.09647"
       id="rect33460000100"
       style="fill:#008080" />
    <rect
       y="517.13916"
       x="284.8634"
       height="115.15739"
       width="123.23861"
       id="rect33480110000"
       style="fill:#00ff00" />
    <rect
       y="672.70233"
       x="8.0812206"
       height="115.15739"
       width="123.23861"
       id="rect33480011100"
       style="fill:#00ff00" />
    <rect
       y="-18.241684"
       x="8.0812206"
       height="115.15739"
       width="123.23861"
       id="rect33480010100"
       style="fill:#00ff00" />
    <rect
       y="673.22028"
       x="579.82745"
       height="115.15739"
       width="123.23861"
       id="rect33480001100"
       style="fill:#00ff00" />
    <rect
       y="442.90729"
       x="579.82758"
       height="115.15739"
       width="123.23861"
       id="rect33480001000"
       style="fill:#00ff00" />
    <rect
       y="558.06531"
       x="579.82745"
       height="115.15739"
       width="123.23861"
       id="rect33480000100"
       style="fill:#00ff00" />
    <rect
       y="327.75031"
       x="577.80731"
       height="115.15739"
       width="123.23861"
       id="rect33480000000"
       style="fill:#00ff00" />
    <rect
       y="571.22675"
       x="-48.487324"
       height="139.40105"
       width="125.25892"
       id="rect33500110000"
       style="fill:#ff00ff" />
    <rect
       y="555.36713"
       x="12.121831"
       height="139.40105"
       width="125.25892"
       id="rect33500101000"
       style="fill:#ff00ff"
       transform="matrix(1, -0, 0, 1, 561.645, -1904.63) matrix(1, -0, 0, 1, -270.721, 194.2) matrix(1, -0, 0, 1, 270.721, -157.588) matrix(1, -0, 0, 1, -3.1e-05, 1564.97) matrix(1, -0, 0, 1, -12.1218, -252.321)" />
    <rect
       y="555.36713"
       x="12.121831"
       height="139.40105"
       width="125.25892"
       id="rect33500011100"
       style="fill:#ff00ff"
       transform="matrix(1, -0, 0, 1, 125.259, -315.168) matrix(1, -0, 0, 1, 541.442, -552.794) matrix(1, -0, 0, 1, -3.1e-05, 1122.52) matrix(1, -0, 0, 1, -12.1218, -252.321)" />
    <rect
       y="499.01944"
       x="-6.0607266"
       height="139.40105"
       width="125.25892"
       id="rect33500001100"
       style="fill:#ff00ff" />
    <rect
       y="103.03558"
       x="-98.994942"
       height="139.40105"
       width="125.25892"
       id="rect33500001000"
       style="fill:#ff00ff" />
    <rect
       y="838.42657"
       x="472.75171"
       height="139.40105"
       width="125.25892"
       id="rect33500000000"
       style="fill:#ff00ff" />
    <rect
       y="881.83392"
       x="321.22803"
       height="125.25892"
       width="133.34013"
       id="rect33520111100"
       style="fill:#d40000" />
    <rect
       y="352.51389"
       x="488.91382"
       height="125.25892"
       width="133.34013"
       id="rect33520011100"
       style="fill:#d40000" />
    <rect
       y="528.28058"
       x="541.44147"
       height="125.25892"
       width="133.34013"
       id="rect33520011000"
       style="fill:#d40000" />
    <rect
       y="27.244095"
       x="547.50269"
       height="125.25892"
       width="133.34013"
       id="rect33520001100"
       style="fill:#d40000" />
    <rect
       y="653.53912"
       x="535.38043"
       height="125.25892"
       width="133.34013"
       id="rect33520000100"
       style="fill:#d40000" />
    <rect
       y="732.85095"
       x="379.81735"
       height="127.27922"
       width="137.38075"
       id="rect33540111100"
       style="fill:#ff6600" />
    <rect
       y="522.73901"
       x="602.0509"
       height="127.27922"
       width="137.38075"
       id="rect33540111000"
       style="fill:#ff6600" />
    <rect
       y="353.03793"
       x="808.12177"
       height="127.27922"
       width="137.38075"
       id="rect33540110000"
       style="fill:#ff6600" />
    <rect
       y="-26.780096"
       x="682.86328"
       height="127.27922"
       width="137.38075"
       id="rect33540100100"
       style="fill:#ff6600" />
    <rect
       y="88.375069"
       x="286.88306"
       height="127.27922"
       width="137.38075"
       id="rect33540011000"
       style="fill:#ff6600" />
    <rect
       y="833.86609"
       x="222.23355"
       height="127.27922"
       width="137.38075"
       id="rect33540010100"
       style="fill:#ff6600" />
    <rect
       y="663.63928"
       x="16.162445"
       height="127.27922"
       width="137.38075"
       id="rect33540000000"
       style="fill:#ff6600" />
    <rect
       y="841.42725"
       x="62.629421"
       height="121.21831"
       width="121.21831"
       id="rect33580100000"
       style="fill:#ccff00" />
    <rect
       y="516.15826"
       x="674.78174"
       height="121.21831"
       width="121.21831"
       id="rect33580011100"
       style="fill:#ccff00" />
    <rect
       y="263.62045"
       x="757.61438"
       height="121.21831"
       width="121.21831"
       id="rect33580010100"
       style="fill:#ccff00" />
    <rect
       y="-58.128014"
       x="149.50249"
       height="121.21831"
       width="121.21831"
       id="rect33580000100"
       style="fill:#ccff00" />
    <rect
       y="684.88354"
       x="-111.11678"
       height="157.5838"
       width="145.46196"
       id="rect33600111000"
       style="fill:#c87137" />
    <rect
       y="492.95435"
       x="117.17769"
       height="157.5838"
       width="145.46196"
       id="rect33600010000"
       style="fill:#c87137" />
    <rect
       y="76.251579"
       x="98.994499"
       height="131.31982"
       width="133.34013"
       id="rect33620110100"
       style="fill:#784421" />
    <rect
       y="346.97263"
       x="10.101075"
       height="131.31982"
       width="133.34013"
       id="rect33620110000"
       style="fill:#784421" />
    <rect
       y="920.73901"
       x="456.5885"
       height="131.31982"
       width="133.34013"
       id="rect33620101000"
       style="fill:#784421" />
    <rect
       y="401.52042"
       x="76.771599"
       height="131.31982"
       width="133.34013"
       id="rect33620011000"
       style="fill:#784421" />
    <rect
       y="888.41431"
       x="620.23364"
       height="131.31982"
       width="133.34013"
       id="rect33620010000"
       style="fill:#784421" />
    <rect
       y="910.6377"
       x="149.50249"
       height="131.31982"
       width="133.34013"
       id="rect33620001100"
       style="fill:#784421" />
    <rect
       y="670.22113"
       x="335.3707"
       height="131.31982"
       width="133.34013"
       id="rect33620000000"
       style="fill:#784421" />
    <rect
       y="812.16254"
       x="-84.852814"
       height="145.46196"
       width="125.25892"
       id="rect33640111000"
       style="fill:#ff2a2a" />
    <rect
       y="385.87811"
       x="169.70572"
       height="145.46196"
       width="125.25892"
       id="rect33640110100"
       style="fill:#ff2a2a" />
    <rect
       y="76.554848"
       x="2.0203052"
       height="145.46196"
       width="125.25892"
       id="rect33640101100"
       style="fill:#ff2a2a"
       transform="matrix(1, -2.22045e-16, 2.22045e-16, 1, 250.518, -24.244) matrix(1, -2.22045e-16, 2.22045e-16, 1, 290.924, -977.062) matrix(1, 1.11022e-16, -1.11022e-16, 1, 4.8e-06, 1425.57) matrix(1, -0, 0, 1, -2.02031, 81.029)" />
    <rect
       y="759.63464"
       x="331.3302"
       height="145.46196"
       width="125.25892"
       id="rect33640101000"
       style="fill:#ff2a2a" />
    <rect
       y="175.76656"
       x="52.528088"
       height="145.46196"
       width="125.25892"
       id="rect33640100100"
       style="fill:#ff2a2a" />
    <rect
       y="573.7666"
       x="733.37097"
       height="145.46196"
       width="125.25892"
       id="rect33640011100"
       style="fill:#ff2a2a" />
    <rect
       y="175.76683"
       x="143.44162"
       height="145.46196"
       width="125.25892"
       id="rect33640010100"
       style="fill:#ff2a2a" />
    <rect
       y="290.92386"
       x="622.25421"
       height="145.46196"
       width="125.25892"
       id="rect33640001100"
       style="fill:#ff2a2a" />
    <rect
       y="717.20862"
       x="103.03563"
       height="145.46196"
       width="125.25892"
       id="rect33640001000"
       style="fill:#ff2a2a" />
    <rect
       y="646.43835"
       x="527.30011"
       height="94.954338"
       width="131.31982"
       id="rect33660111100"
       style="fill:#916f6f" />
    <rect
       y="-32.38414"
       x="193.94905"
       height="94.954338"
       width="131.31982"
       id="rect33660111000"
       style="fill:#916f6f" />
    <rect
       y="-54.607418"
       x="511.13745"
       height="94.954338"
       width="131.31982"
       id="rect33660110100"
       style="fill:#916f6f" />
    <rect
       y="266.62112"
       x="527.29962"
       height="94.954338"
       width="131.31982"
       id="rect33660110000"
       style="fill:#916f6f" />
    <rect
       y="280.76282"
       x="294.96451"
       height="94.954338"
       width="131.31982"
       id="rect33660101100"
       style="fill:#916f6f" />
    <rect
       y="391.87991"
       x="313.14728"
       height="94.954338"
       width="131.31982"
       id="rect33660100100"
       style="fill:#916f6f" />
    <rect
       y="187.82939"
       x="268.70105"
       height="94.954338"
       width="131.31982"
       id="rect33660100000"
       style="fill:#916f6f" />
    <rect
       y="-14.201056"
       x="743.47272"
       height="94.954338"
       width="131.31982"
       id="rect33660010100"
       style="fill:#916f6f" />
    <rect
       y="70.65152"
       x="222.23402"
       height="94.954338"
       width="131.31982"
       id="rect33660010000"
       style="fill:#916f6f" />
    <rect
       y="244.3979"
       x="24.243658"
       height="94.954338"
       width="131.31982"
       id="rect33660001100"
       style="fill:#916f6f" />
    <rect
       y="42.367207"
       x="8.0807705"
       height="94.954338"
       width="131.31982"
       id="rect33660001000"
       style="fill:#916f6f" />
    <rect
       y="765.63629"
       x="682.86285"
       height="94.954338"
       width="131.31982"
       id="rect33660000100"
       style="fill:#916f6f" />
    <rect
       y="604.01208"
       x="70.710426"
       height="94.954338"
       width="131.31982"
       id="rect33660000000"
       style="fill:#916f6f" />
    <rect
       y="135.821"
       x="197.98991"
       height="117.1777"
       width="115.15739"
       id="rect33680111000"
       style="fill:#decd87" />
    <rect
       y="313.60785"
       x="135.36044"
       height="117.1777"
       width="115.15739"
       id="rect33680110100"
       style="fill:#decd87" />
    <rect
       y="824.74554"
       x="606.09186"
       height="117.1777"
       width="115.15739"
       id="rect33680110000"
       style="fill:#decd87" />
    <rect
       y="354.01385"
       x="145.4623"
       height="117.1777"
       width="115.15739"
       id="rect33680101100"
       style="fill:#decd87" />
    <rect
       y="172.18619"
       x="14.141687"
       height="117.1777"
       width="115.15739"
       id="rect33680100100"
       style="fill:#decd87" />
    <rect
       y="990.41034"
       x="296.98508"
       height="117.1777"
       width="115.15739"
       id="rect33680100000"
       style="fill:#decd87" />
    <rect
       y="341.89227"
       x="-129.29953"
       height="117.1777"
       width="115.15739"
       id="rect33680010000"
       style="fill:#decd87" />
    <rect
       y="416.64371"
       x="-94.953934"
       height="117.1777"
       width="115.15739"
       id="rect33680001000"
       style="fill:#decd87" />
    <rect
       y="685.34418"
       x="325.26913"
       height="117.1777"
       width="115.15739"
       id="rect33680000100"
       style="fill:#decd87" />
    <rect
       y="-66.209816"
       x="410.12192"
       height="117.1777"
       width="115.15739"
       id="rect33680000000"
       style="fill:#decd87" />
  </g>
</svg>
