<?xml version="1.0" encoding="UTF-8" standalone="no"?>
<svg
   xmlns:dc="http://purl.org/dc/elements/1.1/"
   xmlns:cc="http://creativecommons.org/ns#"
   xmlns:rdf="http://www.w3.org/1999/02/22-rdf-syntax-ns#"
   xmlns:svg="http://www.w3.org/2000/svg"
   xmlns="http://www.w3.org/2000/svg"
   xmlns:sodipodi="http://sodipodi.sourceforge.net/DTD/sodipodi-0.dtd"
   xmlns:inkscape="http://www.inkscape.org/namespaces/inkscape"
   version="1.1"
   width="1843.2"
   height="1843.2"
   id="svg2"
   inkscape:version="0.92.0 r"
   viewBox="0 0 1843.2 1843.2"
   sodipodi:docname="vertebrae.svg">
  <metadata
     id="metadata36">
    <rdf:RDF>
      <cc:Work
         rdf:about="">
        <dc:format>image/svg+xml</dc:format>
        <dc:type
           rdf:resource="http://purl.org/dc/dcmitype/StillImage" />
        <dc:title />
      </cc:Work>
    </rdf:RDF>
  </metadata>
  <defs
     id="defs34" />
  <sodipodi:namedview
     pagecolor="#ffffff"
     bordercolor="#666666"
     borderopacity="1"
     objecttolerance="10"
     gridtolerance="10"
     guidetolerance="10"
     inkscape:pageopacity="0"
     inkscape:pageshadow="2"
     inkscape:window-width="1920"
     inkscape:window-height="1052"
     id="namedview32"
     showgrid="false"
     inkscape:zoom="0.27314815"
     inkscape:cx="1970.9293"
     inkscape:cy="1002.1825"
     inkscape:window-x="1920"
     inkscape:window-y="0"
     inkscape:window-maximized="1"
     inkscape:current-layer="svg2" />
  <g
     id="g4164">
    <path
       inkscape:connector-curvature="0"
       id="path4"
       style="fill:none;stroke:#ff0000;stroke-width:1;stroke-linecap:butt;stroke-linejoin:miter;stroke-miterlimit:4;stroke-dasharray:none;stroke-opacity:1"
       d="m 1348.1517,193.4315 c 13.5531,-11.1994 36.2482,-2.0866 60.4252,-5.8134 24.7847,-3.8199 49.9752,-10.8164 66.5155,-12.6428 26.3138,-2.9077 50.6711,39.0795 26.0153,60.49 -8.9961,7.8134 -38.9799,13.3813 -63.3781,24.6802 -8.399,3.8898 -20.4337,7.8451 -29.5973,15.4891 -7.1298,5.9447 -10.8257,17.2055 -20.4424,17.2499 -24.7997,0.1186 -28.0961,-17.0827 -28.0961,-43.058 0,-10.2535 -19.7659,-60.4963 -11.4421,-56.395 z" />
    <path
       inkscape:connector-curvature="0"
       id="path6"
       style="fill:none;stroke:#ff0000;stroke-width:1;stroke-linecap:butt;stroke-linejoin:miter;stroke-miterlimit:4;stroke-dasharray:none;stroke-opacity:1"
       d="m 1453.2413,604.5932 c 7.6323,32.1232 16.4802,47.8514 31.7319,46.1245 8.515,-0.9629 14.3821,-12.4649 22.3688,-23.0675 5.4633,-7.2547 17.8159,-10.8693 18.7286,-17.9272 1.31,-10.1243 -3.1139,-23.0252 -12.1679,-27.6535 -10.7871,-5.5172 -24.9157,-0.7915 -37.3843,2.1819 -12.4686,2.9734 -23.2771,4.1945 -23.2771,20.3418 z" />
    <path
       inkscape:connector-curvature="0"
       id="path8"
       style="fill:none;stroke:#ff0000;stroke-width:1;stroke-linecap:butt;stroke-linejoin:miter;stroke-miterlimit:4;stroke-dasharray:none;stroke-opacity:1"
       d="m 1235.7819,127.8096 5.677,-1.4485 0.3792,-0.0966 32.3584,124.5126 18.4235,-3.5331 -32.6438,-125.6077 11.0812,-2.8272 c 6.1917,-1.5798 8.2616,-5.6019 16.1495,-5.9066 7.89,-0.305 18.0522,-1.0732 29.7369,3.621 27.6536,11.1146 45.4096,11.9231 58.6105,6.9962 6.0024,-2.2411 10.2436,-7.2989 15.4922,-10.249 5.6007,-3.1493 13.0269,-3.5195 18.7997,-6.478 13.9589,-7.1594 34.8307,-2.6096 52.7604,4.6114 73.0205,29.4058 109.9324,69.662 121.7868,112.684 5.5449,20.1197 -12.8789,35.998 -18.2154,60.7547 -2.4247,11.2544 7.746,30.0384 6.7153,41.8833 -1.4712,16.869 -1.0179,39.708 -5.3711,57.8616 -5.5984,23.3385 -12.7477,44.2137 -12.316,66.204 0.6055,30.7709 0.6679,58.0476 8.6933,81.5874 12.1057,35.5113 22.8195,69.9857 6.0988,97.0296 -7.8234,12.6533 -20.1739,23.7217 -37.6742,43.8877 -4.4044,5.0748 -11.2187,11.3984 -15.0755,17.8067 -4.9609,8.2448 -5.2659,19.9459 -14.4895,22.75 -8.5493,2.6008 -18.9111,4.0484 -29.6187,4.1099 -10.0397,0.057 -13.1235,-11.3371 -22.5856,-13.8787 -15.0522,-4.0442 -27.1063,3.6527 -33.4865,-1.1809 -7.772,-5.8895 -12.6618,-15.2986 -7.2329,-25.5393 4.2199,-7.9637 18.546,-16.378 16.6411,-24.1512 -2.7661,-11.2819 -21.2026,-15.868 -32.3632,-20.7102 -9.1207,-3.9552 -10.9139,-12.2723 -11.1824,-13.5377 -1.0306,-4.8506 0.6874,-11.1676 6.9494,-16.1898 6.2623,-5.0241 17.0751,-8.7636 17.5734,-20.7459 0.2985,-7.1657 -6.6359,-14.7592 -14.8759,-16.6405 -10.5959,-2.4168 -22.326,-0.8085 -24.6603,-10.027 -0.6486,-2.5605 -1.2413,-5.5066 -1.2563,-8.4906 -0.013,-2.9818 0.5499,-6.01 2.2014,-8.7253 2.7252,-4.4845 9.8722,-4.6029 13.684,-8.2684 6.3547,-6.1056 7.7655,-14.1177 7.2178,-16.5453 -3.6014,-15.927 -35.765,-19.1863 -37.8309,-26.587 -6.1333,-21.952 20.9857,-22.403 9.7455,-47.2291 -1.673,-3.695 -8.0725,-3.5745 -17.5045,-8.1224 -7.7763,-3.7523 -12.778,-12.9263 -19.8884,-14.5684 -11.8415,-2.7386 -24.003,4.4991 -24.003,12.4268 0,10.2535 10.1943,24.7881 10.2932,36.0615 0.09,10.463 -17.174,27.7192 -18.6942,41.1387 -0.9967,8.808 12.6533,11.9168 23.3158,15.3515 6.3995,2.0591 11.0662,6.2981 12.7026,9.8981 2.1776,4.7868 0.4445,12.5623 -4.5226,18.5998 -3.9904,4.8506 -12.6599,8.0844 -13.1236,13.447 -0.29,3.3437 -3.5887,5.2443 -3.5629,8.0441 0.03,3.475 -0.2985,10.408 3.6573,14.3864 3.2664,3.2825 12.9753,4.1777 17.5068,6.9457 7.5591,4.6177 10.0009,10.827 12.0906,15.3411 3.1289,6.7635 -3.6573,10.2915 -7.0699,15.6479 -3.4124,5.3563 -9.1228,3.4049 -10.7269,12.2723 -2.2785,12.6025 8.1649,15.6628 17.7645,18.6106 8.064,2.476 14.0232,12.6238 16.3213,15.4491 2.2592,2.7807 -0.4898,9.4132 -7.3383,15.2098 -4.2778,3.6187 -12.2429,4.8736 -17.4788,9.701 -3.1396,2.8973 -3.7065,8.5391 -6.1548,12.7973 -5.4868,9.5423 -11.9401,13.9779 -18.7951,14.6446 -5.1027,0.4972 -13.521,-4.1584 -17.8419,-7.7794 -5.841,-4.8994 1.8233,-11.3286 -3.2533,-16.9197 -7.2737,-8.0081 -25.9251,-5.7245 -33.3813,-14.7824 -12.4257,-15.0933 -11.2102,-41.6868 -11.0084,-53.0892 0.7668,-43.056 -32.1848,-79.7102 -52.1441,-118.5738 -8.019,-15.6141 -16.4288,-31.0946 -19.109,-47.6949 -5.7702,-35.7188 -12.7584,-87.7034 3.6318,-129.0155 7.6989,-19.4105 21.0393,-42.421 17.1306,-63.9711 -1.7135,-9.4451 -2.3255,-17.178 -5.0703,-24.3312 -3.526,-9.1973 -9.2237,-17.4509 -10.948,-27.1942 -4.2069,-23.7492 -1.9392,-44.2729 7.3573,-60.5599 7.9353,-13.902 20.1719,-28.6883 53.9504,-31.0777 z" />
    <path
       inkscape:connector-curvature="0"
       id="path10"
       style="fill:none;stroke:#ff0000;stroke-width:1;stroke-linecap:butt;stroke-linejoin:miter;stroke-miterlimit:4;stroke-dasharray:none;stroke-opacity:1"
       d="m 1475.8376,402.8894 c -2.0788,0 -5.008,-1.1153 -8.5149,-0.6349 -6.6209,0.9058 -9.3805,-4.9098 -11.8587,-6.1923 -4.6494,-2.402 -15.4021,-4.2876 -20.6099,-6.5584 -11.0469,-4.8188 -20.481,0.4148 -30.0054,-0.5396 -12.5458,-1.2571 -18.9734,-14.6892 -20.4788,-21.9248 -5.8242,-27.9604 2.5534,-44.3109 41.5762,-48.1414 6.1441,-0.601 17.4895,-7.752 28.4742,-16.7928 6.1634,-5.0706 10.7956,-12.1496 17.7944,-15.578 18.4839,-9.0514 42.0767,-1.947 41.0416,27.2494 -0.262,7.3816 -7.8815,20.3545 -11.7363,34.1358 -3.2192,11.5105 -1.9049,29.7508 -5.1627,39.6529 -4.1877,12.7274 -15.3098,17.7494 -20.5197,15.3241 z" />
  </g>
  <path
     d="m 1391.8541,745.0685 2.7108,0.123 v 206.9079 h 18.72 V 746.0408 l 10.4644,0.475 c 13.6454,0.6191 36.4521,-3.0707 55.5565,0.7767 42.605,8.5816 71.1328,42.5016 77.9813,102.3565 l 11.221,98.0606 2.3085,63.946 c 1.5313,42.3978 12.6145,137.2436 -8.4764,192.0957 -10.8363,28.1783 -31.5043,47.2759 -74.7791,36.5485 -14.1953,-3.5195 -35.8875,-34.3857 -65.8219,-40 -32.561,-6.1055 -62.1391,7.2544 -82.1798,2.1563 -22.3429,-5.6863 -29.0389,-36.413 -2.8584,-65.7173 14.2877,-15.9947 9.5479,-37.1684 5.0252,-46.7359 -4.7933,-10.1458 -16.9245,-22.7716 -33.6648,-21.9481 -15.2988,0.7535 -35.6383,5.0791 -50.3294,-5.6146 -15.9693,-11.6268 -18.3716,-30.6428 -15.7051,-51.8091 l 0.5227,-4.1488 76.1086,-0.8124 -0.165,-18.7171 -73.582,0.7843 1.4408,-11.4364 c 1.1166,-8.8633 -0.2814,-30.2445 12.4946,-43.1935 10.6682,-10.8124 39.0787,-19.8549 53.0461,-29.0398 17.9535,-11.8088 20.8741,-23.2049 24.8125,-31.8648 1.3703,-3.018 4.8858,-17.4954 0.9859,-35.5453 -3.5821,-16.579 -13.9396,-38.7451 -10.5789,-57.7792 2.1025,-11.9145 11.0534,-22.024 19.5619,-28.1021 9.5287,-6.806 23.9128,-13.2692 45.18,-5.7075 z"
     style="fill:none;stroke:#ff0000;stroke-width:1;stroke-linecap:butt;stroke-linejoin:miter;stroke-miterlimit:4;stroke-dasharray:none;stroke-opacity:1"
     id="path12"
     inkscape:connector-curvature="0" />
  <path
     d="m 1033.9288,939.8815 c 1.0395,-9.2271 18.7265,-21.5416 26.2644,-40.2497 7.5399,-18.7101 2.9378,-40.1397 -6.4984,-58.1834 -6.6294,-12.6808 -40.6979,-29.0565 -69.9645,-48.7845 -23.3158,-15.7179 -49.7735,-23.472 -71.7171,-28.9744 -17.0212,-4.2664 -20.3113,-23.7679 -7.1019,-34.0066 20.8077,-16.1283 101.8857,12.9115 122.7747,21.5353 68.1798,28.1469 149.6078,86.4083 136.4993,170.9901 -3.0407,19.582 -12.1507,32.8808 -12.2193,45.6908 -0.131,24.2907 26.335,42.4846 54.6826,74.5166 27.0782,30.5975 10.4048,92.2811 -35.3764,92.2811 -54.1049,0 -76.3727,-48.2599 -118.6146,-59.4701 -8.4507,-2.243 -17.595,5.2696 -36.1301,9.7413 -21.0116,5.0666 -52.0305,7.1025 -69.9991,2.5631 -25.3581,-6.404 -50.0609,-12.1604 -68.6607,-26.0116 -44.057,-32.8045 -68.2787,-87.4471 -89.4921,-133.9421 -12.4237,-27.2262 -13.5252,-32.8215 -13.5252,-57.4299 0,-28.7096 31.82,-15.889 37.4615,-9.212 7.119,8.4291 9.1486,21.9628 15.8381,33.0182 20.3349,33.6047 44.4067,72.1508 79.9012,95.0216 13.8365,8.9158 29.1252,6.662 47.8406,6.2728 33.1577,-0.6897 43.8016,-17.5077 53.1085,-27.9139 l 8.3807,-9.3705 0.2044,-0.2571 47.7232,45.5026 13.9127,-14.59 -48.9143,-46.6384 z"
     style="fill:none;stroke:#ff0000;stroke-width:1;stroke-linecap:butt;stroke-linejoin:miter;stroke-miterlimit:4;stroke-dasharray:none;stroke-opacity:1"
     id="path14"
     inkscape:connector-curvature="0" />
  <path
     d="m 867.7015,1407.1042 c 19.4975,-9.3977 10.8995,-39.441 12.3911,-48.5008 8.9943,-54.631 65.9191,-203.9366 123.1557,-222.8825 22.7789,-7.5376 40.1442,20.2136 59.5386,48.6635 17.1136,25.1019 36.3787,50.1588 54.3002,60.4789 41.7189,24.0287 71.1584,-16.6796 79.8596,-11.6824 1.599,0.9172 8.9011,12.2728 4.3756,21.8205 -4.7104,9.9442 -20.2989,18.8331 -25.4174,29.6708 -3.068,6.4998 2.0108,15.7586 3.1886,20.6215 2.6,10.7144 27.4128,13.8795 46.7884,2.2918 13.7342,-8.214 23.0372,-32.7158 35.6539,-30.6386 53.3863,8.7891 -18.6806,72.8691 -44.4574,77.8992 -68.4933,13.3693 -120.7123,-48.4631 -162.3731,-90.9811 -16.5061,-16.8431 -30.0319,-33.5043 -47.7961,-35.0518 -29.6549,-2.5852 -56.1569,145.6719 -69.8584,174.4963 -5.974,12.5694 -15.332,131.3059 -34.4528,138.7661 -8.8382,3.4478 -13.3257,10.9687 -24.3377,12.6431 -11.9297,1.815 -24.3173,-2.1419 -36.8825,-3.951 -16.4897,-2.3737 -34.8412,-4.5286 -46.2325,-12.8726 -14.6457,-10.7309 -19.4624,-29.9518 -11.6694,-54.4298 5.4105,-17.001 0.694,-43.2402 14.4496,-63.985 16.0042,-24.1319 23.6605,8.3523 47.0617,-2.1586 l 2.7062,-1.2155 -5.7138,45.2256 18.5746,2.3468 z"
     style="fill:none;stroke:#ff0000;stroke-width:1;stroke-linecap:butt;stroke-linejoin:miter;stroke-miterlimit:4;stroke-dasharray:none;stroke-opacity:1"
     id="path16"
     inkscape:connector-curvature="0" />
  <path
     d="m 1354.4393,1625.4505 1.0392,-5.1594 129.7545,8.9878 2.5044,-18.5918 -128.5313,-8.9025 0.6083,-3.0206 c 1.347,-6.6889 -4.0207,-15.9469 -8.9359,-22.0323 -19.8292,-24.5497 -72.5077,-13.7622 -104.9828,-18.2628 -8.9779,-1.245 -172.6748,-4.2888 -183.1766,-12.668 -10.017,-7.9934 -19.1746,-17.9924 -18.8007,-29.1722 0.589,-17.564 6.4522,-31.6089 26.727,-35.3035 l 148.9881,-27.1466 c 35.9541,-6.5526 84.9396,-8.2358 110.8865,-25.7953 8.1941,-5.5468 9.3008,-21.0469 7.7145,-32.2279 l -0.8971,-6.3278 130.6944,-20.5957 -1.7144,-18.6814 -131.6086,20.7402 -0.7138,-5.0343 c -1.0652,-7.5135 -9.2894,-28.707 5.957,-47.5149 33.8531,-41.7586 155.4078,-31.0921 199.7745,-47.0826 32.0528,-11.5515 90.5233,-0.9876 100.6058,58.3566 5.2677,31.0107 -6.5043,45.9813 -19.4156,64.2996 -7.1793,10.19 -12.1138,21.8915 -16.236,37.8973 -3.9597,15.3652 -4.8861,27.9964 -3.8982,34.7043 l 0.5471,3.7139 -170.5722,11.9614 1.3096,18.6738 171.9983,-12.0598 1.4667,9.959 c 1.0743,7.2938 -1.031,41.0003 11.4168,54.2475 4.587,4.8815 5.7087,12.7241 9.8767,17.6383 5.3825,6.3467 12.9535,9.4986 17.1655,15.9953 8.7806,13.5411 10.3332,31.089 9.9729,44.2505 -0.432,15.7967 -4.4181,29.9098 -13.3382,40.0068 -13.8858,15.7215 -30.1249,24.6759 -39.4237,25.3698 -31.3945,2.3369 -132.1968,-2.0021 -160.7842,-3.1813 -59.2633,-2.4477 -82.527,-1.1092 -85.9785,-68.0414 z"
     style="fill:none;stroke:#ff0000;stroke-width:1;stroke-linecap:butt;stroke-linejoin:miter;stroke-miterlimit:4;stroke-dasharray:none;stroke-opacity:1"
     id="path18"
     inkscape:connector-curvature="0" />
  <path
     d="m 504.6043,992.1305 c -17.2615,-3.9458 -32.9606,-13.6258 -42.2767,-14.8093 -39.6255,-5.0369 -46.4528,-21.5235 -119.8236,64.8332 -63.6746,74.9435 -55.0236,70.363 -81.6729,161.2349 -1.9528,6.6591 -9.0482,77.7628 -13.0496,79.0061 -30.041,9.3589 -50.0298,-40.4422 -41.2597,-90.2786 11.8219,-67.1607 31.6253,-123.2422 34.4863,-130.36 25.2782,-62.8501 129.6581,-168.4256 216.0677,-181.2053 29.2428,-4.3271 33.4919,2.8471 43.8577,1.1942 25.9154,-4.1292 56.8976,-42.8513 84.2947,-76.1629 25.7284,-31.2806 86.2574,-28.1696 94.2072,16.2601 9.3954,52.5078 -43.6819,88.1067 -47.5461,131.0434 -0.7707,8.5855 20.7363,27.3243 29.5024,46.2138 8.6097,18.5516 18.667,37.9301 17.6165,56.7742 -1.5157,27.1293 -13.9303,72.3921 -20.3477,95.2694 -9.1513,32.6296 -37.3288,76.2539 -67.5714,109.1528 -5.2736,5.7365 -62.5249,69.4381 -119.3267,105.0137 -25.6444,16.0622 -49.3353,18 -67.3262,18.6806 -19.4049,0.735 -32.0318,-1.5602 -30.0725,-26.6241 0.8955,-11.4849 14.9264,-14.273 26.4124,-20.8633 18.4612,-10.5917 39.0282,-18.4224 52.6048,-28.4899 38.4806,-28.5389 58.7939,-57.5549 77.3198,-80.3143 16.0268,-19.6886 44.8361,-80.1694 55.0584,-121.0002 4.1703,-16.655 5.5174,-44.0796 -5.5723,-57.1757 -42.7122,-50.4402 -37.6112,-45.7832 -45.3589,-49.1683 l -4.6122,-2.0152 -2.6969,-0.5493 35.2743,-52.0665 -16.6901,-11.3089 -39.7055,58.6069 z"
     style="fill:none;stroke:#ff0000;stroke-width:1;stroke-linecap:butt;stroke-linejoin:miter;stroke-miterlimit:4;stroke-dasharray:none;stroke-opacity:1"
     id="path20"
     inkscape:connector-curvature="0" />
  <path
     d="m 424.0219,1470.1635 c 12.1927,-4.4312 83.4559,39.4458 141.3456,-10.1481 16.2743,-13.9419 57.9467,-70.9948 80.0289,-136.5945 18.4354,-54.7602 19.6075,-114.9635 26.0835,-145.8898 2.89,-13.8036 9.4808,-20.5044 10.0642,-20.518 38.3357,-0.8025 52.5265,128.3227 11.2314,245.0625 -35.2587,99.6757 -137.0894,170.7009 -206.4518,184.3713 -22.4677,4.4274 -38.3601,-5.3042 -48.9866,-0.8286 -11.7159,4.934 -23.2625,14.4964 -36.0754,27.5462 -10.2657,10.4556 -22.3039,22.2821 -31.3112,38.7723 -30.4461,55.7473 -98.1681,52.6051 -104.7915,-4.4444 -5.9193,-50.9695 34.1943,-79.8778 37.1157,-122.4788 0.5905,-8.5975 -7.6462,-19.838 -18.8351,-34.6346 -68.288,-90.3019 9.3748,-291.4129 73.6302,-332.8767 31.7812,-20.51 54.4833,-43.7646 77.7155,-56.1654 51.6036,-27.5428 85.1494,-33.9094 100.9185,-33.2906 15.3695,0.6041 21.1343,12.9835 9.2588,26.0135 -10.1931,11.1881 -32.2259,21.0657 -54.8986,35.7942 -27.5119,17.8711 -56.5911,42.2751 -82.1993,69.3142 -59.9253,63.277 -71.286,152.657 -66.7984,163.8224 6.139,15.2756 6.1829,32.7198 14.5579,49.2143 27.8538,54.8572 33.0599,31.8135 44.2502,42.675 l 2.3136,2.2459 -25.4364,59.5511 18.5395,7.9186 24.6809,-57.7823 z"
     style="fill:none;stroke:#ff0000;stroke-width:1;stroke-linecap:butt;stroke-linejoin:miter;stroke-miterlimit:4;stroke-dasharray:none;stroke-opacity:1"
     id="path22"
     inkscape:connector-curvature="0" />
  <path
     d="m 729.3098,74.5858 4.7948,-0.1361 -1.8195,70.4373 18.7137,0.4833 1.8454,-71.4524 5.773,-0.1638 c 1.5194,-0.0431 3.1142,0.0249 4.6406,0.237 18.1276,2.5177 62.2769,5.8869 72.0649,4.6686 l 4.7444,-0.5904 0.9646,67.4342 18.7183,-0.2679 -0.9944,-69.4927 7.1524,-0.8904 c 24.7221,-3.0776 42.7745,0.6123 57.4251,-0.2733 3.3778,-0.2041 9.9482,0.6832 12.6468,0.487 l 5.7846,-0.4203 1.0664,74.5426 18.7183,-0.2678 -1.0822,-75.6341 10.4533,-0.7599 c 32.3342,-2.3502 114.0596,4.2193 148.0422,3.441 3.5132,-0.0806 6.5392,-0.764 8.85,-0.3598 3.1935,0.5607 11.1113,0.8232 11.0685,3.8727 -0.6185,42.5438 20.3887,142.5473 11.1994,154.4216 -11.833,15.2946 -34.1878,15.9795 -44.1468,16.0183 l -8.2539,0.0326 -9.0876,-88.833 -18.6225,1.9043 8.8997,87.0027 -5.7116,0.0224 c -10.4128,0.0405 -20.7986,3.3398 -24.2433,12.1541 -7.952,20.3479 -27.7957,40.1099 -51.1608,37.9576 -13.2545,-1.2189 -14.2597,-14.5684 -23.4941,-13.8702 l -5.9102,0.4481 -18.4519,1.3987 -1.6293,0.1236 c -11.7661,0.8923 -11.5563,21.3216 -18.9156,32.21 -2.1753,3.2185 -1.9735,10.3252 -4.4368,12.4796 -27.9267,24.4391 -54.1973,43.5957 -88.1606,37.7464 -13.2868,-2.2879 -27.7634,-5.8093 -43.9665,-18.2446 -19.6455,-15.075 -14.6616,-90.7733 -43.1555,-76.3288 l -5.3853,2.73 -14.8192,7.5124 -4.9572,2.5129 c -30.2363,15.3272 -59.9179,5.578 -63.8334,-7.1742 -4.4722,-14.5644 -22.3056,-25.8114 -36.3362,-27.7319 l -10.0817,-1.3799 7.3871,-89.7599 -18.6574,-1.535 -7.3043,88.7528 -3.8766,-0.5307 c -9.1843,-1.2571 -27.6546,-3.8239 -40.3115,-18.0309 -3.301,-3.7048 -7.1813,-7.2249 -8.051,-13.5632 -3.769,-27.4717 4.1468,-70.6884 9.0218,-94.1241 5.4698,-26.2865 -1.8964,-41.8793 8.0683,-49.3563 7.7502,-5.8175 25.9937,-6.7297 68.9272,-3.9617 l 63.4703,4.0949 z"
     style="fill:none;stroke:#ff0000;stroke-width:1;stroke-linecap:butt;stroke-linejoin:miter;stroke-miterlimit:4;stroke-dasharray:none;stroke-opacity:1"
     id="path24"
     inkscape:connector-curvature="0" />
  <path
     d="m 991.2736,440.837 c 26.0881,-51.4196 93.2752,26.9963 109.2385,52.2916 5.8337,9.2443 5.8135,28.4808 2.313,45.642 -2.1004,10.2957 -14.3498,22.8325 -9.2109,34.7791 10.1064,23.4973 31.8351,52.6788 30.8257,65.1753 -1.194,14.7507 12.6363,39.1071 19.1001,63.3493 2.154,8.0779 2.3516,16.162 1.8298,23.8717 -0.6378,9.3943 4.6601,25.1668 -2.1946,34.7981 -8.3498,11.7306 -25.9274,12.34 -34.0665,-0.4465 -7.2887,-11.4554 -9.7004,-31.2321 -16.5382,-48.2788 -12.1592,-30.3055 -26.3973,-62.0201 -33.6753,-69.1923 -5.8456,-5.7606 -8.1329,-14.6849 -13.4328,-21.9756 -8.833,-12.1518 -20.5262,-23.4295 -30.4844,-34.7706 -15.9369,-18.1474 -35.4449,-31.2282 -52.838,-42.7091 -18.4624,-12.1875 -43.8203,-16.175 -66.5927,-16.397 -46.2704,-0.4507 -58.6754,17.3792 -63.4039,27.203 l -0.4059,0.8433 -0.1619,0.1341 -46.3036,-45.0357 -14.0559,14.4527 44.7525,43.5274 -6.194,5.2115 c -9.5091,8.0008 -29.2691,35.6658 -32.3288,50.7869 -6.196,30.6182 5.2679,77.0542 33.8085,109.9877 27.9417,32.2441 59.7595,61.1081 97.7752,78.6183 20.3692,9.3835 36.375,19.381 56.0421,28.8323 10.3016,4.9521 27.6471,3.8135 34.1608,15.1526 43.2749,75.3421 -122.3472,2.7238 -150.5077,-5.7075 -15.0285,-4.4972 -29.475,-23.3048 -53.4717,-27.2155 -18.7157,-3.0498 -34.9897,7.7922 -53.4756,6.6198 -18.4903,-1.1724 -39.2011,-14.3697 -46.0003,-24.5279 -5.9423,-8.8801 -15.677,-15.9208 -23.307,-24.9194 -5.9315,-6.9985 -12.4515,-13.9717 -13.0422,-23.7957 -0.8912,-14.7759 11.5273,-22.9777 23.5176,-35.3503 l 2.3083,-2.382 32.2798,37.1914 14.1341,-12.2709 -33.3388,-38.4125 2.6248,-2.7085 c 8.3841,-8.6519 -10.4071,-21.6131 -12.6005,-30.6805 -4.6792,-19.3405 -7.7205,-39.4521 -9.6081,-56.304 -3.5648,-31.8462 17.9555,-57.1737 15.5804,-85.0729 -2.6609,-31.2301 -45.2186,-51.5551 -49.7047,-81.9218 -3.3868,-22.9343 13.5661,-63.5057 45.6888,-65.408 68.5642,-4.0635 88.9206,54.3991 124.0628,55.9885 19.8735,0.8974 35.153,-9.7075 51.2961,-9.4366 34.6541,0.5837 62.5425,46.1243 98.151,25.9881 l 8.7446,-4.9451 46.169,44.9524 13.0589,-13.4124 -42.2526,-41.1392 z"
     style="fill:none;stroke:#ff0000;stroke-width:1;stroke-linecap:butt;stroke-linejoin:miter;stroke-miterlimit:4;stroke-dasharray:none;stroke-opacity:1"
     id="path26"
     inkscape:connector-curvature="0" />
  <path
     d="m 307.2991,766.4539 c 8.6641,-3.6638 28.5968,3.85 48.7982,6.7345 20.6864,2.956 54.0345,-11.9174 65.1364,-31.5104 7.0614,-12.4609 14.7756,-39.6618 17.8234,-74.4804 2.4256,-27.7392 11.907,-67.8288 5.9809,-89.3494 -4.5959,-16.691 -17.5184,-66.5544 -2.5257,-74.0619 54.9278,-27.4967 60.4108,112.5963 63.6726,134.6723 10.9732,74.2912 -34.4267,203.4703 -119.2467,230.9199 -19.1089,6.1854 -35.0283,5.8164 -46.3793,12.0789 -21.5275,11.8798 -34.0603,33.0549 -45.9964,73.9228 -13.1854,45.148 -84.5289,67.1647 -102.5955,21.6862 -18.964,-47.7403 12.8937,-85.7937 4.9434,-127.753 -1.6053,-8.4699 -15.1589,-14.7107 -30.5144,-25.8335 -17.3475,-12.5643 -30.0453,-37.7907 -36.5069,-56.6887 -9.0306,-26.4092 -9.7954,-50.7912 -6.7782,-74.0633 7.2712,-56.0472 33.1569,-115.0294 60.4715,-160.2394 24.1308,-39.9416 79.0682,-94.0907 99.7685,-75.1845 21.3406,19.4891 8.4504,14.9389 5.3232,23.0655 -3.9464,10.2586 -42.9667,59.9809 -49.4467,71.1689 -19.6983,34.0141 -34.4149,89.5422 -37.179,131.2532 -1.0757,16.2598 8.4325,28.2555 17.9714,44.1023 29.5472,49.0855 39.1017,24.8683 54.4079,30.4251 l 5.3771,1.9522 -13.4496,64.8408 19.7399,4.0958 13.3591,-64.4049 z"
     style="fill:none;stroke:#ff0000;stroke-width:1;stroke-linecap:butt;stroke-linejoin:miter;stroke-miterlimit:4;stroke-dasharray:none;stroke-opacity:1"
     id="path28"
     inkscape:connector-curvature="0" />
  <path
     d="m 240.4868,304.5022 c -8.3086,4.3931 -14.2605,-6.1603 -34.1751,-1.6589 -19.9176,4.5003 -56.3161,17.9459 -66.0778,35.8404 -6.8613,12.5737 -17.257,48.5757 -26.4742,82.336 -13.5808,49.7421 -26.0288,82.904 -14.4604,107.9235 4.1587,8.9949 4.8547,42.3176 6.9489,70.3309 2.3822,31.8884 32.1196,49.0714 7.1708,81.311 C 98.0875,700.3967 66.714,655.9625 50.5276,602.968 32.0477,542.4619 33.2104,466.7397 35.1091,457.6912 c 6.5676,-31.2681 7.3508,-81.7514 24.3377,-126.733 20.6308,-54.6284 61.706,-102.1377 109.1826,-123.4352 18.3007,-8.2083 24.3385,-3.8931 35.0935,-11.1079 20.3975,-13.6802 28.4717,-52.2728 39.2437,-93.4525 4.5,-17.2083 16.8757,-33.0466 33.2203,-39.8413 21.9509,-9.1233 52.0571,-6.275 64.006,16.1768 23.6582,44.4546 -6.9369,98.3653 11.7386,138.6717 3.6323,7.8355 19.6435,25.2711 33.8626,37.7753 16.1181,14.1727 28.3357,28.463 34.7012,45.6163 8.9819,24.2073 22.4643,61.4891 22.3418,84.4622 -0.299,56.2451 -21.3346,171.076 -43.5424,217.1653 -15.268,31.6871 -93.647,99.2277 -115.0498,102.9362 -14.1298,2.4514 -17.4985,-3.7074 -11.976,-22.3894 7.8154,-26.4424 44.6992,-51.7992 54.5604,-79.909 15.5145,-44.2244 29.4298,-72.235 33.7354,-101.1653 3.592,-24.1351 14.6344,-84.8206 6.5503,-126.8623 -3.0753,-15.9945 -16.1303,-32.1248 -32.1787,-41.563 -51.7198,-30.4172 -51.1296,-28.3142 -59.8371,-28.7408 l -5.5856,-0.2735 -0.216,-0.002 15.5557,-63.3666 -19.5787,-4.8061 -16.6852,67.968 -8.1026,-0.3132 z"
     style="fill:none;stroke:#ff0000;stroke-width:1;stroke-linecap:butt;stroke-linejoin:miter;stroke-miterlimit:4;stroke-dasharray:none;stroke-opacity:1"
     id="path30"
     inkscape:connector-curvature="0" />
</svg>
